<svg width="599" height="529" viewBox="0 0 599 529" fill="none" xmlns="http://www.w3.org/2000/svg">
<path opacity="0.72" d="M79.1038 475.623L118.679 501.094C118.679 501.094 97.3633 528.636 217.362 528.636C355.955 528.636 110.482 454.775 110.482 454.775L79.1038 475.623Z" fill="#155195"/>
<path opacity="0.59" d="M554.772 465.384L509.938 501.094C509.938 501.094 535.705 532.415 411.262 528.636C272.737 524.412 518.142 454.775 518.142 454.775L554.772 465.384Z" fill="#155195"/>
<path d="M535.705 462.904C535.705 462.904 539.245 469.97 549.844 469.268C559.029 459.372 572.451 450.891 572.451 450.891L559.022 444.528L535.705 462.904Z" fill="#F99A00"/>
<path d="M67.7938 378.643C67.7938 378.643 -60.4114 175.314 38.417 116.839C125.797 65.1333 191.429 231.51 324.98 104.212C414.337 19.0272 627.206 222.958 529.801 269.671C432.396 316.384 421.288 368.993 421.288 368.993" stroke="#155195" stroke-width="1.54" stroke-miterlimit="10" stroke-linecap="round" stroke-dasharray="24.64 24.64"/>
<path d="M214.927 505.358C214.927 505.358 116.916 501.567 106.167 422.532C92.92 325.07 151.194 215.539 293.962 209.877C436.731 204.214 286.857 204.225 349.796 204.225C412.736 204.225 631.413 314.29 514.763 464.828C475.187 421.719 385.134 509.681 385.134 509.681L214.927 505.358Z" fill="#FFB800"/>
<path d="M283.635 246.346C284.372 240.704 279.092 235.362 271.84 234.413C264.589 233.465 258.113 237.27 257.375 242.912C256.637 248.553 261.917 253.896 269.169 254.844C276.42 255.792 282.897 251.987 283.635 246.346Z" fill="white"/>
<path d="M454.997 299.678C454.997 299.678 483.198 338.472 454.997 400.1C494.534 412.431 554.049 392.568 554.049 392.568V339.217L507.407 278.436L454.997 299.678Z" fill="#F99A00"/>
<path d="M95.6395 468.272C95.6395 468.272 89.7037 476.333 79.1038 475.623C69.9124 465.727 56.4967 457.246 56.4967 457.246L69.9255 450.89L95.6395 468.272Z" fill="#F99A00"/>
<path d="M178.015 308.962C178.015 308.962 150.24 365.68 174.656 415.313C135.126 427.644 74.8609 398.926 74.8609 398.926V345.579L121.51 284.797L178.015 308.962Z" fill="#F99A00"/>
<path d="M168.512 403.453L116.669 392.854C93.0407 385.561 67.2753 397.02 59.8731 418.103C55.3513 431.017 58.723 445.07 68.7997 455.254L129.988 486.968L168.512 403.453Z" fill="#E8A3AB"/>
<path d="M115.095 393.145C115.095 393.145 88.9485 408.356 86.0849 464.196C72.2238 456.942 71.229 456.225 71.229 456.225C71.229 456.225 67.2762 426.597 80.136 409.887C92.9958 393.177 115.095 393.145 115.095 393.145Z" fill="#D8939E"/>
<path d="M116.671 392.854C92.7684 396.478 68.504 431.802 79.1057 475.623C35.9905 449.476 28.0108 417.716 37.3277 381.189C52.8883 320.188 151.197 224.722 245.901 216.955C223.468 319.519 141.466 306.377 113.205 346.283C99.1319 366.158 116.671 392.854 116.671 392.854Z" fill="#FFB800"/>
<path d="M507.407 387.985L512.244 386.492C535.866 379.199 561.638 390.658 569.04 411.741C573.562 424.655 570.19 438.708 560.107 448.892L516.475 482.68L507.407 387.985Z" fill="#E8A3AB"/>
<path d="M548.455 389.288C542.936 386.583 536.956 384.946 530.828 384.463C532.766 386.905 554.727 415.939 542.759 462.322L560.108 448.887C561.231 447.752 562.286 446.55 563.266 445.289C562.524 434.264 559.236 397.02 548.455 389.288Z" fill="#D8939E"/>
<path d="M527.883 384.289C552.429 398.68 560.412 425.447 549.812 469.267C592.921 443.114 601.963 411.838 597.721 374.381C593.478 336.923 494.496 239.752 385.135 211.293C409.409 332.725 492.097 307.425 524.369 344.165C546.851 369.762 527.883 384.289 527.883 384.289Z" fill="#FFB800"/>
<path d="M415.725 158.463C426.118 261.642 370.278 299.099 314.212 299.099C258.146 299.099 202.842 262.126 212.706 158.463C212.706 84.6728 258.153 48.9663 314.212 48.9663C370.272 48.9663 415.725 84.6766 415.725 158.463Z" fill="#EDB9BD"/>
<path d="M422.604 205.745C427.682 196.175 426.95 185.844 420.969 182.671C414.987 179.497 406.022 184.683 400.944 194.253C395.867 203.823 396.599 214.154 402.58 217.327C408.561 220.501 417.526 215.315 422.604 205.745Z" fill="#EDB9BD"/>
<path d="M218.648 219.246C225.277 217.858 228.85 208.135 226.63 197.528C224.409 186.922 217.234 179.449 210.606 180.837C203.977 182.225 200.404 191.949 202.625 202.555C204.845 213.161 212.02 220.634 218.648 219.246Z" fill="#EDB9BD"/>
<path d="M242.089 161.529C267.59 213.519 314.194 212.777 360.293 196.099C406.393 179.421 420.125 157.841 420.125 157.841C420.125 157.841 452.24 43.0745 311.242 43.0745C187.994 43.0754 190.959 161.529 242.089 161.529Z" fill="#3A0835"/>
<path d="M369.794 373.36H364.865C364.865 353.621 344.195 337.564 318.779 337.564C293.363 337.564 272.699 353.621 272.699 373.36H267.771C267.771 351.509 290.65 333.733 318.799 333.733C346.948 333.733 369.794 351.509 369.794 373.36Z" fill="white"/>
<path d="M350.261 346.257C349.679 346.262 349.107 346.112 348.601 345.824C348.328 345.701 348.089 345.514 347.904 345.278C347.719 345.042 347.595 344.764 347.541 344.469C347.488 344.175 347.507 343.871 347.597 343.585C347.687 343.3 347.846 343.04 348.058 342.829L361.396 329.11C361.914 328.638 362.569 328.343 363.266 328.269C363.963 328.195 364.666 328.344 365.272 328.697C365.545 328.82 365.784 329.007 365.969 329.243C366.153 329.479 366.277 329.756 366.331 330.051C366.384 330.346 366.365 330.649 366.275 330.935C366.185 331.221 366.027 331.48 365.814 331.691L352.476 345.404C352.182 345.685 351.834 345.905 351.454 346.052C351.074 346.198 350.669 346.268 350.261 346.257Z" fill="white"/>
<path d="M287.303 346.258C286.485 346.276 285.693 345.969 285.1 345.406L271.769 331.692C271.559 331.48 271.403 331.221 271.315 330.936C271.226 330.651 271.208 330.349 271.26 330.056C271.313 329.762 271.435 329.486 271.617 329.249C271.799 329.013 272.035 328.824 272.305 328.698C272.912 328.347 273.614 328.199 274.311 328.273C275.007 328.347 275.662 328.641 276.181 329.111L289.513 342.828C289.722 343.04 289.878 343.3 289.967 343.584C290.055 343.869 290.074 344.171 290.022 344.465C289.969 344.758 289.847 345.035 289.665 345.271C289.483 345.508 289.247 345.697 288.976 345.823C288.467 346.114 287.89 346.264 287.303 346.258Z" fill="white"/>
<path d="M301.45 365.686C305.253 365.686 308.335 363.292 308.335 360.338C308.335 357.384 305.253 354.99 301.45 354.99C297.647 354.99 294.564 357.384 294.564 360.338C294.564 363.292 297.647 365.686 301.45 365.686Z" fill="white"/>
<path d="M336.109 365.686C339.912 365.686 342.995 363.292 342.995 360.338C342.995 357.384 339.912 354.99 336.109 354.99C332.306 354.99 329.224 357.384 329.224 360.338C329.224 363.292 332.306 365.686 336.109 365.686Z" fill="white"/>
<path d="M319.277 248.205C318.958 247.684 318.508 247.256 317.972 246.964C317.435 246.672 316.831 246.526 316.221 246.541C315.61 246.556 315.014 246.731 314.493 247.05C313.971 247.368 313.543 247.818 313.25 248.354C308.859 255.698 302.27 269.67 316.092 269.67C330.607 269.671 324.089 255.577 319.277 248.205Z" fill="#E8A3AB"/>
<path d="M247.489 222.583C247.489 222.583 273.648 224.08 288.685 229.456" stroke="#3A0835" stroke-width="9.11" stroke-miterlimit="10" stroke-linecap="round"/>
<path d="M336.762 231.51C336.762 231.51 366.294 224.866 381.854 228.461" stroke="#3A0835" stroke-width="9.11" stroke-miterlimit="10" stroke-linecap="round"/>
<path d="M283.635 246.346C284.372 240.704 279.092 235.362 271.84 234.413C264.589 233.465 258.113 237.27 257.375 242.912C256.637 248.553 261.917 253.896 269.169 254.844C276.42 255.792 282.897 251.987 283.635 246.346Z" fill="white"/>
<path d="M283.635 250.857C284.373 245.215 279.093 239.873 271.841 238.925C264.59 237.976 258.114 241.781 257.376 247.423C256.638 253.065 261.918 258.407 269.17 259.355C276.421 260.303 282.898 256.499 283.635 250.857Z" fill="#3A0835"/>
<path d="M356.333 254.918C363.646 254.834 369.521 250.154 369.456 244.464C369.39 238.775 363.409 234.231 356.096 234.315C348.783 234.399 342.909 239.08 342.974 244.769C343.04 250.459 349.021 255.003 356.333 254.918Z" fill="white"/>
<path d="M356.966 259.38C364.279 259.296 370.154 254.616 370.088 248.926C370.023 243.237 364.041 238.693 356.729 238.777C349.416 238.861 343.541 243.542 343.607 249.231C343.672 254.921 349.653 259.465 356.966 259.38Z" fill="#3A0835"/>
<path d="M411.043 222.583C411.043 222.583 405.41 190.217 398.544 180.405C391.678 170.593 406.393 158.824 406.393 158.824L411.301 139.208L422.088 144.11L416.847 181.767C416.847 181.767 416.675 207.875 411.043 222.583Z" fill="#3A0835"/>
<path d="M219.495 226.019L241.662 156.864L211.194 121.477V180.114C211.194 180.114 213.862 211.305 219.495 226.019Z" fill="#491246"/>
<path d="M245.093 149.452C245.118 149.351 245.133 149.247 245.138 149.142V150.46C245.171 151.106 245.216 151.797 245.28 152.481C245.409 153.857 245.59 155.252 245.803 156.647C246.247 159.451 246.831 162.231 247.554 164.976C248.989 170.497 251.007 175.85 253.574 180.944C256.131 186.038 259.361 190.767 263.176 195.002C268.97 201.394 276.204 206.312 284.279 209.348C287.005 210.356 289.847 211.24 292.676 212.087C298.323 213.761 304.085 215.02 309.915 215.853C315.751 216.704 321.665 216.882 327.542 216.383C330.484 216.121 333.396 215.598 336.245 214.82C337.67 214.424 339.07 213.943 340.437 213.38C341.815 212.825 343.129 212.125 344.358 211.293C343.172 212.196 341.889 212.967 340.535 213.592C339.188 214.234 337.803 214.793 336.388 215.265C333.545 216.211 330.622 216.898 327.655 217.319C321.709 218.142 315.689 218.28 309.711 217.733C303.73 217.195 297.796 216.224 291.955 214.826C289.029 214.116 286.142 213.36 283.235 212.494C280.296 211.613 277.432 210.498 274.671 209.161C269.092 206.466 263.975 202.904 259.511 198.607C255.046 194.287 251.18 189.388 248.016 184.041C244.843 178.71 242.244 173.056 240.265 167.176C239.271 164.232 238.426 161.24 237.734 158.211C237.385 156.687 237.088 155.149 236.823 153.58C236.694 152.792 236.578 151.997 236.487 151.17C236.436 150.75 236.394 150.337 236.365 149.879C236.369 149.629 236.358 149.379 236.332 149.13V148.316C236.342 148.118 236.368 147.922 236.41 147.728L245.093 149.452Z" fill="#491246"/>
<path d="M304.504 293.422C304.504 293.422 321.143 298.932 333.06 288.054" stroke="#E8A3AB" stroke-width="5.68" stroke-miterlimit="10" stroke-linecap="round"/>
<path d="M528.38 415.223C528.38 415.223 527.321 374.407 489.909 357.62C462.309 341.595 453.738 359.635 462.445 366.857C486.576 378.648 508.744 403.634 508.744 403.634L528.38 415.223Z" fill="#EDB9BD"/>
<path d="M118.68 405.275C118.68 405.275 122.123 368.981 161.149 356.418C190.339 343.504 196.869 362.393 187.432 368.613C162.145 377.656 137.36 400.083 137.36 400.083L118.68 405.275Z" fill="#EDB9BD"/>
<path d="M156.449 413.759L59.3968 116.979H582.256L469.355 438.421L156.449 413.759Z" fill="url(#paint0_linear)"/>
<path d="M498.978 414.938L469.182 502.137C466.543 509.862 461.554 516.568 454.914 521.317C448.274 526.066 440.315 528.619 432.152 528.62H207.209C199.046 528.619 191.087 526.066 184.447 521.317C177.807 516.568 172.818 509.862 170.179 502.137L140.401 414.934C138.384 409.046 137.802 402.762 138.704 396.604C139.606 390.446 141.965 384.593 145.586 379.53C149.206 374.468 153.983 370.343 159.518 367.5C165.054 364.656 171.189 363.175 177.413 363.18H461.948C468.172 363.176 474.307 364.658 479.843 367.502C485.38 370.346 490.157 374.47 493.779 379.532C497.4 384.594 499.762 390.447 500.666 396.605C501.57 402.763 500.992 409.048 498.978 414.938Z" fill="#155195"/>
<path d="M471.333 364.279L439.983 371.984L406.818 528.633H432.152C440.315 528.632 448.274 526.078 454.914 521.33C461.553 516.581 466.542 509.875 469.181 502.15L498.978 414.947C500.732 409.811 501.399 404.366 500.937 398.959C500.476 393.551 498.895 388.299 496.295 383.535C493.696 378.771 490.135 374.599 485.837 371.284C481.54 367.969 476.601 365.584 471.333 364.279Z" fill="#155195"/>
<path d="M162.757 371.988V368.993H156.802C149.268 373.663 143.544 380.751 140.564 389.099C137.585 397.446 137.528 406.557 140.402 414.941L170.198 502.14C172.837 509.865 177.826 516.572 184.466 521.32C191.106 526.069 199.065 528.623 207.228 528.624H208.071L162.757 371.988Z" fill="#155195"/>
<path d="M223.461 431.396C219.479 431.406 215.638 429.93 212.687 427.256C197.379 413.44 182.975 406.884 169.76 407.763C154.548 408.784 145.344 419.454 144.961 419.906L145.077 419.77L120.823 423.898C105.844 411.793 126.442 381.468 153.261 378.186C157.565 377.663 161.949 376.087 166.825 375.705C189.278 373.935 211.955 383.243 234.24 403.357C236.654 405.535 238.352 408.395 239.109 411.558C239.866 414.72 239.646 418.039 238.478 421.074C237.31 424.109 235.25 426.719 232.569 428.56C229.888 430.401 226.711 431.385 223.459 431.383L223.461 431.396Z" fill="#EDB9BD"/>
<path d="M196.016 486.551C194.411 486.55 192.815 486.308 191.281 485.834C161.297 476.61 147.959 476.102 142.928 476.507C141.019 479.389 138.233 481.58 134.982 482.755C131.731 483.931 128.188 484.028 124.877 483.032C121.567 482.036 118.665 480.001 116.602 477.227C114.538 474.453 113.423 471.089 113.422 467.632C113.444 464.254 114.267 460.929 115.822 457.931C117.377 454.932 119.62 452.344 122.368 450.379C128.995 445.483 138.593 443.558 151.725 444.488C164.308 445.387 180.792 448.946 200.738 455.082C204.42 456.214 207.573 458.63 209.625 461.89C211.677 465.151 212.491 469.039 211.919 472.848C211.347 476.658 209.428 480.136 206.51 482.65C203.591 485.165 199.868 486.549 196.016 486.551Z" fill="#EDB9BD"/>
<path d="M174.635 505.057C173.224 505.051 171.822 504.833 170.476 504.412C152.184 498.786 138.089 493.502 128.408 488.657H128.027C124.903 488.342 121.943 487.109 119.52 485.113C117.097 483.118 115.319 480.449 114.411 477.444C113.503 474.439 113.505 471.232 114.418 468.228C115.331 465.224 117.113 462.558 119.539 460.566C121.406 459.275 128.11 455.347 136.21 460.696C142.855 465.075 157.965 471.031 178.783 477.418C182.033 478.397 184.822 480.514 186.639 483.382C188.456 486.25 189.179 489.676 188.675 493.033C188.171 496.39 186.475 499.453 183.897 501.662C181.318 503.87 178.031 505.076 174.636 505.057H174.635Z" fill="#EDB9BD"/>
<path d="M217.351 466.741C214.712 466.739 212.114 466.087 209.787 464.842C179.958 448.914 161.646 444.922 151.538 444.379C143.045 443.927 139.446 445.806 138.624 446.317C135.929 449.42 132.149 451.375 128.059 451.779C123.969 452.184 119.879 451.008 116.628 448.493C113.378 445.978 111.213 442.314 110.578 438.254C109.943 434.193 110.886 430.043 113.213 426.656C115.216 423.755 123.263 414.17 142.738 412.406C163.82 410.469 191.472 418.588 224.931 436.456C228.095 438.147 230.603 440.847 232.057 444.127C233.51 447.407 233.826 451.079 232.954 454.559C232.082 458.039 230.072 461.127 227.243 463.334C224.414 465.54 220.929 466.738 217.342 466.737L217.351 466.741Z" fill="#EDB9BD"/>
<path d="M425.214 435.555C421.958 435.542 418.783 434.545 416.104 432.695C413.426 430.845 411.369 428.229 410.203 425.189C409.037 422.15 408.818 418.829 409.572 415.663C410.327 412.496 412.022 409.631 414.433 407.445C436.808 387.337 459.564 378.036 482.081 379.812C510.727 382.067 525.428 404.131 527.217 406.334L503.964 423.938L504.074 424.08C503.693 423.622 494.444 412.951 479.149 411.924C465.894 411.033 451.374 417.602 435.995 431.431C433.035 434.092 429.194 435.561 425.214 435.555Z" fill="#EDB9BD"/>
<path d="M452.769 490.692C448.93 490.651 445.231 489.244 442.336 486.724C439.441 484.203 437.538 480.733 436.969 476.936C436.401 473.139 437.204 469.264 439.234 466.005C441.264 462.747 444.389 460.318 448.047 459.155C482.507 448.601 492.732 441.922 497.873 439.129C499.081 434.824 505.159 432.069 509.5 429.989C513.357 428.152 517.785 427.918 521.814 429.339C525.843 430.76 529.145 433.719 530.997 437.569C532.256 440.156 532.934 442.987 532.982 445.864C533.031 448.741 532.449 451.593 531.278 454.221C526.575 464.93 515.285 472.268 457.481 489.968C455.955 490.442 454.367 490.686 452.769 490.692Z" fill="#EDB9BD"/>
<path d="M474.209 509.21C470.834 509.214 467.569 508.01 465.004 505.817C462.438 503.624 460.742 500.585 460.22 497.251C459.699 493.917 460.386 490.506 462.159 487.634C463.932 484.762 466.673 482.619 469.888 481.591C497.488 472.736 502.384 462.723 502.766 461.839C503.348 459.917 504.331 458.139 505.65 456.623C506.968 455.108 508.593 453.889 510.416 453.046C512.24 452.203 514.221 451.756 516.23 451.734C518.239 451.711 520.23 452.115 522.071 452.917C523.913 453.719 525.564 454.902 526.916 456.388C528.268 457.874 529.29 459.629 529.915 461.539C530.54 463.448 530.754 465.468 530.542 467.466C530.33 469.463 529.698 471.394 528.687 473.13C526.68 477.486 523.96 481.477 520.639 484.938C511.596 494.523 497.387 502.455 478.528 508.513C477.133 508.967 475.676 509.203 474.209 509.21ZM530.624 466.024C530.555 466.815 530.436 467.6 530.268 468.376C530.48 467.609 530.599 466.819 530.623 466.024H530.624ZM502.765 461.877C502.566 462.58 502.453 463.304 502.429 464.035C502.496 463.309 502.608 462.588 502.764 461.877H502.765Z" fill="#EDB9BD"/>
<path d="M431.35 470.903C427.789 470.884 424.334 469.689 421.523 467.504C418.712 465.318 416.702 462.265 415.806 458.819C414.91 455.372 415.179 451.727 416.569 448.449C417.96 445.171 420.395 442.444 423.496 440.694C457.691 421.658 484.386 410.654 502.852 408.003C522.054 405.239 530.168 412.053 533.293 416.355C535.461 419.379 536.518 423.058 536.286 426.77C536.054 430.483 534.548 434.002 532.021 436.732C529.494 439.462 526.103 441.237 522.419 441.755C518.735 442.273 514.985 441.503 511.804 439.576C507.67 439.402 489.558 440.804 439.151 468.867C436.766 470.199 434.081 470.9 431.35 470.903Z" fill="#EDB9BD"/>
<path d="M597.713 374.381C596.66 365.047 589.723 352.015 578.213 337.259C611.801 414.343 560.005 462.529 560.005 462.529C592.288 439.121 601.964 411.837 597.713 374.381Z" fill="#F99A00"/>
<path d="M152.629 371.984H486.732C479.749 366.25 470.983 363.136 461.948 363.18H177.413C168.378 363.136 159.611 366.25 152.629 371.984Z" fill="#155195"/>
<path d="M102.589 287.33C69.0009 318.018 44.4557 353.211 37.3511 381.192C28.0108 417.719 35.9886 449.478 79.1038 475.625C79.1001 475.623 -1.49318 393.146 102.589 287.33Z" fill="#F99A00"/>
<path d="M170.631 239.751L171.66 239.228L170.631 239.751Z" fill="#F99A00"/>
<path d="M534.323 374.601C534.169 375.157 533.968 375.699 533.722 376.221C533.064 377.797 532.225 379.29 531.222 380.672C531.527 380.814 557.434 391.595 563.945 416.657C570.204 440.743 563.664 456.271 560.014 462.517C563.459 460.022 566.648 457.486 569.58 454.908C572.415 445.775 574.044 432.43 569.58 415.197C562.349 387.448 536.751 375.486 534.323 374.601Z" fill="#FFCA55"/>
<path d="M110.844 380.704C91.2665 383.526 72.8218 399.972 63.6153 425.501C59.9285 436.024 57.3716 446.909 55.9876 457.973C57.6496 459.619 59.4152 461.246 61.2843 462.856C62.5076 450.75 65.1395 438.827 69.1263 427.331C78.2036 402.243 94.466 388.504 113.649 387.329C112.931 385.968 111.762 382.849 110.844 380.704Z" fill="#FFCA55"/>
<path d="M252.972 148.586C228.977 144.859 216.491 126.774 210.038 107.525C204.632 135.3 218.028 161.53 242.088 161.53C267.589 213.521 314.192 212.778 360.291 196.1C371.483 192.137 382.271 187.117 392.51 181.108C303.613 191.101 279.423 177.705 252.972 148.586Z" fill="#491246"/>
<path d="M242.005 151.467L242.566 104.209L255.116 157.659L240.828 151.639" fill="#491246"/>
<path d="M421.284 365.228H347.43C346.39 365.228 345.547 366.071 345.547 367.111C345.547 368.15 346.39 368.993 347.43 368.993H421.284C422.324 368.993 423.167 368.15 423.167 367.111C423.167 366.071 422.324 365.228 421.284 365.228Z" fill="white"/>
<path d="M80.3775 194.641L66.4705 200.817L81.1626 204.777L81.6661 211.32L58.9363 204.863L58.4001 197.958L79.8703 188.088L80.3775 194.641Z" fill="#155195"/>
<path d="M94.7935 176.434L102.374 175.846L90.8501 219.226L83.27 219.808L94.7935 176.434Z" fill="#155195"/>
<path d="M126.412 192.703L126.941 199.602L105.471 209.452L104.968 202.901L118.874 196.733L104.182 192.773L103.677 186.223L126.412 192.703Z" fill="#155195"/>
<path d="M569.822 181.522C570.746 182.813 570.681 183.996 569.319 185.708L566.993 188.634C566.788 188.837 566.632 189.083 566.537 189.355C566.442 189.627 566.411 189.917 566.445 190.203C566.479 190.49 566.579 190.764 566.735 191.006C566.892 191.248 567.102 191.45 567.349 191.599L567.672 191.85L565.037 195.164L563.539 193.969C560.31 191.385 559.962 188.479 562.247 185.65L565.064 182.111C565.19 181.989 565.288 181.841 565.349 181.676C565.41 181.512 565.433 181.335 565.416 181.161C565.4 180.986 565.344 180.817 565.252 180.667C565.161 180.518 565.037 180.39 564.89 180.295L564.102 179.649L566.757 176.31L567.538 176.956C567.664 177.078 567.816 177.171 567.983 177.226C568.149 177.281 568.326 177.298 568.5 177.275C568.674 177.252 568.841 177.19 568.987 177.093C569.134 176.997 569.257 176.868 569.347 176.718L572.163 173.178C574.417 170.343 577.33 170.027 580.56 172.591L582.057 173.786L579.428 177.093L579.106 176.841C578.905 176.634 578.66 176.475 578.389 176.377C578.118 176.279 577.828 176.244 577.541 176.275C577.254 176.306 576.978 176.403 576.735 176.557C576.491 176.711 576.286 176.918 576.134 177.164L573.809 180.084C572.426 181.806 571.295 182.136 569.822 181.522Z" fill="#155195"/>
<path d="M587.443 192.812L584.788 196.151L584.033 195.544C583.907 195.421 583.755 195.327 583.588 195.272C583.422 195.216 583.244 195.199 583.07 195.222C582.895 195.245 582.729 195.307 582.582 195.404C582.435 195.502 582.313 195.631 582.224 195.783L579.408 199.323C577.153 202.152 574.24 202.475 571.011 199.904L569.486 198.697L572.122 195.39L572.464 195.661C572.665 195.868 572.91 196.027 573.181 196.125C573.452 196.223 573.742 196.258 574.029 196.227C574.315 196.196 574.591 196.099 574.835 195.945C575.079 195.791 575.284 195.584 575.435 195.338L577.761 192.412C579.117 190.7 580.247 190.371 581.72 190.978C580.797 189.687 580.861 188.511 582.225 186.799L584.549 183.873C584.755 183.671 584.911 183.424 585.007 183.152C585.102 182.88 585.134 182.59 585.1 182.303C585.065 182.017 584.966 181.742 584.809 181.501C584.652 181.259 584.442 181.056 584.194 180.908L583.852 180.637L586.487 177.323L588.005 178.531C591.234 181.115 591.584 184.021 589.297 186.86L586.482 190.4C586.355 190.521 586.257 190.67 586.196 190.835C586.135 190.999 586.113 191.175 586.129 191.35C586.146 191.525 586.202 191.693 586.294 191.843C586.385 191.993 586.509 192.12 586.656 192.215L587.443 192.812Z" fill="#155195"/>
<path d="M480.841 54.9358L505.257 50.8324L508.852 72.2225C508.993 73.0671 508.794 73.9336 508.297 74.6312C507.8 75.3289 507.047 75.8006 506.202 75.9425L488.219 78.9647C487.374 79.1067 486.508 78.9073 485.81 78.4104C485.113 77.9135 484.641 77.1598 484.499 76.3152L480.904 54.9251L480.841 54.9358Z" fill="#35BAB6"/>
<path d="M509.74 50.0743L509.739 50.0744C508.506 50.2816 507.674 51.4491 507.881 52.682L509.986 65.2052C510.193 66.4381 511.361 67.2696 512.594 67.0624L512.595 67.0623C513.828 66.8551 514.659 65.6876 514.452 64.4547L512.347 51.9315C512.14 50.6986 510.973 49.867 509.74 50.0743Z" fill="#35BAB6"/>
<path d="M504.667 69.3685C504.383 67.7156 502.813 66.6058 501.16 66.8896C499.507 67.1735 498.397 68.7435 498.681 70.3964L500.582 81.465C500.865 83.1179 502.436 84.2278 504.088 83.9439C505.741 83.6601 506.851 82.09 506.567 80.4371L504.667 69.3685Z" fill="#35BAB6"/>
<path d="M494.646 71.0941C494.362 69.4412 492.792 68.3314 491.139 68.6152C489.486 68.899 488.376 70.4691 488.66 72.122L490.561 83.1906C490.845 84.8435 492.415 85.9534 494.068 85.6695C495.721 85.3857 496.831 83.8156 496.547 82.1627L494.646 71.0941Z" fill="#35BAB6"/>
<path d="M476.399 55.6844L476.398 55.6845C475.165 55.8917 474.333 57.0592 474.541 58.2921L476.645 70.8153C476.853 72.0482 478.02 72.8798 479.253 72.6725L479.254 72.6724C480.487 72.4652 481.318 71.2977 481.111 70.0648L479.006 57.5416C478.799 56.3087 477.632 55.4772 476.399 55.6844Z" fill="#35BAB6"/>
<path d="M490.737 38.9738C489.133 39.2431 487.599 39.8256 486.22 40.6882C484.842 41.5507 483.648 42.6764 482.705 44.0008C481.762 45.3252 481.089 46.8224 480.725 48.407C480.361 49.9915 480.312 51.6323 480.582 53.2355L504.998 49.1273C504.729 47.524 504.146 45.9895 503.284 44.6114C502.421 43.2333 501.296 42.0387 499.971 41.0958C498.647 40.1529 497.15 39.4802 495.565 39.1161C493.981 38.752 492.34 38.7037 490.737 38.9738ZM487.436 47.3708C487.193 47.4109 486.943 47.3654 486.73 47.2421C486.516 47.1188 486.352 46.9253 486.265 46.6946C486.178 46.4638 486.174 46.2101 486.253 45.9766C486.333 45.7431 486.49 45.5443 486.7 45.4141C486.909 45.2839 487.157 45.2302 487.402 45.2623C487.646 45.2944 487.872 45.4103 488.04 45.5902C488.209 45.77 488.31 46.0028 488.326 46.2488C488.343 46.4948 488.273 46.7389 488.13 46.9394C488.048 47.0532 487.945 47.1498 487.826 47.2236C487.707 47.2975 487.574 47.3472 487.436 47.3699V47.3708ZM496.601 45.8267C496.393 45.8622 496.18 45.8351 495.987 45.749C495.795 45.6629 495.632 45.5215 495.52 45.3429C495.407 45.1643 495.351 44.9564 495.357 44.7455C495.363 44.5347 495.431 44.3303 495.554 44.1584C495.676 43.9865 495.846 43.8547 496.043 43.7797C496.241 43.7048 496.456 43.69 496.661 43.7372C496.867 43.7845 497.054 43.8917 497.198 44.0453C497.343 44.1988 497.439 44.3919 497.474 44.5999C497.52 44.8782 497.455 45.1636 497.291 45.3936C497.128 45.6236 496.88 45.7793 496.601 45.8267Z" fill="#35BAB6"/>
<path d="M497.939 41.945C497.803 41.98 497.661 41.98 497.526 41.945C497.411 41.911 497.304 41.8545 497.211 41.7787C497.118 41.7029 497.041 41.6094 496.984 41.5036C496.928 41.3978 496.893 41.2818 496.882 41.1624C496.87 41.043 496.883 40.9225 496.919 40.808L498.34 36.1384C498.41 35.907 498.57 35.7131 498.783 35.5992C498.996 35.4853 499.246 35.4608 499.477 35.531C499.708 35.6013 499.902 35.7605 500.016 35.9737C500.13 36.187 500.155 36.4367 500.084 36.668L498.663 41.3377C498.611 41.4962 498.515 41.6369 498.388 41.7442C498.26 41.8515 498.105 41.921 497.94 41.945H497.939Z" fill="#35BAB6"/>
<path d="M484.904 44.1404C484.736 44.1666 484.565 44.1468 484.408 44.0832C484.251 44.0196 484.114 43.9145 484.012 43.7792L481.144 39.8263C481.073 39.7292 481.023 39.6191 480.995 39.5024C480.967 39.3857 480.962 39.2647 480.981 39.1462C481 39.0277 481.042 38.9141 481.105 38.8119C481.168 38.7096 481.25 38.6208 481.347 38.5504C481.444 38.4799 481.555 38.4293 481.671 38.4015C481.788 38.3736 481.909 38.369 482.027 38.3879C482.146 38.4068 482.26 38.4488 482.362 38.5116C482.464 38.5744 482.553 38.6567 482.623 38.7539L485.492 42.7002C485.564 42.7982 485.616 42.9096 485.644 43.0279C485.673 43.1462 485.678 43.269 485.659 43.3892C485.64 43.5094 485.597 43.6246 485.532 43.728C485.468 43.8314 485.384 43.921 485.285 43.9916C485.17 44.0684 485.04 44.1192 484.904 44.1404Z" fill="#35BAB6"/>
<path d="M164.698 0.637663L127.734 11.9085C125.889 12.4703 124.173 13.39 122.684 14.6151C121.195 15.8401 119.962 17.3464 119.055 19.0481C118.148 20.7498 117.586 22.6134 117.399 24.5326C117.212 26.4518 117.406 28.3889 117.968 30.2334L123.051 46.9047C124.187 50.6288 126.756 53.7491 130.192 55.5793C133.629 57.4095 137.652 57.7998 141.376 56.6642L178.34 45.3869C182.064 44.2508 185.185 41.682 187.015 38.2455C188.845 34.8089 189.235 30.7862 188.1 27.0619L183.023 10.4047C182.461 8.56001 181.542 6.84409 180.317 5.35489C179.092 3.8657 177.585 2.6324 175.884 1.72543C174.182 0.818453 172.318 0.255574 170.399 0.0689358C168.48 -0.117703 166.543 0.0755462 164.698 0.637663ZM148.554 44.6101L140.402 17.9397L164.023 25.3157L148.554 44.6101Z" fill="#FF4065"/>
<defs>
<linearGradient id="paint0_linear" x1="320.827" y1="183.517" x2="320.827" y2="403.383" gradientUnits="userSpaceOnUse">
<stop stop-color="#1E78DE" stop-opacity="0"/>
<stop offset="1" stop-color="#DEE8DD"/>
</linearGradient>
</defs>
</svg>
