<svg xmlns="http://www.w3.org/2000/svg" width="360.327" height="445" viewBox="0 0 360.327 445"><g transform="translate(-370.673 -489)"><g transform="translate(370.673 489)"><g transform="translate(0)"><path d="M102.034,8.94c2.746-1.187,6.232.539,4.56,3.969-1.791,3.673-7.687,3.41-11.011,3.161.334,0,1.587-3.388,1.982-3.89A11.3,11.3,0,0,1,102.034,8.94Zm-34.4,66.826C66.65,76.524,67.557,75.837,67.638,75.765ZM104.23,26.542a3.2,3.2,0,0,1,.115,4.818c-1.648,1.643-4.488,1.433-6.6,1.155-.956-.126-6.06-.8-4.8-1.566a4.255,4.255,0,0,0-.51.209q-.2.6-.417,1.2c.029.019.053.039.085.058-.034-.017-.057-.035-.087-.052a46.48,46.48,0,0,1-5.892,11.192,11.177,11.177,0,0,1,2.69-.564c2.692-.2,8.209,2.154,5.031,5.525-3.046,3.231-7.32-.627-10.549-1.3A151.507,151.507,0,0,1,72.341,59.273a.866.866,0,0,1,.509.466A21.529,21.529,0,0,1,77.3,57.893c1.977-.309,6-.35,7.383,1.459,1.7,2.225-.335,3.855-2.5,4.151-3.144.431-7.139-1.287-10.081-2.46a.994.994,0,0,1-.923-.359l-.193-.073c-3.907,3.831-7.95,7.521-11.963,11.128h.124a10.427,10.427,0,0,1,3.294-1.287c2.709-.507,5.856-.346,7.925,1.683s2.65,5.4.3,7.424c-4.7,4.058-10.784-6.065-13.021-6.591-4.077,3.625-8.362,6.986-12.709,10.273a7.475,7.475,0,0,1,1.474-.219c4.1-.175,13.416,5.276,8.151,9.89-4.589,4.021-9.207-4.416-12.572-7.458-4.094,3.061-8.208,6.1-12.218,9.267a11.269,11.269,0,0,1,6.347.37c2.282.815,5.93,2.742,4.3,5.765-1.658,3.075-6.073,1.407-8.359.285-1.248-.612-3.708-2.587-5.913-3.48A76.54,76.54,0,0,0,9.7,116.294,66.482,66.482,0,0,0,3.182,130.66c-1.025,3.2-3,8.566-2.882,12.808-1.158-8.54,2.282-18.546,5.807-25.942A63.647,63.647,0,0,1,19.3,99.616C18.236,95.785,7.883,89.8,14.429,86.635,17.9,84.96,21.2,88.209,21.768,91.5c.388,2.26-.533,5.027-1.467,7.152q2.51-2.388,5.187-4.605C27.948,92,30.462,90.023,33,88.073c-3.8-3.926-7.019-14.751-1.569-16.21C39.475,69.714,34.9,84.014,34.2,86.7a.434.434,0,0,1-.362-.158c.031.251.069.52.118.792,4.85-3.712,9.767-7.342,14.535-11.152a20.652,20.652,0,0,1-1.466-2.141,23.177,23.177,0,0,1-2.84-4.586c-1.144-2.612-2.161-6.738,1.306-8.059,3.771-1.441,5.279,3.244,5.16,5.985A36,36,0,0,1,49.585,72.9c-.115.575.073,3.2-.664,2.038a5.457,5.457,0,0,1-.025.928q1.285-1.031,2.553-2.085a.99.99,0,0,1-.054-.319.958.958,0,0,1,1.416-.821q1.675-1.419,3.314-2.885c2.309-2.077,4.654-4.215,6.985-6.4-.458-.433-.237-.987-.662-1.444s-1.294-.739-1.8-1.168a12.618,12.618,0,0,1-3.008-4.1c-1.184-2.46-2.612-7.567,1.277-8.509,4.009-.972,5.757,3.963,5.851,7a76.645,76.645,0,0,1-1.143,7.734C67.94,58.8,72.2,54.569,76.079,50.244c-1.1-.067-4.118-2.471-4.718-3.116-1.466-1.572-3.747-5-.946-6.6,2.49-1.422,5.34.973,6.254,3.2a30.282,30.282,0,0,1,.538,5.236c1.609-1.836,3.149-3.687,4.59-5.55q1.441-1.857,2.716-3.819a1.8,1.8,0,0,1-.5-.546c-3.98-.883-8.773-7.355-3.941-9.269,2.3-.91,4.625,1.336,5.633,3.128a22.85,22.85,0,0,1,.7,3.593,74.158,74.158,0,0,0,6.009-13.751.871.871,0,0,1-.643-.841,11.936,11.936,0,0,1-4.632-4.386c-.776-1.359-2.14-4.442.384-5.043C90.8,11.7,92.573,16.7,92.71,19.123c.016.281-.028,1.094-.078,1.839a1.1,1.1,0,0,1,.337.024c.9-2.959,1.654-5.965,2.287-8.982-1.735-.654-1.555-9.849-.311-11.1,2.782-2.79,4.412,1.534,4.153,3.761a14.707,14.707,0,0,1-3.185,7.012c-.166.217-.121.209-.145-.107a.628.628,0,0,1-.171.345,39.536,39.536,0,0,1-.064,4.041,92.719,92.719,0,0,1-1.769,10.455q-.286,1.254-.633,2.484a20.637,20.637,0,0,1,4.217-2.381C99.336,25.757,102.378,24.981,104.23,26.542ZM0,143.118a6.456,6.456,0,0,0,.763,3.053A16.669,16.669,0,0,1,0,143.118Z" transform="translate(58.06 5.602) rotate(-3)" fill="#c1dee2" fill-rule="evenodd" opacity="0.2"/><g transform="translate(0 39.375)" opacity="0.5"><path d="M162.774,105.892c3.207-4.573,9.158-16.186,13.671-17.82,2.908-1.052,2.06,9.834,2.1,11.91a174.046,174.046,0,0,1-1.607,23.974c-1.74,14.363-7.428,27.153-15.229,39.377-4.014,6.29-8.723,12.657-15.245,16.581-3,1.808-6.613,2.11-9.578,3.668-3.453,1.812-1.573.347-3.129,3.945-2.16,5-2.852,11.44-3.852,16.77-4.59,24.467-15.7,153.811-13.778,178.7.171,2.206-2.9,2.734-3.059.04-.816-14.279,6.246-113.164,9.81-145.5s7.169-60.907,10.784-72.1c4.386-13.574,12.308-29.9,18.9-42.554A150.581,150.581,0,0,1,162.774,105.892Z" transform="translate(-26.766 -20.845)" fill="#69a1ac" fill-rule="evenodd"/><path d="M185.629,318.738c8.345-6.126,17.378,5.436,9.826,11.563-4.174,3.387-8.539,2.183-11-.64-1.595,1.944-3.088,3.977-4.522,5.694-4.37,5.233-8.5,10.589-12.448,16.071-8.2,11.389-15.228,23.42-22.576,35.231-7.251,11.658-14.445,23.375-21.017,35.328-5.568,10.127-12.989,22.04-14.9,33.142,2.892-23.546,13.868-46.177,26.937-66.933,12.963-20.587,27.84-43.069,47.912-59.316A7.109,7.109,0,0,1,185.629,318.738Z" transform="translate(-25.819 -75.088)" fill="#c1dee2" fill-rule="evenodd"/><path d="M1.46,244.024c4.67.913,12.3,11.477,16.149,15.5a150.743,150.743,0,0,1,12.637,15.223,257.472,257.472,0,0,1,22.359,36.468,338.972,338.972,0,0,1,24.877,64.742,266.979,266.979,0,0,1,7.548,42.466c.269,2.689,3.088,23.419-.974,23.978-3.653.5-2.524-15.74-2.7-17.95-1.993-24.928-7.961-49.182-16.263-72.678-1.808-5.118-3.488-11.387-6.38-15.994-2.083-3.317-.015-2.16-3.675-3.416-3.142-1.079-6.723-.815-9.941-2.136-6.991-2.866-12.588-8.432-17.5-14.03-9.535-10.88-17.092-22.65-21.031-36.591a176.141,176.141,0,0,1-5.307-23.472C.977,254.076-1.548,243.435,1.46,244.024Z" transform="translate(0 -57.796)" fill="#69a1ac" fill-rule="evenodd"/><path d="M22.731,10.467a423.176,423.176,0,0,1,41.378,97.955c5.655,20.564,9.61,41.666,13.539,62.615,6.084,32.438,11.838,64.872,13.475,97.886,1.647,33.2,4.9,71.5-5.969,103.484,5.431-32.47.26-67.032-.656-99.7-.437-15.6-1.7-31.041-3.368-46.547-1.614-15.041-4.25-30.011-6.706-44.934q-1.794-10.9-3.731-21.777c-.382-2.164-.543-8.585-1.916-10.063s-8.43-2.095-10.643-3.187a57.118,57.118,0,0,1-12.358-8.623c-7.112-6.327-13.3-14.594-18.182-22.744C16.3,95.974,11.78,72.963,12.008,51.125c.044-4.24,6.863-49.9,4.124-50.525Q16.38.31,16.6,0,19.71,5.207,22.731,10.467Z" transform="translate(-2.842)" fill="#89c5cc" fill-rule="evenodd"/><path d="M235.8,156.966c.272-.391,2.038-3.114,1.149-2.94,1.811-.355-2.491,3,2.022.942-2.143,2.024-.906,4.653-.878,7.376a66.073,66.073,0,0,1-1.525,13.134,90.074,90.074,0,0,1-6.123,19.851c-6.2,13.864-16.733,27.209-29.235,35.877-6.172,4.279-12.221,5.736-19.26,7.706-4.447,1.245-4.8,3.545-7.16,7.859-4.913,8.987-9.739,17.94-14.073,27.23-5.174,11.094-10.2,22.2-14.935,33.487C129.818,345.513,116.826,384.906,110,425.674c-.167-24.024,5.391-48.768,12.4-71.667,5.107-16.684,11.754-32.766,18.845-48.687,1.718-3.856,4.322-8.818,5.052-13.075.511-2.984-1.052-5.852-1.767-9A94.14,94.14,0,0,1,144.4,245c2.7-13.568,10.507-19.865,23.713-21.787,4.83-.7,10.969-.446,15.4-2.505,4.825-2.242,6.816-9.614,9.56-14.345a195.087,195.087,0,0,1,26.18-35.611,84.928,84.928,0,0,1,8.954-8.238C230.2,160.909,234.434,158.938,235.8,156.966Z" transform="translate(-26.056 -36.478)" fill="#89c5cc" fill-rule="evenodd"/><path d="M79.607,476h46.869a3.816,3.816,0,0,1,3.816,3.816,3.769,3.769,0,0,1-.041.556l-3.623,24.564a15.263,15.263,0,0,1-15.1,13.036H94.554a15.263,15.263,0,0,1-15.1-13.036l-3.622-24.564a3.816,3.816,0,0,1,3.218-4.332A3.878,3.878,0,0,1,79.607,476Z" transform="translate(-17.953 -112.75)" fill="#c1dee2" fill-rule="evenodd"/></g></g></g><g transform="translate(428 551)"><g transform="translate(356 24) rotate(180)"><g transform="translate(82)"><g transform="translate(54 -31)"><path d="M8.262-34.49C3.654-29.081.536-22.453,1.057-15.026c1.5,21.4,31.292,16.693,37.087,5.892s5.106-38.2-2.383-40.13c-2.987-.77-9.349,1.116-15.825,5.019L24-73H0Z" fill="#915b3c" fill-rule="evenodd"/></g><path d="M60.418-70.308c-3.012,13.4-11.594,22.536-10.283,28.526a9.085,9.085,0,0,0,6.986,7.45q2.935,11.875,18.934,10.1c16-1.773,25.763-8.417,21.547-23.037-3.876,0-8.556,1.4-15.027-1q-3.08-1.143-4.406-7.09H75.246q-4.257,7.057-8.395,5.187t-1.881-9.087l-1.44-11.049Z" fill="#191847" fill-rule="evenodd"/></g><g transform="translate(0 -187)"><g transform="translate(10 -42)"><path d="M59,0H174a16,16,0,0,0,16-16v-92a16,16,0,0,0-16-16H59a16,16,0,0,0-16,16v92A16,16,0,0,0,59,0ZM75-28a4,4,0,0,1-4-4V-92a4,4,0,0,1,4-4h83a4,4,0,0,1,4,4v60a4,4,0,0,1-4,4Z" fill="#c5cfd6" fill-rule="evenodd"/></g><path d="M299.159-161q-29.574,36.114-40.021,53.546c-11.925,19.9-21.685,37.606-24.765,44.37-7.345,16.129,16.909,23.682,22.4,16.159Q269.233-64.006,310-154.417Z" fill="#b28b67" fill-rule="evenodd"/><path d="M258.758-154,222.065-61.637c-7.848,16.837,30.051,27.9,35.818,20.069C270.977-59.357,302.1-129.534,306-134.834Z" fill="#773f5a" fill-rule="evenodd"/><g transform="matrix(0.777, -0.629, 0.629, 0.777, 244.113, -25.238)"><path d="M4.81-137.955C3.8-125.354,1.934-81.734,3.8-61.543c.538,5.8,1.1,11.411,1.675,16.674,1.7,15.641,30.7,15.147,28.4.287-5.736-37.007-15.831-88.87-16.555-93.351C16.307-144.215,5.443-145.874,4.81-137.955Z" fill="#915b3c" fill-rule="evenodd"/></g><g transform="matrix(0.866, -0.5, 0.5, 0.866, 173.086, -107.429)"><path d="M2.678-25.4A21.472,21.472,0,0,1,1-32.106,50.177,50.177,0,0,1,1.9-40H58.3q2.2,7.268-2.538,7.848T47.9-31.106L21.68-19.419a1,1,0,0,1-1.321-.506l-.011-.026-1.685-4.088a17.983,17.983,0,0,0-7.127-2.046,16.139,16.139,0,0,0-6.152,1.8h0a2,2,0,0,1-2.652-.985Q2.7-25.335,2.678-25.4Z" fill="#e4e4e4" fill-rule="evenodd"/></g><g transform="translate(288 -132)"><path d="M2.678-25.4A21.472,21.472,0,0,1,1-32.106,50.177,50.177,0,0,1,1.9-40H58.3q2.2,7.268-2.538,7.848T47.9-31.106L21.68-19.419a1,1,0,0,1-1.32-.506l-.011-.026-1.685-4.088a17.983,17.983,0,0,0-7.127-2.046,16.139,16.139,0,0,0-6.152,1.8h0a2,2,0,0,1-2.652-.985Q2.7-25.335,2.678-25.4Z" fill="#e4e4e4" fill-rule="evenodd"/></g><path d="M208.862-66.25Q163.117-58.8,147.581-56.058C118.057-50.852,109.448-34.965,114.538-.3h54.4q10.8-3.118,90.234-38.569c9.528-4.73,7.753-18.676,6.012-23.27q-.106-.281-48.188-82.571l-44.5,28.348L208.946-69.59Q210.389-66.682,208.862-66.25Z" fill="#773f5a" fill-rule="evenodd"/></g><g transform="translate(22 -82)"><path d="M190.781-92.212l31.9-23.424a85.87,85.87,0,0,0,21.685-8.714c1.371-1.249,3.028-3.779-2.659-3.342s-11.687.642-12.472-1.3,2.657-4.259,1.071-6.876q-1.587-2.617-14.987,13.124l-31.587,13.1ZM68.308-93.02l20.9-.082q-19.355-62.481-20.9-66.3c-2.314-5.734,2.583-14.468,4.677-19.161-6.82-3.052-6.093,8.25-14.7,4.248-7.853-3.654-13.826-10.273-22.9-4.675-1.115.688-2.338,3.279.616,5.3,7.358,5.045,17.961,13.875,19.393,16.782Q58.328-150.964,68.308-93.02Z" fill="#915b3c" fill-rule="evenodd"/><path d="M122.731-9.58l8.485,2.231C165.593-32.163,183.361-84.056,225-108.727l-8.407-12.514C147.888-118.771,125.382-55.547,122.731-9.58Z" transform="translate(6.265 14.909) rotate(-5)" fill="#f99a00" fill-rule="evenodd"/><path d="M90-114h76.511c3.5,0,2.838,5.048,2.332,7.6-5.832,29.4-28.6,61.092-28.6,102.943L118.172,0C99.918-29.358,93.6-65.5,90-114Z" fill="#dde3e9" fill-rule="evenodd"/><path d="M90.615-28.858A12.622,12.622,0,0,0,83-22.411C74.934-7.856,77.847.158,86.467,2.792S102.775,0,116.51,0a13.834,13.834,0,0,0,2.053-.14l6.909-.394Q155.205-101.305,141.872-135H81.652a205.387,205.387,0,0,0-10.243-21H55Q52.684-81.1,90.615-28.858Z" fill="#f99a00" fill-rule="evenodd"/><path d="M94.765-100.5Q97.606-124.267,104-135H81.652Q87.895-120.442,94.765-100.5Z" fill="rgba(0,0,0,0.1)" fill-rule="evenodd"/></g></g></g></g></svg>