<svg xmlns="http://www.w3.org/2000/svg" width="1337.308" height="683.083" viewBox="0 0 1337.308 683.083"><g transform="translate(-174.692 0)"><rect width="45.699" height="158.188" transform="translate(1321.278 275.104)" fill="#f2f2f2"/><path d="M1081.748,311.28,970.6,179.052l-223.1,2.04L612.156,312.914l2.735,1.758h-.977V588.866h467.535V314.672Z" transform="translate(315.408 92.255)" fill="#f2f2f2"/><path d="M896.008,179.238,757.154,342.03V588.77H1006.74V311.061Z" transform="translate(390.117 92.351)" fill="#e6e6e6"/><rect width="50.972" height="45.053" transform="translate(1247.456 544.67)" fill="#3f3d56"/><rect width="50.972" height="44.339" transform="translate(1247.456 466.688)" fill="#3f3d56"/><rect width="50.972" height="45.053" transform="translate(1247.456 544.67)" fill="#fff"/><rect width="50.972" height="44.339" transform="translate(1247.456 466.688)" fill="#fff"/><rect width="50.972" height="45.053" transform="translate(1020.935 532.715)" fill="#fff"/><rect width="50.972" height="44.339" transform="translate(1020.935 454.733)" fill="#fff"/><rect width="45.699" height="158.188" transform="translate(960.651 275.104)" fill="#f2f2f2"/><path d="M843.748,311.28,732.6,179.052l-223.1,2.04L374.156,312.914l2.735,1.758h-.977V588.866H843.449V314.672Z" transform="translate(192.781 92.255)" fill="#f2f2f2"/><path d="M658.008,179.238,519.154,342.03V588.77H768.74V311.061Z" transform="translate(267.49 92.351)" fill="#e6e6e6"/><rect width="50.972" height="45.053" transform="translate(886.828 544.67)" fill="#3f3d56"/><rect width="50.972" height="44.339" transform="translate(886.828 466.688)" fill="#3f3d56"/><rect width="50.972" height="45.053" transform="translate(886.828 544.67)" fill="#fff"/><rect width="50.972" height="44.339" transform="translate(886.828 466.688)" fill="#fff"/><rect width="50.972" height="45.053" transform="translate(660.307 532.715)" fill="#fff"/><rect width="50.972" height="44.339" transform="translate(660.307 454.733)" fill="#fff"/><rect width="68.111" height="60.202" transform="translate(174.692 482.815)" fill="#fff"/><rect width="68.111" height="59.247" transform="translate(174.692 378.612)" fill="#fff"/><ellipse cx="44.092" cy="89.967" rx="44.092" ry="89.967" transform="translate(1275.727 444.114)" fill="#464989"/><path d="M970.581,746.539c17.66-105.954.178-211.525,0-212.578l-3.435.582c.178,1.048,17.559,106.064,0,211.425Z" transform="translate(345.168 -65.198)" fill="#ccc"/><rect width="3.485" height="45.217" transform="translate(1279.349 517.812) rotate(-61.858)" fill="#ccc"/><rect width="45.218" height="3.485" transform="translate(1321.438 546.762) rotate(-28.158)" fill="#ccc"/><ellipse cx="86.24" cy="175.963" rx="86.24" ry="175.963" transform="translate(1339.521 219.367)" fill="#464989"/><path d="M1036.849,816.6c34.494-206.959.348-413.165,0-415.225l-3.435.582c.348,2.054,34.393,207.7,0,414.072Z" transform="translate(379.312 -133.514)" fill="#ccc"/><rect width="3.485" height="88.441" transform="translate(1347.398 362.04) rotate(-61.858)" fill="#ccc"/><rect width="88.441" height="3.485" transform="translate(1429.72 421.581) rotate(-28.158)" fill="#ccc"/><ellipse cx="118.012" cy="240.793" rx="118.012" ry="240.793" transform="translate(1103.497 48.63)" fill="#464989"/><path d="M899.293,868.543c47.184-283.1.476-565.173,0-567.99l-3.435.582c.476,2.811,47.084,284.326,0,566.835Z" transform="translate(308.438 -185.46)" fill="#ccc"/><rect width="3.485" height="121.024" transform="translate(1114.582 243.296) rotate(-61.858)" fill="#ccc"/><rect width="121.024" height="3.485" transform="matrix(0.882, -0.472, 0.472, 0.882, 1227.226, 325.93)" fill="#ccc"/><path d="M697.762,329.909l13.949-11.156c-10.836-1.2-15.289,4.714-17.111,9.392-8.466-3.515-17.682,1.092-17.682,1.092l27.909,10.132a21.119,21.119,0,0,0-7.065-9.459Z" transform="translate(195.632 -176.163)" fill="#3f3d56"/><path d="M472.762,264.909l13.949-11.156c-10.836-1.2-15.289,4.714-17.111,9.392-8.466-3.515-17.682,1.092-17.682,1.092l27.909,10.132A21.12,21.12,0,0,0,472.762,264.909Z" transform="translate(79.702 -209.654)" fill="#3f3d56"/><path d="M839.762,235.909l13.949-11.156c-10.836-1.2-15.289,4.714-17.111,9.392-8.466-3.515-17.682,1.092-17.682,1.092l27.909,10.132a21.12,21.12,0,0,0-7.066-9.459Z" transform="translate(268.796 -224.596)" fill="#3f3d56"/><path d="M867.748,662.678a21.091,21.091,0,0,0-10.563,2.835,22.7,22.7,0,0,0-37.925,16.863h69.625A21.2,21.2,0,0,0,867.748,662.678Z" transform="translate(268.972 -0.438)" fill="#155195"/><path d="M639.748,662.678a21.092,21.092,0,0,0-10.563,2.835,22.7,22.7,0,0,0-37.925,16.863h69.625A21.2,21.2,0,0,0,639.748,662.678Z" transform="translate(151.497 -0.438)" fill="#155195"/><path d="M540.064,404.228H339.191v6.479h31.328v61.558H377V410.707H499.016v61.558H505.5V410.707h34.567Z" transform="translate(174.765 208.275)" fill="#155195"/><rect width="200.873" height="6.48" transform="translate(514.352 593.117)" fill="#155195"/><rect width="200.873" height="6.48" transform="translate(514.352 576.918)" fill="#155195"/><rect width="200.873" height="6.48" transform="translate(514.352 560.718)" fill="#155195"/><path d="M747.064,404.228H546.191v6.479h31.328v61.558H584V410.707H706.016v61.558H712.5V410.707h34.567Z" transform="translate(281.42 208.275)" fill="#155195"/><rect width="200.873" height="6.48" transform="translate(828.007 593.117)" fill="#155195"/><rect width="200.873" height="6.48" transform="translate(828.007 576.918)" fill="#155195"/><rect width="200.873" height="6.48" transform="translate(828.007 560.718)" fill="#155195"/></g></svg>