<svg width="595" height="490" viewBox="0 0 595 490" fill="none" xmlns="http://www.w3.org/2000/svg">
<path opacity="0.23" d="M242.426 489.049C-70.8123 501.853 -0.308407 305.763 104.679 276.538C112.344 196.95 148.905 154.148 252.603 149.777C403.316 143.407 381.064 288.243 382.013 308.325C459.84 243.928 522.83 281.194 535.099 330.625C573.973 487.285 382.36 483.329 242.426 489.049Z" fill="#7ABFF5"/>
<path d="M149.143 56.7779C151.651 55.8186 154.189 54.986 156.757 54.2801" stroke="#E8F6FF" stroke-width="1.792" stroke-miterlimit="10" stroke-linecap="round"/>
<path d="M170.209 51.5143C198.553 47.7479 227.561 55.7607 243.733 63.9329" stroke="#E8F6FF" stroke-width="1.792" stroke-miterlimit="10" stroke-linecap="round" stroke-dasharray="27.4 27.4"/>
<path d="M249.702 67.3188C252.571 69.172 254.643 70.9503 255.756 72.5041" stroke="#E8F6FF" stroke-width="1.792" stroke-miterlimit="10" stroke-linecap="round"/>
<path d="M197.396 234.604C197.396 234.604 194.632 233.53 190.028 231.437" stroke="#E8F6FF" stroke-width="1.792" stroke-miterlimit="10" stroke-linecap="round"/>
<path d="M176.509 224.804C144.407 207.914 87.7279 169.945 98.9185 116.715" stroke="#CCE0EE" stroke-width="1.792" stroke-miterlimit="10" stroke-linecap="round" stroke-dasharray="30.06 30.06"/>
<path d="M100.844 109.451C101.637 106.988 102.57 104.49 103.663 101.958" stroke="#E8F6FF" stroke-width="1.792" stroke-miterlimit="10" stroke-linecap="round"/>
<path d="M282.957 16.3292C278.323 16.6989 270.874 13.5514 275.002 4.87973C279.13 -3.79197 285.786 1.1979 288.184 3.88084C290.241 6.16662 291.193 10.6696 289.357 12.768C288.008 14.3017 290.175 16.9967 290.175 16.9967L288.199 17.8658C288.199 17.8658 285.044 16.1646 282.957 16.3292Z" fill="#3A0835"/>
<path d="M284.933 16.7635C284.933 16.7635 288.314 14.5657 289.337 14.5955C289.538 15.0879 289.779 15.5626 290.06 16.0144C290.06 16.0144 289.057 17.9001 288.204 18.0876C287.351 18.275 285.094 16.6338 284.933 16.7635Z" fill="white"/>
<path d="M287.246 13.6115C287.944 13.1695 288.581 12.639 289.142 12.0331C289.713 11.4255 290.191 10.7372 290.562 9.9902C290.936 9.2351 291.158 8.41343 291.214 7.57241C291.274 6.71947 291.186 5.86244 290.953 5.03976C291.269 5.85125 291.438 6.71212 291.455 7.5827C291.474 8.46725 291.317 9.34684 290.994 10.1702C290.673 11.0008 290.23 11.7787 289.679 12.4783C289.125 13.1942 288.479 13.8342 287.758 14.3818L287.246 13.6115Z" fill="#3A0835"/>
<path d="M283.96 16.2041C282.209 16.5405 280.416 16.6012 278.646 16.3841C277.755 16.2749 276.884 16.043 276.058 15.6949C275.219 15.348 274.469 14.819 273.86 14.1463C273.263 13.4716 272.836 12.6629 272.616 11.7885C272.411 10.9338 272.331 10.0536 272.38 9.17586C272.505 7.44341 272.876 5.73767 273.484 4.11057C272.958 5.75135 272.67 7.4587 272.627 9.18101C272.616 10.0261 272.731 10.868 272.97 11.6788C273.205 12.4819 273.632 13.2158 274.214 13.8171C275.448 14.9584 277.048 15.6225 278.728 15.6903C280.41 15.8151 282.101 15.6837 283.744 15.3006L283.96 16.2041Z" fill="#3A0835"/>
<path d="M370.234 162.044C370.234 162.044 520.34 101.923 578.735 186.922C637.13 271.922 509.16 342.783 509.16 342.783" stroke="#CCE0EE" stroke-width="1.792" stroke-miterlimit="10" stroke-linecap="round" stroke-dasharray="32 32"/>
<path d="M316.711 69.0274C316.711 69.0274 360.049 93.6567 363.861 94.5047C348.407 94.5047 348.914 95.7236 348.914 95.7236L315.949 86.437L316.711 69.0274Z" fill="#EDB9BD"/>
<path d="M238.596 95.9734C238.596 95.9734 251.828 68.9977 269.645 64.0621C297.945 56.1841 315.932 66.0622 315.932 66.0622L310.916 115.138L253.378 113.922L238.596 95.9734Z" fill="#EA3D90"/>
<path d="M263.546 96.0179L313.328 91.5069L312.571 98.5254L263.054 98.1008L263.546 96.0179Z" fill="#EA3D90"/>
<path d="M233.156 95.9779H357.662C367.147 95.9779 376.242 99.7455 382.948 106.452C389.655 113.158 393.422 122.254 393.422 131.738V421.895C393.422 431.379 389.655 440.474 382.948 447.181C376.242 453.887 367.147 457.655 357.662 457.655H233.156C223.672 457.655 214.576 453.887 207.87 447.181C201.163 440.474 197.396 431.379 197.396 421.895V131.738C197.396 122.254 201.163 113.158 207.87 106.452C214.576 99.7455 223.672 95.9779 233.156 95.9779V95.9779Z" fill="#1E78DE"/>
<path d="M363.227 109.311H227.592C216.782 109.311 208.02 118.074 208.02 128.884V424.755C208.02 435.564 216.782 444.327 227.592 444.327H363.227C374.036 444.327 382.799 435.564 382.799 424.755V128.884C382.799 118.074 374.036 109.311 363.227 109.311Z" fill="#7ABFF5"/>
<path d="M331.636 77.6928L326.184 89.3326L333.899 91.504L333.678 78.5557C333.097 78.2227 332.525 77.9031 331.964 77.5968L331.636 77.6928Z" fill="#E8A3AB"/>
<path d="M271.573 170.711H225.413C224.447 170.711 223.664 171.494 223.664 172.459C223.664 173.425 224.447 174.208 225.413 174.208H271.573C272.539 174.208 273.322 173.425 273.322 172.459C273.322 171.494 272.539 170.711 271.573 170.711Z" fill="white"/>
<path d="M306.684 170.711H285.102C284.136 170.711 283.353 171.494 283.353 172.459C283.353 173.425 284.136 174.208 285.102 174.208H306.684C307.65 174.208 308.433 173.425 308.433 172.459C308.433 171.494 307.65 170.711 306.684 170.711Z" fill="white"/>
<path d="M252.899 183.2H247.368C246.402 183.2 245.619 183.983 245.619 184.948C245.619 185.914 246.402 186.697 247.368 186.697H252.899C253.865 186.697 254.648 185.914 254.648 184.948C254.648 183.983 253.865 183.2 252.899 183.2Z" fill="white"/>
<path d="M236.462 183.2H225.413C224.447 183.2 223.664 183.983 223.664 184.948C223.664 185.914 224.447 186.697 225.413 186.697H236.462C237.427 186.697 238.21 185.914 238.21 184.948C238.21 183.983 237.427 183.2 236.462 183.2Z" fill="#7768AE"/>
<path d="M225.413 199.181H271.573C272.539 199.181 273.322 198.398 273.322 197.433C273.322 196.467 272.539 195.684 271.573 195.684H225.413C224.447 195.684 223.664 196.467 223.664 197.433C223.664 198.398 224.447 199.181 225.413 199.181Z" fill="#FFB800"/>
<path d="M285.102 199.181H306.684C307.65 199.181 308.433 198.398 308.433 197.433C308.433 196.467 307.65 195.684 306.684 195.684H285.102C284.136 195.684 283.353 196.467 283.353 197.433C283.353 198.398 284.136 199.181 285.102 199.181Z" fill="white"/>
<path d="M283.978 281.707H330.139C331.104 281.707 331.887 280.924 331.887 279.959C331.887 278.993 331.104 278.21 330.139 278.21H283.978C283.013 278.21 282.23 278.993 282.23 279.959C282.23 280.924 283.013 281.707 283.978 281.707Z" fill="white"/>
<path d="M343.668 281.707H365.25C366.216 281.707 366.999 280.924 366.999 279.959C366.999 278.993 366.216 278.21 365.25 278.21H343.668C342.702 278.21 341.919 278.993 341.919 279.959C341.919 280.924 342.702 281.707 343.668 281.707Z" fill="white"/>
<path d="M225.413 211.67H239.471C240.437 211.67 241.22 210.887 241.22 209.922C241.22 208.956 240.437 208.173 239.471 208.173H225.413C224.447 208.173 223.664 208.956 223.664 209.922C223.664 210.887 224.447 211.67 225.413 211.67Z" fill="white"/>
<path d="M250.492 211.67H272.075C273.04 211.67 273.823 210.887 273.823 209.922C273.823 208.956 273.04 208.173 272.075 208.173H250.492C249.527 208.173 248.744 208.956 248.744 209.922C248.744 210.887 249.527 211.67 250.492 211.67Z" fill="#EA3D90"/>
<path d="M291.178 229.244H277.134C274.856 229.279 274.851 225.712 277.134 225.748H291.178C293.45 225.712 293.455 229.279 291.178 229.244Z" fill="white"/>
<path d="M266.098 229.244H244.529C244.297 229.248 244.066 229.206 243.85 229.12C243.635 229.034 243.438 228.906 243.272 228.744C243.107 228.581 242.975 228.387 242.885 228.172C242.795 227.958 242.749 227.728 242.749 227.496C242.749 227.264 242.795 227.034 242.885 226.819C242.975 226.605 243.107 226.411 243.272 226.248C243.438 226.086 243.635 225.957 243.85 225.871C244.066 225.785 244.297 225.743 244.529 225.748H266.098C268.366 225.712 268.381 229.279 266.098 229.244Z" fill="#EA3D90"/>
<path d="M236.506 229.244H225.47C225.238 229.248 225.007 229.206 224.792 229.12C224.576 229.034 224.379 228.906 224.214 228.744C224.048 228.581 223.916 228.387 223.826 228.172C223.736 227.958 223.69 227.728 223.69 227.496C223.69 227.264 223.736 227.034 223.826 226.819C223.916 226.605 224.048 226.411 224.214 226.248C224.379 226.086 224.576 225.957 224.792 225.871C225.007 225.785 225.238 225.743 225.47 225.748H236.506C238.778 225.712 238.783 229.279 236.506 229.244Z" fill="#7768AE"/>
<path d="M271.573 311.571H225.413C224.447 311.571 223.664 312.353 223.664 313.319C223.664 314.285 224.447 315.067 225.413 315.067H271.573C272.539 315.067 273.322 314.285 273.322 313.319C273.322 312.353 272.539 311.571 271.573 311.571Z" fill="white"/>
<path d="M366.374 311.571H320.213C319.248 311.571 318.465 312.353 318.465 313.319C318.465 314.285 319.248 315.067 320.213 315.067H366.374C367.339 315.067 368.122 314.285 368.122 313.319C368.122 312.353 367.339 311.571 366.374 311.571Z" fill="white"/>
<path d="M306.684 311.571H285.102C284.136 311.571 283.353 312.353 283.353 313.319C283.353 314.285 284.136 315.067 285.102 315.067H306.684C307.65 315.067 308.433 314.285 308.433 313.319C308.433 312.353 307.65 311.571 306.684 311.571Z" fill="#FFB800"/>
<path d="M252.899 324.059H247.368C246.402 324.059 245.619 324.842 245.619 325.807C245.619 326.773 246.402 327.556 247.368 327.556H252.899C253.865 327.556 254.648 326.773 254.648 325.807C254.648 324.842 253.865 324.059 252.899 324.059Z" fill="white"/>
<path d="M236.462 324.059H225.413C224.447 324.059 223.664 324.842 223.664 325.807C223.664 326.773 224.447 327.556 225.413 327.556H236.462C237.427 327.556 238.21 326.773 238.21 325.807C238.21 324.842 237.427 324.059 236.462 324.059Z" fill="#7768AE"/>
<path d="M225.413 340.045H271.573C272.539 340.045 273.322 339.262 273.322 338.296C273.322 337.331 272.539 336.548 271.573 336.548H225.413C224.447 336.548 223.664 337.331 223.664 338.296C223.664 339.262 224.447 340.045 225.413 340.045Z" fill="#EA3D90"/>
<path d="M285.102 340.045H306.684C307.65 340.045 308.433 339.262 308.433 338.296C308.433 337.331 307.65 336.548 306.684 336.548H285.102C284.136 336.548 283.353 337.331 283.353 338.296C283.353 339.262 284.136 340.045 285.102 340.045Z" fill="#7768AE"/>
<path d="M225.413 352.534H239.471C240.437 352.534 241.22 351.751 241.22 350.785C241.22 349.82 240.437 349.037 239.471 349.037H225.413C224.447 349.037 223.664 349.82 223.664 350.785C223.664 351.751 224.447 352.534 225.413 352.534Z" fill="white"/>
<path d="M250.492 352.534H272.075C273.04 352.534 273.823 351.751 273.823 350.785C273.823 349.82 273.04 349.037 272.075 349.037H250.492C249.527 349.037 248.744 349.82 248.744 350.785C248.744 351.751 249.527 352.534 250.492 352.534Z" fill="#FFB800"/>
<path d="M355.325 352.534H366.373C367.339 352.534 368.122 351.751 368.122 350.785C368.122 349.82 367.339 349.037 366.373 349.037H355.325C354.359 349.037 353.576 349.82 353.576 350.785C353.576 351.751 354.359 352.534 355.325 352.534Z" fill="white"/>
<path d="M282.594 352.534H342.799C343.765 352.534 344.548 351.751 344.548 350.785C344.548 349.82 343.765 349.037 342.799 349.037H282.594C281.629 349.037 280.846 349.82 280.846 350.785C280.846 351.751 281.629 352.534 282.594 352.534Z" fill="white"/>
<path d="M236.506 370.108H225.47C225.238 370.112 225.007 370.07 224.792 369.984C224.576 369.898 224.379 369.77 224.214 369.607C224.048 369.444 223.916 369.25 223.826 369.036C223.736 368.822 223.69 368.592 223.69 368.36C223.69 368.127 223.736 367.897 223.826 367.683C223.916 367.469 224.048 367.275 224.214 367.112C224.379 366.949 224.576 366.821 224.792 366.735C225.007 366.649 225.238 366.607 225.47 366.611H236.506C238.778 366.576 238.783 370.138 236.506 370.108Z" fill="#7768AE"/>
<path d="M271.573 240.739H225.413C224.447 240.739 223.664 241.522 223.664 242.487C223.664 243.453 224.447 244.236 225.413 244.236H271.573C272.539 244.236 273.322 243.453 273.322 242.487C273.322 241.522 272.539 240.739 271.573 240.739Z" fill="white"/>
<path d="M306.684 240.739H285.102C284.136 240.739 283.353 241.522 283.353 242.487C283.353 243.453 284.136 244.236 285.102 244.236H306.684C307.65 244.236 308.433 243.453 308.433 242.487C308.433 241.522 307.65 240.739 306.684 240.739Z" fill="#FFB800"/>
<path d="M252.899 253.228H247.368C246.402 253.228 245.619 254.011 245.619 254.976C245.619 255.942 246.402 256.724 247.368 256.724H252.899C253.865 256.724 254.648 255.942 254.648 254.976C254.648 254.011 253.865 253.228 252.899 253.228Z" fill="white"/>
<path d="M236.462 253.228H225.413C224.447 253.228 223.664 254.011 223.664 254.976C223.664 255.942 224.447 256.724 225.413 256.724H236.462C237.427 256.724 238.21 255.942 238.21 254.976C238.21 254.011 237.427 253.228 236.462 253.228Z" fill="#7768AE"/>
<path d="M225.413 269.218H246.995C247.961 269.218 248.744 268.435 248.744 267.47C248.744 266.504 247.961 265.721 246.995 265.721H225.413C224.447 265.721 223.664 266.504 223.664 267.47C223.664 268.435 224.447 269.218 225.413 269.218Z" fill="white"/>
<path d="M225.413 281.707H239.471C240.437 281.707 241.22 280.924 241.22 279.959C241.22 278.993 240.437 278.21 239.471 278.21H225.413C224.447 278.21 223.664 278.993 223.664 279.959C223.664 280.924 224.447 281.707 225.413 281.707Z" fill="white"/>
<path d="M250.492 281.707H272.075C273.04 281.707 273.823 280.924 273.823 279.959C273.823 278.993 273.04 278.21 272.075 278.21H250.492C249.527 278.21 248.744 278.993 248.744 279.959C248.744 280.924 249.527 281.707 250.492 281.707Z" fill="#EA3D90"/>
<path d="M291.178 299.276H277.134C274.856 299.306 274.851 295.744 277.134 295.779H291.178C293.45 295.745 293.455 299.321 291.178 299.276Z" fill="white"/>
<path d="M266.098 299.276H244.529C244.297 299.28 244.066 299.238 243.85 299.152C243.635 299.066 243.438 298.938 243.272 298.775C243.107 298.613 242.975 298.418 242.885 298.204C242.795 297.99 242.749 297.76 242.749 297.528C242.749 297.295 242.795 297.066 242.885 296.851C242.975 296.637 243.107 296.443 243.272 296.28C243.438 296.117 243.635 295.989 243.85 295.903C244.066 295.817 244.297 295.775 244.529 295.779H266.098C268.366 295.745 268.381 299.321 266.098 299.276Z" fill="#EA3D90"/>
<path d="M236.506 299.276H225.47C225.238 299.28 225.007 299.238 224.792 299.152C224.576 299.066 224.379 298.938 224.214 298.775C224.048 298.613 223.916 298.418 223.826 298.204C223.736 297.99 223.69 297.76 223.69 297.528C223.69 297.295 223.736 297.066 223.826 296.851C223.916 296.637 224.048 296.443 224.214 296.28C224.379 296.117 224.576 295.989 224.792 295.903C225.007 295.817 225.238 295.775 225.47 295.779H236.506C238.778 295.745 238.783 299.321 236.506 299.276Z" fill="#7768AE"/>
<path d="M278.192 62.1483C275.714 63.4323 274.179 65.2804 274.179 67.3387C274.179 71.2246 279.737 74.7373 286.593 74.7373C293.45 74.7373 299.008 71.2406 299.008 67.3387C299.008 64.5712 296.189 62.1786 292.094 61.0294C287.435 60.976 282.782 61.3506 278.192 62.1483ZM296.5 67.3387C296.5 70.4508 292.051 72.9738 286.564 72.9738C281.077 72.9738 276.62 70.4508 276.62 67.3387C276.62 64.2267 281.07 61.7037 286.564 61.7037C292.058 61.7037 296.501 64.2261 296.501 67.3382L296.5 67.3387Z" fill="#FFD683"/>
<path d="M247.049 85.6673C247.049 85.6673 225.776 108.562 232.363 125.312C238.597 141.123 250.135 145.204 250.135 145.204H260.623C260.623 145.204 244.108 128.983 244.657 120.726C245.206 112.469 260.623 96.003 260.623 96.003C260.623 96.003 260.15 82.0803 247.049 85.6673Z" fill="#EDB9BD"/>
<path d="M236.836 99.8992C237.628 103.116 240.265 108.102 248.769 111.064C249.912 109.261 251.192 107.447 252.483 105.739L238.118 97.706C237.682 98.4157 237.258 99.15 236.836 99.8992Z" fill="#E8A3AB"/>
<path d="M275.579 62.6278C275.579 62.6278 254.281 66.3193 235.778 95.3785C242.95 110.007 254.392 106.943 254.392 106.943L264.221 95.2088L275.579 62.6278Z" fill="#EA3D90"/>
<path d="M250.133 145.204C250.133 145.204 254.176 151.418 257.301 151.763C260.426 152.108 263.165 150.764 264.163 150.424C269.906 154.795 270.792 154.92 272.339 154.196C273.886 153.471 265.552 146.133 265.552 146.133C265.552 146.133 269.651 146.133 268.316 143.765C267.263 141.896 255.655 139.899 255.655 139.899L250.133 145.204Z" fill="#EDB9BD"/>
<path d="M315.934 66.0799L333.961 76.3305C333.961 76.3305 330.39 85.2273 329.492 92.6858L312.162 88.0851L315.934 66.0799Z" fill="#EA3D90"/>
<path d="M286.573 72.9738C292.061 72.9738 296.51 70.4509 296.51 67.3388C296.51 64.2267 292.061 61.7038 286.573 61.7038C281.086 61.7038 276.637 64.2267 276.637 67.3388C276.637 70.4509 281.086 72.9738 286.573 72.9738Z" fill="#EDB9BD"/>
<path d="M279.075 65.7502L285.495 56.5385H295.351L292.578 71.1555C292.578 71.1555 281.292 71.1606 279.075 65.7502Z" fill="#EDB9BD"/>
<path d="M284.121 58.5368C286.616 61.7415 289.864 64.2807 293.576 65.929L294.624 60.3889L288.671 56.967L285.33 56.807L284.121 58.5368Z" fill="#E8A3AB"/>
<path d="M280.269 53.7258C280.269 53.7258 285.285 62.0483 298.171 63.0272C311.056 64.0061 310.982 51.4028 311.212 46.8964C311.443 42.39 320.641 30.1262 318.887 28.053C317.133 25.9798 290.607 9.28956 282.667 27.5958C274.727 45.9021 280.269 53.7258 280.269 53.7258Z" fill="#EDB9BD"/>
<path d="M305.399 42.8254C305.464 42.7564 305.546 42.706 305.638 42.6793C305.729 42.6525 305.826 42.6505 305.918 42.6733C306.01 42.6961 306.095 42.743 306.163 42.8092C306.231 42.8754 306.281 42.9585 306.307 43.05C306.668 44.4089 307.089 46.9467 305.389 47.5113C303.212 48.2359 302.83 45.5981 305.399 42.8254Z" fill="#E8A3AB"/>
<path d="M297.704 33.0594C297.704 33.0594 303.397 30.6965 304.676 30.4016C302.714 33.716 296.058 36.5413 294.348 41.082C298.014 37.5499 301.811 36.1864 302.549 35.5869C303.286 34.9875 307.108 30.0616 307.108 30.0616C307.108 30.0616 313.684 35.8012 317.14 34.5229C318.976 32.5228 318.55 32.1 318.55 32.1L307.695 26.9147H306.936L298.764 29.9125L297.704 33.0594Z" fill="#E8A3AB"/>
<path d="M278.674 40.0534C278.674 40.0534 283.83 44.7741 293.42 36.3315C303.011 27.889 313.821 26.8901 318.907 28.0541C323.321 24.5575 318.857 17.4435 310.826 16.3298C302.796 15.216 293.865 10.1096 289.179 16.9989C278.162 17.2184 275.082 31.3908 278.674 40.0534Z" fill="#3A0835"/>
<path d="M305.529 26.5655C305.529 26.5655 313.083 33.7892 317.382 33.5943L314.558 38.9087C314.558 38.9087 323.265 33.1137 319.84 27.0941C316.414 21.0745 305.529 26.5655 305.529 26.5655Z" fill="#3A0835"/>
<path d="M298.586 39.2464C299.468 37.2461 301.006 35.9837 302.02 36.4282C303.035 36.8726 303.139 38.8545 302.26 40.8546C301.381 42.8547 299.838 44.1179 298.825 43.6728C297.812 43.2278 297.704 41.2451 298.586 39.2464Z" fill="white"/>
<path d="M298.117 42.9505C298.999 40.9502 300.537 39.6878 301.551 40.1323C302.566 40.5767 302.67 42.5587 301.791 44.5588C300.912 46.5588 299.369 47.822 298.356 47.377C297.343 46.9319 297.235 44.9492 298.117 42.9505Z" fill="#3A0835"/>
<path d="M308.093 41.3241C308.975 39.3239 310.513 38.0615 311.528 38.5059C312.542 38.9504 312.646 40.9323 311.767 42.9324C310.888 44.9325 309.345 46.1956 308.332 45.7506C307.32 45.3056 307.211 43.3228 308.093 41.3241Z" fill="white"/>
<path d="M307.624 45.0283C308.506 43.028 310.044 41.7656 311.058 42.21C312.073 42.6545 312.177 44.6364 311.298 46.6365C310.419 48.6366 308.876 49.8998 307.863 49.4547C306.85 49.0097 306.742 47.027 307.624 45.0283Z" fill="#3A0835"/>
<path d="M288.229 39.8785C287.572 41.7368 287.727 43.4786 285.605 42.7409C283.484 42.0031 282.325 39.8934 282.982 38.035C283.639 36.1767 285.881 35.2675 287.998 36.007C290.115 36.7464 288.892 38.015 288.229 39.8785Z" fill="#EDB9BD"/>
<path d="M308.143 27.3896C307.72 29.168 307.021 30.869 306.071 32.4303C305.598 33.221 305.042 33.9594 304.414 34.6332C304.1 34.9689 303.765 35.2842 303.411 35.5772C303.225 35.7224 303.045 35.867 302.854 36.007L302.257 36.3767C302.157 36.4338 302.057 36.5018 301.952 36.5567L301.63 36.7064L300.988 36.9961C300.588 37.1607 300.175 37.291 299.785 37.4956C298.991 37.8467 298.224 38.2576 297.493 38.7248C296.749 39.1856 296.046 39.7086 295.391 40.2882C294.723 40.8648 294.113 41.5056 293.57 42.2014C294.453 40.6255 295.661 39.2549 297.113 38.1802C297.837 37.6286 298.609 37.1437 299.421 36.7316C299.817 36.5116 300.243 36.347 300.654 36.1521L301.221 35.8773L301.502 35.7424L301.762 35.571L302.264 35.2281C302.43 35.0984 302.585 34.9584 302.766 34.8281C303.085 34.553 303.389 34.2593 303.674 33.9486C304.229 33.3051 304.732 32.6186 305.178 31.8954C306.064 30.4169 306.763 28.8346 307.26 27.1844L308.143 27.3896Z" fill="#3A0835"/>
<path d="M309.943 36.7744C311.022 37.0039 312.006 37.5541 312.767 38.3527" stroke="#3A0835" stroke-width="1.792" stroke-miterlimit="10" stroke-linecap="round"/>
<path d="M299.359 35.4521C300.339 34.9394 301.451 34.7338 302.549 34.8623" stroke="#3A0835" stroke-width="1.792" stroke-miterlimit="10" stroke-linecap="round"/>
<path d="M298.507 51.4731C298.507 51.4731 302.209 54.3258 305.178 53.736C303.222 56.0092 301.386 56.2835 299.906 55.7361C298.427 55.1886 297.865 52.8269 298.507 51.4731Z" fill="white"/>
<path d="M298.286 52.2069C298.075 53.5555 298.657 55.2893 299.896 55.7436C300.514 55.9638 301.178 56.0262 301.827 55.925C302.475 55.8238 303.088 55.5623 303.61 55.1641C300.122 54.5653 298.873 52.8715 298.286 52.2069Z" fill="#6B2034"/>
<path d="M298.768 45.5448C298.917 45.2587 299.153 45.0862 299.292 45.1583C299.431 45.2304 299.424 45.5227 299.274 45.8088C299.125 46.0948 298.888 46.2678 298.75 46.1952C298.611 46.1226 298.618 45.8313 298.768 45.5448Z" fill="#E5A1A9"/>
<path d="M299.528 47.9928C299.677 47.7068 299.913 47.5343 300.052 47.6064C300.191 47.6785 300.184 47.9708 300.035 48.2569C299.885 48.5429 299.648 48.7159 299.51 48.6433C299.371 48.5707 299.378 48.2794 299.528 47.9928Z" fill="#E5A1A9"/>
<path d="M296.237 47.5071C296.387 47.2211 296.623 47.0486 296.762 47.1207C296.901 47.1928 296.893 47.4851 296.744 47.7711C296.594 48.0572 296.358 48.2302 296.219 48.1576C296.08 48.0849 296.087 47.7937 296.237 47.5071Z" fill="#E5A1A9"/>
<path d="M308.888 48.0911C308.973 47.8113 309.144 47.6156 309.268 47.6536C309.393 47.6916 309.424 47.9487 309.339 48.2285C309.253 48.5083 309.082 48.7039 308.957 48.6658C308.833 48.6277 308.802 48.3703 308.888 48.0911Z" fill="#E5A1A9"/>
<path d="M309.367 51.1454C309.453 50.8657 309.624 50.67 309.748 50.708C309.872 50.746 309.904 51.0031 309.818 51.2829C309.733 51.5627 309.562 51.7583 309.437 51.7202C309.312 51.682 309.282 51.4247 309.367 51.1454Z" fill="#E5A1A9"/>
<path d="M307.227 49.1951C307.312 48.9153 307.483 48.7197 307.607 48.7576C307.731 48.7956 307.763 49.0528 307.678 49.3325C307.592 49.6123 307.421 49.808 307.296 49.7698C307.172 49.7317 307.141 49.4743 307.227 49.1951Z" fill="#E5A1A9"/>
<path d="M300.011 54.8801C299.646 54.7315 299.238 54.7315 298.873 54.8801C299.119 55.2755 299.486 55.5805 299.921 55.7493C300.494 55.9628 301.111 56.0315 301.717 55.9493C301.657 55.2047 301.012 55.2796 300.011 54.8801Z" fill="#B75167"/>
<path d="M286.849 38.4099C286.252 38.2647 285.5 38.2499 285.104 38.6899C284.913 38.9352 284.809 39.2365 284.808 39.5471C284.803 39.7141 284.813 39.8812 284.838 40.0465L284.933 40.5459C284.938 40.5721 284.933 40.5992 284.918 40.6215C284.904 40.6438 284.881 40.6595 284.855 40.6654C284.829 40.6712 284.802 40.6667 284.779 40.6529C284.756 40.639 284.739 40.6169 284.733 40.5911L284.597 40.0916C284.564 39.915 284.54 39.7366 284.527 39.5573C284.501 39.1725 284.606 38.7902 284.823 38.4716C285.078 38.1702 285.435 37.9729 285.826 37.9173C286.198 37.8524 286.578 37.8524 286.949 37.9173C286.982 37.9229 287.014 37.9349 287.042 37.9526C287.07 37.9703 287.094 37.9934 287.113 38.0205C287.133 38.0477 287.146 38.0783 287.154 38.1108C287.161 38.1432 287.162 38.1768 287.157 38.2096C287.151 38.2424 287.139 38.2738 287.121 38.3019C287.104 38.3301 287.08 38.3545 287.053 38.3737C287.026 38.3929 286.995 38.4066 286.963 38.414C286.931 38.4214 286.897 38.4223 286.864 38.4167H286.834L286.849 38.4099Z" fill="#E8A3AB"/>
<path d="M293.421 36.3292L286.343 44.3643C286.343 44.3643 287.617 41.5471 288.229 39.8682C288.841 38.1893 290.351 36.0121 293.421 36.3292Z" fill="#3A0835"/>
<path d="M347.838 95.0036C347.838 95.0036 362.851 89.4783 367.089 96.0025C358.562 95.9625 347.075 95.9625 347.075 95.9625C347.075 95.9625 346.905 95.2688 347.838 95.0036Z" fill="#EDB9BD"/>
<path d="M328.241 92.3566L327.237 92.0921C327.669 86.3204 331.752 75.6916 331.942 75.1921L332.82 75.6916C332.79 75.8161 328.241 86.9765 328.241 92.3566Z" fill="#FFD683"/>
<path d="M255.204 105.994C239.419 103.876 237.323 93.2458 237.272 93.111L237.719 92.4567C237.769 92.5915 240.433 103.282 255.776 105.335L255.204 105.994Z" fill="#FFD683"/>
<path d="M320.643 101.968H270.176C269.307 101.968 268.602 102.672 268.602 103.541C268.602 104.41 269.307 105.115 270.176 105.115H320.643C321.512 105.115 322.217 104.41 322.217 103.541C322.217 102.672 321.512 101.968 320.643 101.968Z" fill="#124884"/>
<path d="M330.058 101.968H329.935C329.066 101.968 328.361 102.672 328.361 103.541C328.361 104.41 329.066 105.115 329.935 105.115H330.058C330.927 105.115 331.632 104.41 331.632 103.541C331.632 102.672 330.927 101.968 330.058 101.968Z" fill="#124884"/>
<g opacity="0.5">
<path opacity="0.5" d="M495.067 174.408H342.68C334.897 174.408 328.587 180.718 328.587 188.501V222.759C328.587 230.543 334.897 236.852 342.68 236.852H495.067C502.85 236.852 509.16 230.543 509.16 222.759V188.501C509.16 180.718 502.85 174.408 495.067 174.408Z" fill="#867994"/>
</g>
<path d="M394.553 185.149H348.393C347.427 185.149 346.644 185.931 346.644 186.897C346.644 187.863 347.427 188.645 348.393 188.645H394.553C395.519 188.645 396.302 187.863 396.302 186.897C396.302 185.931 395.519 185.149 394.553 185.149Z" fill="white"/>
<path d="M489.354 185.149H443.194C442.228 185.149 441.445 185.931 441.445 186.897C441.445 187.863 442.228 188.645 443.194 188.645H489.354C490.32 188.645 491.102 187.863 491.102 186.897C491.102 185.931 490.32 185.149 489.354 185.149Z" fill="#7768AE"/>
<path d="M429.665 185.149H408.082C407.116 185.149 406.334 185.931 406.334 186.897C406.334 187.863 407.116 188.645 408.082 188.645H429.665C430.63 188.645 431.413 187.863 431.413 186.897C431.413 185.931 430.63 185.149 429.665 185.149Z" fill="white"/>
<path d="M448.223 197.637H442.692C441.726 197.637 440.943 198.42 440.943 199.385C440.943 200.351 441.726 201.134 442.692 201.134H448.223C449.189 201.134 449.972 200.351 449.972 199.385C449.972 198.42 449.189 197.637 448.223 197.637Z" fill="white"/>
<path d="M359.442 197.637H348.393C347.427 197.637 346.644 198.42 346.644 199.385C346.644 200.351 347.427 201.134 348.393 201.134H359.442C360.408 201.134 361.191 200.351 361.191 199.385C361.191 198.42 360.408 197.637 359.442 197.637Z" fill="white"/>
<path d="M432.172 197.637H371.967C371.002 197.637 370.219 198.42 370.219 199.385C370.219 200.351 371.002 201.134 371.967 201.134H432.172C433.138 201.134 433.921 200.351 433.921 199.385C433.921 198.42 433.138 197.637 432.172 197.637Z" fill="white"/>
<path d="M348.393 213.628H394.553C395.519 213.628 396.302 212.845 396.302 211.879C396.302 210.914 395.519 210.131 394.553 210.131H348.393C347.427 210.131 346.644 210.914 346.644 211.879C346.644 212.845 347.427 213.628 348.393 213.628Z" fill="#7768AE"/>
<path d="M408.082 213.628H429.665C430.63 213.628 431.413 212.845 431.413 211.879C431.413 210.914 430.63 210.131 429.665 210.131H408.082C407.116 210.131 406.334 210.914 406.334 211.879C406.334 212.845 407.116 213.628 408.082 213.628Z" fill="white"/>
<path d="M348.392 226.117H362.451C363.417 226.117 364.2 225.334 364.2 224.368C364.2 223.403 363.417 222.62 362.451 222.62H348.392C347.427 222.62 346.644 223.403 346.644 224.368C346.644 225.334 347.427 226.117 348.392 226.117Z" fill="white"/>
<path d="M373.473 226.117H395.055C396.021 226.117 396.804 225.334 396.804 224.368C396.804 223.403 396.021 222.62 395.055 222.62H373.473C372.507 222.62 371.724 223.403 371.724 224.368C371.724 225.334 372.507 226.117 373.473 226.117Z" fill="#EA3D90"/>
<path d="M478.305 226.117H489.354C490.32 226.117 491.102 225.334 491.102 224.368C491.102 223.403 490.32 222.62 489.354 222.62H478.305C477.339 222.62 476.556 223.403 476.556 224.368C476.556 225.334 477.339 226.117 478.305 226.117Z" fill="#7768AE"/>
<path d="M405.574 226.117H465.779C466.745 226.117 467.527 225.334 467.527 224.368C467.527 223.403 466.745 222.62 465.779 222.62H405.574C404.608 222.62 403.825 223.403 403.825 224.368C403.825 225.334 404.608 226.117 405.574 226.117Z" fill="white"/>
<path d="M441.716 277.97C441.716 277.97 429.373 255.61 426.323 239.42C425.821 236.852 436.49 238.655 436.49 238.655C436.49 238.655 449.777 259.637 452.89 261.605C451.457 274.274 442.77 277.016 441.716 277.97Z" fill="#E8A3AB"/>
<path d="M463.49 306.485C463.49 306.485 440.999 298.256 435.902 269.855C437.537 264.18 450.499 258.046 450.499 258.046C450.499 258.046 460.666 270.225 470.658 268.361C472.323 289.16 463.49 306.485 463.49 306.485Z" fill="#7ABFF5"/>
<path d="M443.467 226.386C443.467 226.386 438.452 231.881 442.464 234.379C444.47 233.38 443.467 226.386 443.467 226.386Z" fill="#E8A3AB"/>
<path d="M427.691 288.481C427.691 288.481 409.95 268.224 405.842 242.332C405.436 239.749 416.335 241.423 416.335 241.423C416.335 241.423 434.989 269.857 438.179 271.676C437.272 284.396 428.699 287.492 427.691 288.481Z" fill="#EDB9BD"/>
<path d="M567.44 399.032C567.44 399.032 577.331 402.195 584.108 404.108C587.237 404.992 588.948 408.737 587.072 411.381C585.567 413.539 583.742 415.648 583.06 417.796C581.525 422.653 574.532 435.968 569.547 435.435C564.561 434.902 567.304 428.162 570.339 423.446C573.374 418.729 562.208 410.013 558.216 409.583C561.415 403.408 567.44 399.032 567.44 399.032Z" fill="#EDB9BD"/>
<path d="M485.098 433.202C485.098 433.202 486.638 444.027 488.173 450.891C488.85 453.888 487.671 457.02 484.596 457.18C482.482 457.29 476.34 456.556 474.063 457.18C469.133 458.534 454.25 459.648 451.993 455.18C449.737 450.713 458.745 448.062 464.347 448.361C470.662 448.701 470.928 435.428 469.122 431.876C476.07 431.144 485.098 433.202 485.098 433.202Z" fill="#EDB9BD"/>
<path d="M486.235 440.61L469.762 441.569C469.762 441.569 475.245 444.796 487.183 446.065C486.844 444.216 486.521 442.343 486.235 440.61Z" fill="#E8A3AB"/>
<path d="M466.038 358.269V441.195L489.613 443.692L501.651 384.675C501.651 384.675 525.728 409.723 557.83 414.219C572.376 397.234 574.884 397.734 574.884 397.734C574.884 397.734 545.29 384.745 532.75 357.77C500.648 342.283 466.038 358.269 466.038 358.269Z" fill="#CED1E0"/>
<path d="M458.253 310.312C458.253 310.312 434.533 307.589 421.762 281.693C421.762 275.788 434.076 265.797 434.076 265.797C434.076 265.797 449.124 274.597 458.233 270.058C465.596 289.565 458.253 310.312 458.253 310.312Z" fill="#7ABFF5"/>
<path d="M453.738 279.839C454.636 302.219 456.618 374.669 464.593 383.871C468.525 380.493 472.824 377.567 477.409 375.149C478.256 374.699 478.367 367.86 478.367 367.86C478.367 367.86 485.567 371.232 486.628 370.758C511.081 359.877 533.597 362.191 536.747 358.269C514.175 334.29 507.339 307.035 493.61 280.338C483.077 259.857 470.628 259.942 463.014 263.853C458.353 266.226 453.528 274.599 453.738 279.839Z" fill="#7ABFF5"/>
<path d="M476.07 265.353C479.872 262.705 473.015 262.066 469.469 261.906C467.528 262.114 465.634 262.637 463.861 263.454C463.45 263.654 463.018 263.874 462.577 264.109C460.335 265.442 458.093 268.105 456.428 271.032C460.922 270.232 472.088 268.096 476.07 265.353Z" fill="#EDB9BD"/>
<path d="M473.045 245.345L476.055 265.327L460.004 266.326L461.007 245.844L473.045 245.345Z" fill="#EDB9BD"/>
<path d="M460.24 261.495C465.06 262.565 470.633 262.994 475.573 262.145L474.736 256.584L460.37 258.858L460.24 261.495Z" fill="#E8A3AB"/>
<path d="M475.192 244.325C471.906 249.625 464.116 255.354 451.461 252.203C438.806 249.052 441.429 234.349 442.493 230.145C443.556 225.942 443.025 203.884 458.318 203.884C473.611 203.884 478.883 212.292 479.936 219.645C480.989 226.998 478.507 238.981 475.192 244.325Z" fill="#EDB9BD"/>
<path d="M449.486 204.906C445.363 206.669 443.913 209.222 443.968 217.395C444.024 225.568 453.498 224.888 456.508 239.375C459.518 253.862 455.004 259.857 455.004 259.857C455.004 259.857 472.058 263.853 482.09 256.859C492.122 249.865 484.597 189.92 449.486 204.906Z" fill="#3A0835"/>
<path d="M426.412 239.375C426.412 239.375 414.876 238.875 415.633 236.877H437.448C437.448 236.877 436.946 240.874 432.933 240.874C427.802 240.873 426.412 239.375 426.412 239.375Z" fill="#E8A3AB"/>
<path d="M405.275 242.152C405.275 242.152 391.961 240.495 390.855 237.731C389.749 234.967 401.945 237.731 405.275 238.285C404.719 236.077 404.167 234.971 410.291 236.628C416.416 238.285 416.39 241.623 416.39 241.623L405.275 242.152Z" fill="#EDB9BD"/>
<path d="M449.987 229.883C449.987 229.883 455.504 227.883 457.009 231.883C458.515 235.883 454 237.878 454 237.878C454 237.878 448.482 232.381 449.987 229.883Z" fill="#EDB9BD"/>
<path d="M447.579 221.086C447.598 221.863 447.675 222.638 447.808 223.404C447.944 224.186 448.129 224.959 448.365 225.717C448.825 227.245 449.539 228.684 450.479 229.973C451.439 231.27 452.665 232.347 454.075 233.131C455.527 233.912 457.11 234.42 458.745 234.63C457.072 234.569 455.424 234.2 453.885 233.54C452.325 232.847 450.934 231.825 449.806 230.543C448.678 229.25 447.776 227.775 447.138 226.182C446.813 225.39 446.539 224.577 446.32 223.749C446.088 222.906 445.92 222.046 445.819 221.178L447.579 221.086Z" fill="#3A0835"/>
<path d="M457.897 236.722C457.817 238.331 457.697 239.914 457.551 241.503C457.405 243.092 457.225 244.68 456.995 246.258C456.775 247.841 456.476 249.412 456.097 250.964C455.905 251.742 455.66 252.506 455.364 253.25C455.109 254.015 454.643 254.692 454.02 255.203C454.586 254.651 454.981 253.947 455.158 253.175C455.379 252.42 455.546 251.651 455.66 250.872C455.895 249.314 456.049 247.745 456.122 246.172C456.202 244.598 456.236 243.02 456.242 241.441C456.248 239.862 456.242 238.278 456.152 236.72L457.897 236.722Z" fill="#3A0835"/>
<path d="M89.3885 300.12C94.8708 300.12 99.3151 295.694 99.3151 290.234C99.3151 284.774 94.8708 280.348 89.3885 280.348C83.9062 280.348 79.4619 284.774 79.4619 290.234C79.4619 295.694 83.9062 300.12 89.3885 300.12Z" fill="#2B0529"/>
<path d="M23.5745 367.011C23.5745 367.011 1.7504 390.79 0.385789 399.622C-0.978824 408.454 11.9776 407.77 11.9776 407.77L40.0116 381.678L23.5745 367.011Z" fill="#EDB9BD"/>
<path d="M21.9248 368.844C21.2173 369.638 20.3144 370.662 19.2812 371.841C21.8945 374.224 30.8427 382.867 31.3193 389.76L37.5481 383.96C35.3069 380.983 26.0655 368.989 21.9248 368.844Z" fill="#E8A3AB"/>
<path d="M111.157 342.169L188.282 338.662L189.666 350.127L102.109 363.827L111.157 342.169Z" fill="#EDB9BD"/>
<path d="M55.7378 340.784C55.7378 340.784 44.0231 346.389 18.5801 369.384C32.4239 377.422 34.5057 390.106 34.5057 390.106L51.5599 372.441L55.7378 340.784Z" fill="#FFB800"/>
<path d="M126.461 360.017C126.02 353.798 126.436 341.474 126.436 341.474C122.528 343.921 120.186 357.52 119.636 361.086L126.461 360.017Z" fill="#E8A3AB"/>
<path d="M84.7518 337.377L126.961 339.61C126.961 339.61 121.554 358.398 122.675 362.78C118.888 363.479 98.9843 365.18 98.9843 365.18L84.7518 337.377Z" fill="#FFB800"/>
<path d="M41.9928 413.205H112.928V436.977H41.9928V413.205Z" fill="#FFB800"/>
<path d="M41.9928 419.319L105.423 423.395L95.191 434.945L41.9928 419.319Z" fill="#1E78DE"/>
<path d="M134.07 454.642C134.07 454.642 150.041 457.749 154.309 458.357C159.084 459.036 164.682 453.332 155.975 449.165C145.522 444.19 140.892 443.091 140.892 443.091L134.07 454.642Z" fill="#5C4477"/>
<path d="M28.6506 454.643C28.6506 454.643 10.413 458.109 6.14426 458.719C1.36925 459.398 -3.16518 453.264 3.85218 449.537C14.0845 444.102 21.8293 443.092 21.8293 443.092L28.6506 454.643Z" fill="#5C4477"/>
<path d="M26.0575 455.322C26.0575 455.322 139.969 451.923 142.698 434.945C145.426 417.968 124.955 415.922 95.6333 422.711C66.3119 429.501 17.887 442.414 17.887 442.414L26.0575 455.322Z" fill="#1E78DE"/>
<path d="M24.3317 440.695C30.2553 444.307 41.2853 449.922 57.3412 453.684C70.0667 452.809 85.0038 451.521 98.7979 449.687C98.5625 449.557 98.4168 449.487 98.4168 449.487L51.177 433.701C40.1881 436.539 30.401 439.107 24.3317 440.695Z" fill="#1E78DE"/>
<path d="M134.752 455.323C134.752 455.323 20.8459 451.925 18.1201 434.945C15.3943 417.965 35.856 415.922 65.1844 422.716C94.5127 429.51 142.931 442.419 142.931 442.419L134.752 455.323Z" fill="#1E78DE"/>
<path d="M39.9465 415.922C39.9465 415.922 87.0107 413.884 99.9671 415.922C112.924 417.961 115.657 417.923 115.657 417.923C115.657 417.923 112.863 391.946 112.863 374.217C112.863 349.084 91.796 335.102 73.3675 335.102C54.9389 335.102 43.3574 350.728 43.3574 364.311C43.3574 371.087 48.133 394.866 39.9465 415.922Z" fill="#FFB800"/>
<path d="M82.8558 336.224C78.7328 335.384 77.8396 335.085 73.3658 335.085C66.429 335.085 68.3942 333.875 60.7008 337.837C60.7008 339.416 62.8323 343.472 72.192 342.623C81.9146 341.743 82.0854 337.662 82.8558 336.224Z" fill="#EDB9BD"/>
<g opacity="0.5">
<path opacity="0.5" d="M17.8139 350.208L168.643 324.918C173.034 324.175 177.541 325.204 181.174 327.779C184.808 330.355 187.271 334.267 188.023 338.657L193.194 369.246C193.557 371.419 193.488 373.643 192.991 375.789C192.494 377.936 191.579 379.964 190.298 381.756C189.016 383.549 187.394 385.071 185.524 386.236C183.654 387.401 181.572 388.186 179.398 388.545L28.5694 413.835C24.1786 414.579 19.6722 413.55 16.0389 410.975C12.4056 408.4 9.94237 404.489 9.18961 400.099L4.01842 369.508C3.65504 367.335 3.72377 365.111 4.22065 362.964C4.71754 360.818 5.63285 358.79 6.91419 356.997C8.19553 355.205 9.81777 353.683 11.6881 352.518C13.5584 351.353 15.64 350.568 17.8139 350.208Z" fill="#867994"/>
</g>
<path d="M23.2663 360.545L70.2894 352.661C70.5252 352.617 70.7675 352.62 71.002 352.671C71.2364 352.722 71.4585 352.818 71.6552 352.956C71.8518 353.093 72.0191 353.268 72.1474 353.471C72.2756 353.674 72.3621 353.9 72.402 354.137C72.4418 354.373 72.4341 354.615 72.3793 354.849C72.3246 355.082 72.2238 355.303 72.083 355.497C71.9421 355.691 71.764 355.855 71.559 355.98C71.354 356.104 71.1263 356.187 70.889 356.222L23.8681 364.106C23.6324 364.15 23.3901 364.147 23.1556 364.097C22.9211 364.046 22.699 363.95 22.5022 363.812C22.3055 363.675 22.1381 363.5 22.0097 363.297C21.8814 363.095 21.7947 362.869 21.7547 362.632C21.7147 362.396 21.7223 362.153 21.7769 361.92C21.8315 361.686 21.9321 361.466 22.0728 361.272C22.2135 361.077 22.3916 360.913 22.5965 360.788C22.8014 360.664 23.0291 360.581 23.2663 360.545Z" fill="white"/>
<path d="M122.565 344.632L169.779 336.558C170.253 336.476 170.741 336.586 171.134 336.864C171.527 337.142 171.793 337.564 171.874 338.039C171.956 338.513 171.846 339 171.568 339.393C171.29 339.786 170.868 340.052 170.393 340.134L123.181 348.208C122.947 348.249 122.706 348.242 122.474 348.19C122.241 348.137 122.022 348.039 121.827 347.902C121.632 347.764 121.467 347.59 121.34 347.388C121.213 347.187 121.126 346.962 121.086 346.727C121.046 346.492 121.052 346.252 121.105 346.019C121.157 345.787 121.255 345.567 121.393 345.373C121.53 345.178 121.705 345.013 121.906 344.886C122.108 344.758 122.332 344.672 122.567 344.632L122.565 344.632Z" fill="#7768AE"/>
<path d="M84.099 350.347L106.076 346.662C106.312 346.618 106.554 346.621 106.788 346.672C107.023 346.722 107.245 346.819 107.442 346.956C107.638 347.094 107.806 347.269 107.934 347.472C108.062 347.674 108.149 347.901 108.188 348.137C108.228 348.374 108.22 348.616 108.166 348.849C108.111 349.083 108.01 349.303 107.869 349.498C107.729 349.692 107.55 349.856 107.345 349.98C107.14 350.105 106.913 350.188 106.675 350.223L84.6986 353.908C84.4628 353.952 84.2206 353.949 83.9861 353.898C83.7516 353.848 83.5295 353.751 83.3329 353.613C83.1362 353.476 82.9689 353.301 82.8406 353.098C82.7124 352.895 82.6259 352.669 82.586 352.433C82.5462 352.196 82.5539 351.954 82.6087 351.72C82.6635 351.487 82.7642 351.266 82.905 351.072C83.0459 350.878 83.224 350.714 83.429 350.589C83.634 350.465 83.8617 350.382 84.099 350.347Z" fill="white"/>
<path d="M121.523 357.152L127.146 356.209C127.382 356.165 127.624 356.169 127.859 356.219C128.093 356.27 128.315 356.367 128.512 356.504C128.709 356.641 128.876 356.817 129.004 357.019C129.132 357.222 129.219 357.448 129.259 357.685C129.299 357.921 129.291 358.164 129.236 358.397C129.181 358.631 129.081 358.851 128.94 359.045C128.799 359.239 128.621 359.403 128.416 359.528C128.211 359.653 127.983 359.735 127.746 359.771L122.125 360.713C121.889 360.757 121.647 360.754 121.412 360.704C121.178 360.653 120.956 360.556 120.759 360.419C120.562 360.282 120.395 360.107 120.266 359.904C120.138 359.702 120.051 359.475 120.011 359.239C119.971 359.002 119.979 358.76 120.034 358.527C120.088 358.293 120.189 358.073 120.33 357.878C120.47 357.684 120.648 357.52 120.853 357.395C121.058 357.27 121.286 357.188 121.523 357.152Z" fill="white"/>
<path d="M25.4252 373.276L36.6717 371.39C36.9075 371.346 37.1497 371.35 37.3842 371.4C37.6187 371.451 37.8408 371.548 38.0374 371.685C38.2341 371.823 38.4014 371.998 38.5296 372.2C38.6579 372.403 38.7444 372.629 38.7842 372.866C38.8241 373.103 38.8164 373.345 38.7616 373.578C38.7068 373.812 38.6061 374.032 38.4652 374.226C38.3244 374.42 38.1463 374.585 37.9413 374.709C37.7363 374.834 37.5085 374.916 37.2713 374.952L26.0271 376.838C25.7913 376.882 25.5491 376.878 25.3146 376.828C25.08 376.778 24.8579 376.681 24.6612 376.544C24.4644 376.406 24.297 376.231 24.1686 376.029C24.0403 375.826 23.9536 375.6 23.9136 375.363C23.8737 375.127 23.8812 374.885 23.9358 374.651C23.9904 374.417 24.091 374.197 24.2318 374.003C24.3725 373.809 24.5505 373.644 24.7554 373.52C24.9603 373.395 25.188 373.312 25.4252 373.276Z" fill="white"/>
<path d="M49.4459 369.245L110.782 358.961C111.018 358.917 111.26 358.92 111.495 358.971C111.729 359.021 111.951 359.118 112.148 359.256C112.344 359.393 112.512 359.568 112.64 359.771C112.768 359.974 112.855 360.2 112.895 360.436C112.934 360.673 112.927 360.915 112.872 361.149C112.817 361.382 112.716 361.602 112.576 361.797C112.435 361.991 112.257 362.155 112.052 362.28C111.847 362.404 111.619 362.487 111.382 362.522L50.0478 372.807C49.812 372.851 49.5698 372.848 49.3352 372.797C49.1007 372.747 48.8786 372.65 48.6819 372.513C48.4851 372.375 48.3177 372.2 48.1893 371.998C48.061 371.795 47.9743 371.569 47.9343 371.332C47.8943 371.096 47.9019 370.854 47.9565 370.62C48.0111 370.387 48.1117 370.166 48.2525 369.972C48.3932 369.778 48.5712 369.613 48.7761 369.489C48.981 369.364 49.2087 369.281 49.4459 369.245Z" fill="white"/>
<path d="M75.1729 381.706L28.1497 389.59C27.9139 389.634 27.6717 389.631 27.4372 389.58C27.2027 389.53 26.9807 389.433 26.784 389.296C26.5873 389.158 26.42 388.983 26.2918 388.78C26.1636 388.578 26.077 388.351 26.0372 388.115C25.9974 387.878 26.005 387.636 26.0598 387.403C26.1146 387.169 26.2153 386.949 26.3562 386.755C26.497 386.56 26.6751 386.396 26.8801 386.272C27.0851 386.147 27.3129 386.065 27.5501 386.029L74.571 378.145C74.8068 378.101 75.049 378.104 75.2835 378.155C75.518 378.205 75.7402 378.302 75.9369 378.439C76.1336 378.576 76.3011 378.751 76.4294 378.954C76.5578 379.157 76.6445 379.383 76.6845 379.619C76.7244 379.856 76.7169 380.098 76.6623 380.332C76.6076 380.565 76.507 380.785 76.3663 380.98C76.2256 381.174 76.0476 381.338 75.8427 381.463C75.6378 381.588 75.4101 381.67 75.1729 381.706Z" fill="#7768AE"/>
<path d="M110.957 375.709L88.9806 379.394C88.7448 379.438 88.5025 379.434 88.2681 379.384C88.0336 379.333 87.8115 379.236 87.6149 379.099C87.4182 378.962 87.2509 378.786 87.1226 378.584C86.9944 378.381 86.9079 378.155 86.868 377.918C86.8282 377.682 86.8359 377.439 86.8907 377.206C86.9455 376.972 87.0462 376.752 87.1871 376.558C87.3279 376.364 87.506 376.2 87.711 376.075C87.916 375.95 88.1437 375.868 88.381 375.832L110.358 372.147C110.594 372.103 110.836 372.107 111.07 372.157C111.305 372.208 111.527 372.305 111.724 372.442C111.92 372.579 112.088 372.755 112.216 372.957C112.344 373.16 112.431 373.386 112.47 373.623C112.51 373.859 112.502 374.102 112.448 374.335C112.393 374.569 112.292 374.789 112.151 374.983C112.011 375.177 111.832 375.342 111.627 375.466C111.422 375.591 111.195 375.673 110.957 375.709Z" fill="white"/>
<path d="M44.6074 399.919L30.2943 402.319C30.0584 402.363 29.8162 402.36 29.5817 402.309C29.3473 402.259 29.1252 402.162 28.9285 402.024C28.7319 401.887 28.5645 401.712 28.4363 401.509C28.3081 401.306 28.2215 401.08 28.1817 400.844C28.1419 400.607 28.1496 400.365 28.2044 400.131C28.2591 399.898 28.3599 399.678 28.5007 399.483C28.6416 399.289 28.8197 399.125 29.0247 399C29.2297 398.876 29.4574 398.793 29.6946 398.758L44.0078 396.358C44.2436 396.314 44.4858 396.317 44.7203 396.368C44.9548 396.418 45.1768 396.515 45.3735 396.653C45.5702 396.79 45.7375 396.965 45.8657 397.168C45.9939 397.371 46.0805 397.597 46.1203 397.833C46.1601 398.07 46.1524 398.312 46.0977 398.546C46.0429 398.779 45.9422 398.999 45.8013 399.194C45.6605 399.388 45.4824 399.552 45.2774 399.677C45.0724 399.801 44.8446 399.884 44.6074 399.919Z" fill="white"/>
<path d="M77.8358 394.353L55.859 398.038C55.6232 398.082 55.381 398.078 55.1465 398.028C54.912 397.977 54.6899 397.88 54.4933 397.743C54.2966 397.606 54.1293 397.431 54.0011 397.228C53.8728 397.025 53.7863 396.799 53.7465 396.562C53.7066 396.326 53.7143 396.084 53.7691 395.85C53.8239 395.616 53.9246 395.396 54.0655 395.202C54.2063 395.008 54.3844 394.844 54.5894 394.719C54.7944 394.594 55.0222 394.512 55.2594 394.476L77.2362 390.791C77.472 390.747 77.7143 390.751 77.9488 390.801C78.1832 390.852 78.4053 390.949 78.602 391.086C78.7986 391.223 78.9659 391.399 79.0942 391.601C79.2224 391.804 79.3089 392.03 79.3488 392.267C79.3886 392.504 79.3809 392.746 79.3261 392.979C79.2714 393.213 79.1706 393.433 79.0298 393.627C78.8889 393.821 78.7108 393.986 78.5058 394.11C78.3008 394.235 78.0731 394.317 77.8358 394.353Z" fill="#EA3D90"/>
<path d="M173.939 378.241L162.692 380.127C162.456 380.171 162.214 380.168 161.98 380.117C161.745 380.066 161.523 379.969 161.327 379.832C161.13 379.695 160.963 379.52 160.834 379.317C160.706 379.114 160.62 378.888 160.58 378.651C160.54 378.415 160.548 378.173 160.602 377.939C160.657 377.706 160.758 377.485 160.899 377.291C161.04 377.097 161.218 376.933 161.423 376.808C161.628 376.683 161.855 376.601 162.093 376.565L173.337 374.68C173.573 374.636 173.815 374.639 174.049 374.689C174.284 374.74 174.506 374.836 174.703 374.974C174.9 375.111 175.067 375.286 175.195 375.489C175.324 375.691 175.41 375.918 175.45 376.154C175.49 376.391 175.483 376.633 175.428 376.866C175.374 377.1 175.273 377.32 175.132 377.515C174.991 377.709 174.813 377.873 174.609 377.998C174.404 378.123 174.176 378.205 173.939 378.241Z" fill="white"/>
<path d="M149.913 382.262L88.5772 392.547C88.3414 392.591 88.0992 392.588 87.8647 392.537C87.6302 392.486 87.4082 392.39 87.2115 392.252C87.0149 392.115 86.8475 391.94 86.7193 391.737C86.5911 391.534 86.5045 391.308 86.4647 391.071C86.4249 390.835 86.4326 390.593 86.4873 390.359C86.5421 390.126 86.6429 389.905 86.7837 389.711C86.9245 389.517 87.1027 389.353 87.3076 389.228C87.5126 389.103 87.7404 389.021 87.9776 388.985L149.312 378.701C149.547 378.657 149.79 378.66 150.024 378.711C150.259 378.761 150.481 378.858 150.677 378.995C150.874 379.132 151.042 379.307 151.17 379.51C151.298 379.713 151.385 379.939 151.425 380.175C151.465 380.412 151.457 380.654 151.403 380.888C151.348 381.121 151.248 381.342 151.107 381.536C150.966 381.73 150.788 381.894 150.583 382.019C150.378 382.144 150.151 382.226 149.913 382.262Z" fill="white"/>
<path d="M186.591 332.572C186.591 332.572 189.32 329.486 190.684 334.115C197.506 336.433 195.459 348.787 192.731 351.099C190.002 353.412 190.002 352.642 190.002 352.642L186.591 332.572Z" fill="#EDB9BD"/>
<path d="M1.17329 397.009L46.7678 394.187L46.0855 405.052C46.0855 405.052 21.399 414.964 12.6594 415.243C7.2529 415.418 -3.57143 411.381 1.17329 397.009Z" fill="#EDB9BD"/>
<path d="M41.446 394.958C41.9174 394.058 43.9541 392.13 43.9541 392.13C43.9541 392.13 44.1546 386.865 46.3113 385.052C48.4679 383.239 49.6217 388.009 48.5285 389.913C48.0268 392.21 48.0919 391.786 48.0919 391.786L58.1236 385.167C59.9945 383.937 63.1695 386.195 59.8951 388.349C56.6207 390.503 54.2321 392.47 54.2321 392.47C54.2321 392.47 63.5615 388.304 64.4998 387.69C65.4381 387.075 68.6628 388.903 66.3284 390.442C63.9941 391.981 56.603 396.044 56.3173 396.624C56.0316 397.205 64.5084 394.795 65.677 394.026C66.8456 393.257 70.1514 396.214 66.3342 397.523C62.5169 398.832 57.7419 400.815 57.7419 400.815C57.7419 400.815 62.3466 400.161 64.2975 400.061C66.2484 399.961 66.7204 403.208 63.9364 403.058C61.1523 402.908 53.2126 404.452 50.96 405.276C48.2782 406.266 35.8435 405.758 41.446 394.958Z" fill="#EDB9BD"/>
<path d="M64.454 337.342L66.1947 315.387L76.0155 318.105L78.9351 337.305L64.454 337.342Z" fill="#EDB9BD"/>
<path d="M78.6145 335.185L77.3053 326.597L65.1467 328.136L64.9661 330.814C67.2433 332.791 71.3212 335.194 78.6145 335.185Z" fill="#E8A3AB"/>
<path d="M54.6481 302.588C54.6481 302.588 52.3623 326.002 62.814 329.789C77.6059 335.144 92.7578 331.098 94.5544 324.544C96.042 319.185 95.678 313.48 93.5212 308.354C93.5212 308.354 94.3487 291.059 86.905 284.467C82.5369 280.597 57.9579 272.935 54.6481 302.588Z" fill="#EDB9BD"/>
<path d="M90.9383 303.128C90.9749 302.96 91.0598 302.805 91.1826 302.684C91.3054 302.563 91.4608 302.48 91.6299 302.446C91.7989 302.411 91.9744 302.427 92.1348 302.49C92.2952 302.554 92.4336 302.663 92.5332 302.804C93.8875 304.727 96.5459 308.763 95.919 310.004C95.0916 311.652 90.9532 312.502 90.9532 310.004C90.9537 308.173 90.5023 304.992 90.9383 303.128Z" fill="#E8A3AB"/>
<path d="M93.1001 299.616C92.5983 295.825 91.6554 291.483 89.7194 288.051L87.4022 288.955L80.2442 297.447C80.2442 297.447 86.7016 294.73 89.0874 293.401C90.612 292.572 92.172 296.599 93.1001 299.616Z" fill="#E8A3AB"/>
<path d="M65.5826 298.242L66.9873 308.603C67.0368 308.973 67.2194 309.313 67.5009 309.558C67.7824 309.804 68.1436 309.938 68.517 309.937C68.8445 309.938 69.164 309.835 69.4291 309.643C69.6943 309.451 69.8914 309.179 69.9919 308.868L73.0263 299.376L65.5826 298.242Z" fill="#3A0835"/>
<path d="M53.9103 315.572C48.0119 316.042 36.515 299.086 41.8323 289.228C43.0852 287.028 44.9252 285.219 47.1467 284.003C47.4896 279.038 50.4925 275.176 54.2292 274.417C56.0486 274.106 57.9197 274.413 59.5437 275.291C62.4432 273.128 65.9593 269.027 71.1154 269.296C75.1281 269.496 75.8013 271.14 79.9683 271.909C89.1074 273.603 93.9779 268.709 99.39 270.945C104.907 273.228 107.276 284.932 104.275 288.594C101.948 291.436 97.1831 287.451 90.2309 290.243C83.7101 292.86 85.3553 295.738 79.0402 297.957C72.8606 300.125 70.1668 299.043 65.1112 300.954C56.8144 304.052 58.9265 315.172 53.9103 315.572Z" fill="#3A0835"/>
<path d="M66.8267 305.531C67.0525 308.708 67.7445 311.44 65.0107 311.63C62.2769 311.82 59.8745 309.407 59.6488 306.23C59.4231 303.053 61.4597 300.32 64.1929 300.13C66.9262 299.941 66.601 302.353 66.8267 305.531Z" fill="#EDB9BD"/>
<path d="M88.55 302.913C88.7821 300.798 87.8733 298.963 86.5202 298.814C85.1671 298.666 83.8822 300.26 83.6501 302.375C83.4181 304.49 84.3269 306.325 85.68 306.474C87.0331 306.622 88.318 305.028 88.55 302.913Z" fill="white"/>
<path d="M88.5234 302.878C88.4379 303.791 88.1126 304.664 87.5805 305.411C85.7798 305.116 84.5358 303.113 84.7867 300.839C84.8476 300.237 85.0176 299.651 85.2884 299.11C85.637 298.859 86.0645 298.742 86.4924 298.781C87.8376 298.932 88.7565 300.765 88.5234 302.878Z" fill="#3A0835"/>
<path d="M79.8128 300.933C79.8128 300.933 83.1843 296.862 87.397 296.827" stroke="#3A0835" stroke-width="2.957" stroke-miterlimit="10" stroke-linecap="round"/>
<path d="M91.6606 298.242C91.6606 298.242 92.1623 296.649 93.7521 298.027" stroke="#3A0835" stroke-width="2.957" stroke-miterlimit="10" stroke-linecap="round"/>
<path d="M64.0129 305.531C63.7502 305.615 63.5159 305.771 63.3357 305.98C63.1507 306.206 63.0403 306.483 63.0197 306.775C62.991 306.902 62.9918 307.035 63.0222 307.162C63.0526 307.289 63.1118 307.408 63.1951 307.509C63.3124 307.588 63.4449 307.641 63.584 307.665C63.7231 307.689 63.8657 307.683 64.0026 307.649C64.0368 307.642 64.0722 307.641 64.1065 307.648C64.1409 307.655 64.1736 307.668 64.2026 307.688C64.2316 307.707 64.2563 307.733 64.2754 307.762C64.2944 307.791 64.3074 307.824 64.3135 307.859C64.3247 307.923 64.3119 307.989 64.2777 308.044C64.2434 308.099 64.1901 308.14 64.1278 308.158C63.9171 308.225 63.6966 308.255 63.4757 308.248C63.229 308.241 62.9891 308.165 62.7837 308.028C62.5748 307.877 62.4187 307.663 62.3374 307.419C62.267 307.203 62.2315 306.977 62.2323 306.749C62.2205 306.293 62.3482 305.843 62.5985 305.461C62.7308 305.274 62.8876 305.106 63.0649 304.961C63.2527 304.808 63.4623 304.684 63.6866 304.592C63.8098 304.542 63.9478 304.543 64.0702 304.595C64.1926 304.647 64.2893 304.745 64.3392 304.868C64.389 304.991 64.3879 305.129 64.336 305.252C64.2842 305.374 64.1858 305.471 64.0626 305.521L64.0129 305.531Z" fill="#E8A3AB"/>
<path d="M10.0267 455.063C10.0267 455.063 8.15065 450.067 8.27637 450.177C8.40209 450.286 12.9714 454.005 12.9714 454.005L11.4365 448.691L16.6429 452.52V447.327L19.3287 452.088" stroke="#B8B0BF" stroke-width="0.896" stroke-linecap="round" stroke-linejoin="round"/>
<path d="M141.754 451.57C141.754 451.57 143.76 446.609 143.791 446.789C143.821 446.969 144.644 452.784 144.644 452.784L147.152 447.834L148.386 454.163L151.897 450.346L150.64 455.661" stroke="#B8B0BF" stroke-width="0.896" stroke-linecap="round" stroke-linejoin="round"/>
<path d="M87.5776 316.091C87.5776 316.091 89.7548 320.588 94.0132 320.088C93.9725 318.728 94.231 317.376 94.7704 316.127C94.7704 316.127 90.9886 317.72 87.5776 316.091Z" fill="white"/>
<path d="M94.0133 320.093C93.9731 319.443 94.0187 318.792 94.1487 318.154C89.2531 318.229 87.5771 316.091 87.5771 316.091C87.5771 316.091 89.7543 320.582 94.0133 320.093Z" fill="#6B2034"/>
<path d="M90.3114 319.184C91.397 319.919 92.7103 320.242 94.0132 320.093C94.0032 319.895 94.0032 319.696 94.0132 319.498C92.8235 319.093 91.5525 318.985 90.3114 319.184Z" fill="#B75167"/>
<path d="M461.557 376.473L461.176 374.914C462.425 374.04 488.205 356.026 500.24 355.517C511.997 355.017 530.335 351.201 530.584 351.155L531.657 352.474C531.429 352.519 512.186 356.506 500.308 357.01C488.71 357.504 461.86 376.253 461.557 376.473Z" fill="white"/>
<path d="M423.232 284.47L422.731 283.511C422.776 283.401 427.124 272.906 436.274 266.926L437.382 267.456C428.469 273.27 423.283 284.365 423.232 284.47Z" fill="white"/>
<path d="M429.252 120.772L412.956 122.106L426.464 131.288L424.663 138.081L403.883 123.567L405.784 116.403L431.064 113.995L429.252 120.772Z" fill="#CCE0EE"/>
<path d="M450.32 107.448L458.215 109.526L431.174 149.299L423.274 147.221L450.32 107.448Z" fill="#CCE0EE"/>
<path d="M476.663 135.053L474.762 142.216L449.482 144.625L451.282 137.831L467.579 136.497L454.071 127.315L455.872 120.521L476.663 135.053Z" fill="#CCE0EE"/>
<path d="M41.4059 411.721C41.4059 411.721 108.985 405.851 114.688 407.804L114.016 399.547L41.4059 411.721Z" fill="#FFB800"/>
<path opacity="0.6" d="M465.737 441.139L489.733 443.962L490.882 439.091L465.738 436.244L465.737 441.139Z" fill="#5C4477"/>
<path opacity="0.6" d="M552.868 413.82C552.868 413.82 568.069 395.451 570.625 394.941C575.922 397.324 576.263 397.329 576.263 397.329C576.263 397.329 558.793 413.814 558.205 415.264L552.868 413.82Z" fill="#5C4477"/>
<path d="M77.0647 178.32C79.3316 178.026 80.7791 178.9 82.0254 181.773L84.1575 186.673C84.9249 188.437 86.2941 189.026 88.1702 188.222L88.7119 187.987L91.1297 193.537L88.6216 194.626C83.1894 196.974 79.2499 195.45 77.1853 190.7L74.596 184.765C74.5274 184.522 74.4048 184.299 74.2374 184.111C74.0699 183.923 73.8621 183.775 73.6294 183.679C73.3966 183.583 73.1452 183.541 72.8938 183.556C72.6425 183.571 72.3978 183.643 72.1783 183.766L70.8588 184.337L68.4261 178.747L69.7456 178.176C70.7491 177.741 71.1799 176.922 70.6634 175.733L68.0753 169.798C66.0089 165.055 67.5735 161.146 73.016 158.808L75.5241 157.715L77.9419 163.265L77.395 163.499C75.5338 164.309 75.0378 165.707 75.8046 167.466L77.9367 172.367C79.1716 175.228 78.8305 176.876 77.0647 178.32Z" fill="#CCE0EE"/>
<path d="M103.274 163.678L105.711 169.264L104.427 169.818C103.424 170.253 102.993 171.075 103.51 172.261L106.118 178.195C108.184 182.938 106.619 186.853 101.177 189.185L98.594 190.304L96.1762 184.754L96.7579 184.505C98.6191 183.701 99.1203 182.302 98.3528 180.538L96.2162 175.637C94.967 172.77 95.3082 171.117 97.0733 169.673C94.8064 169.968 93.3664 169.093 92.1126 166.221L89.9811 161.32C89.2137 159.562 87.8445 158.967 85.9684 159.771L85.3867 160.021L82.9689 154.472L85.5319 153.368C90.964 151.02 94.9036 152.548 96.9682 157.294L99.5969 163.229C99.6649 163.471 99.7872 163.695 99.9545 163.884C100.122 164.072 100.33 164.22 100.563 164.316C100.796 164.412 101.047 164.454 101.299 164.439C101.55 164.424 101.795 164.351 102.015 164.227L103.274 163.678Z" fill="#CCE0EE"/>
<g opacity="0.09">
<path opacity="0.09" d="M480.703 467.254C505.146 467.254 524.961 465.212 524.961 462.694C524.961 460.175 505.146 458.133 480.703 458.133C456.26 458.133 436.445 460.175 436.445 462.694C436.445 465.212 456.26 467.254 480.703 467.254Z" fill="#515151"/>
<path opacity="0.09" d="M480.703 466.968C504.988 466.968 524.675 465.054 524.675 462.694C524.675 460.333 504.988 458.419 480.703 458.419C456.418 458.419 436.73 460.333 436.73 462.694C436.73 465.054 456.418 466.968 480.703 466.968Z" stroke="#707070"/>
</g>
<g opacity="0.15">
<path opacity="0.15" d="M85.6021 464.57C122.34 464.57 152.122 461.928 152.122 458.669C152.122 455.411 122.34 452.769 85.6021 452.769C48.864 452.769 19.0818 455.411 19.0818 458.669C19.0818 461.928 48.864 464.57 85.6021 464.57Z" fill="#515151"/>
<path opacity="0.15" d="M85.6021 464.285C122.182 464.285 151.837 461.771 151.837 458.669C151.837 455.568 122.182 453.054 85.6021 453.054C49.0217 453.054 19.3675 455.568 19.3675 458.669C19.3675 461.771 49.0217 464.285 85.6021 464.285Z" stroke="#707070"/>
</g>
</svg>
