<svg width="466" height="331" viewBox="0 0 466 331" fill="none" xmlns="http://www.w3.org/2000/svg">
<path d="M189.884 0L380.987 331H332.036L189.884 75.2085L141.122 161.161L96.4928 170.252L189.884 0Z" fill="#0C154A"/>
<path d="M84.2547 194.712L361.116 138.846L72.1613 219.37L84.2547 194.712Z" fill="url(#paint0_linear)"/>
<path d="M63.4089 237.009L413.856 138.847L44.9762 271.017L63.4089 237.009Z" fill="url(#paint1_linear)"/>
<path d="M36.9873 288.437L375.839 173.558L15.1334 329.76L36.9873 288.437Z" fill="url(#paint2_linear)"/>
<path d="M407.973 124.574L462.804 123.982L421.046 162.486C421.046 162.486 430.089 152.248 427.371 137.154C425.859 128.761 407.973 124.574 407.973 124.574Z" fill="#0C154A"/>
<path d="M408.72 124.857C408.72 124.857 436.135 127.142 439.399 135.301C442.662 143.461 421.342 162.405 421.342 162.405C421.342 162.405 430.042 152.68 427.323 137.586C425.811 129.193 408.72 124.857 408.72 124.857Z" fill="url(#paint3_linear)"/>
<defs>
<linearGradient id="paint0_linear" x1="86.5752" y1="199.179" x2="350.218" y2="138.846" gradientUnits="userSpaceOnUse">
<stop stop-color="#0C154A"/>
<stop offset="1" stop-color="#0C154A" stop-opacity="0.5"/>
</linearGradient>
<linearGradient id="paint1_linear" x1="55.1694" y1="254.552" x2="413.856" y2="155.376" gradientUnits="userSpaceOnUse">
<stop stop-color="#0C154A"/>
<stop offset="1" stop-color="#0C154A" stop-opacity="0.5"/>
</linearGradient>
<linearGradient id="paint2_linear" x1="31.202" y1="303.313" x2="433.691" y2="163.64" gradientUnits="userSpaceOnUse">
<stop stop-color="#0C154A"/>
<stop offset="1" stop-color="#0C154A" stop-opacity="0.5"/>
</linearGradient>
<linearGradient id="paint3_linear" x1="410.151" y1="123.698" x2="427.323" y2="156.189" gradientUnits="userSpaceOnUse">
<stop stop-color="#CED0DB"/>
<stop offset="1" stop-color="#CED0DB" stop-opacity="0"/>
</linearGradient>
</defs>
</svg>
