<svg width="466" height="331" viewBox="0 0 466 331" fill="none" xmlns="http://www.w3.org/2000/svg">
<path d="M189.884 0L380.987 331H332.036L189.884 75.2085L141.122 161.161L96.4928 170.252L189.884 0Z" fill="#9F9F9F"/>
<path d="M84.2547 194.712L361.116 138.847L72.1613 219.37L84.2547 194.712Z" fill="#9F9F9F"/>
<path d="M63.4089 237.009L413.856 138.847L44.9762 271.017L63.4089 237.009Z" fill="#9F9F9F"/>
<path d="M36.9873 288.437L375.839 173.558L15.1334 329.76L36.9873 288.437Z" fill="#9F9F9F"/>
<path d="M407.973 124.574L462.804 123.982L421.046 162.486C421.046 162.486 430.089 152.248 427.371 137.154C425.859 128.761 407.973 124.574 407.973 124.574Z" fill="#9F9F9F"/>
<path d="M408.72 124.857C408.72 124.857 436.135 127.142 439.399 135.301C442.662 143.461 421.342 162.405 421.342 162.405C421.342 162.405 430.042 152.68 427.323 137.586C425.811 129.193 408.72 124.857 408.72 124.857Z" fill="#9F9F9F"/>
</svg>
