<svg xmlns="http://www.w3.org/2000/svg" xmlns:xlink="http://www.w3.org/1999/xlink" width="882.524" height="889.126" viewBox="0 0 882.524 889.126"><defs><clipPath id="a"><ellipse cx="7.996" cy="10.277" rx="7.996" ry="10.277" transform="translate(0 15.856) rotate(-82.55)" fill="none"/></clipPath><clipPath id="b"><ellipse cx="10.277" cy="7.996" rx="10.277" ry="7.996" transform="translate(0 0.237) rotate(-0.66)" fill="none"/></clipPath><linearGradient id="c" x1="0.5" y1="0.207" x2="0.5" y2="0.891" gradientUnits="objectBoundingBox"><stop offset="0" stop-color="#1e78de" stop-opacity="0"/><stop offset="1" stop-color="#dee8dd"/></linearGradient></defs><g transform="translate(-320.774 11.631)"><path d="M670.276,438.584c-29.68,143.564,6.21,241.567-130.477,262.1S378.513,529.59,317.061,575.989,111.979,584.474,145.49,467.418-34.5,313.159,4.864,267.587,4.006,234.763,146.2,192.622,220.057-3.347,301.688.056s88.332,76.77,198.987,81.382,115.444-44.3,157.844,44.988S699.956,295.02,670.276,438.584Z" transform="translate(549.397 -11.631) rotate(19)" fill="#e0f0fd" opacity="0.85"/><g transform="translate(596.48 173.544)"><g transform="translate(0 0)"><path d="M577.1,861.982l30.714,19.766s-16.543,21.375,76.588,21.375c107.558,0-82.949-57.323-82.949-57.323Z" transform="translate(-516.483 -492.849)" fill="#155195" opacity="0.72"/><path d="M1170,854.036,1135.2,881.748s20,24.308-76.583,21.375c-107.508-3.279,82.949-57.323,82.949-57.323Z" transform="translate(-740.215 -492.849)" fill="#155195" opacity="0.59"/><path d="M1284,844.2s2.747,5.484,10.974,4.938c7.128-7.68,17.545-14.262,17.545-14.262L1302.1,829.94Z" transform="translate(-869.016 -484.94)" fill="#f99a00"/><path d="M508.019,500.174s-99.5-157.8-22.8-203.186c67.815-40.129,118.752,89,222.4-9.8,69.349-66.111,234.557,92.158,158.961,128.412s-84.218,77.084-84.218,77.084" transform="translate(-456.179 -206.305)" fill="none" stroke="#155195" stroke-linecap="round" stroke-miterlimit="10" stroke-width="1.54" stroke-dasharray="24.64"/><path d="M702,691.614s-76.067-2.942-84.408-64.281C607.305,551.7,652.532,466.688,763.334,462.3s-5.514-4.386,43.332-4.386S1025.231,543.331,934.7,660.163c-30.715-33.457-100.605,34.81-100.605,34.81Z" transform="translate(-535.965 -299.407)" fill="#ffb800"/><ellipse cx="7.996" cy="10.277" rx="7.996" ry="10.277" transform="translate(197.936 196.455) rotate(-82.55)" fill="#fff"/><path d="M1159.05,589.288s21.887,30.108,0,77.936c30.684,9.57,76.874-5.845,76.874-5.845V619.972l-36.2-47.172Z" transform="translate(-806.703 -356.703)" fill="#f99a00"/><path d="M572.479,853.28a15.468,15.468,0,0,1-12.833,5.7c-7.133-7.68-17.545-14.262-17.545-14.262l10.422-4.933Z" transform="translate(-499.028 -489.851)" fill="#f99a00"/><path d="M650.587,601.4s-21.556,44.019-2.607,82.539c-30.679,9.57-77.45-12.718-77.45-12.718v-41.4l36.2-47.172Z" transform="translate(-513.206 -361.615)" fill="#f99a00"/><path d="M630.121,756.468l-40.234-8.226c-18.338-5.66-38.334,3.233-44.079,19.6h0c-3.509,10.026-.892,20.929,6.928,28.83l47.488,24.613Z" transform="translate(-500.114 -443.345)" fill="#e8a3ab"/><path d="M598.511,750.39S578.218,762.2,576,805.533c-10.758-5.629-11.53-6.186-11.53-6.186s-3.068-22.995,6.913-35.963S598.511,750.39,598.511,750.39Z" transform="translate(-509.961 -445.267)" fill="#d8939e"/><path d="M571.317,614.128c-18.548,2.812-37.382,30.228-29.155,64.236-33.461-20.292-39.658-44.941-32.424-73.29,12.076-47.342,88.374-121.434,161.874-127.465-17.41,79.6-81.055,69.4-102.986,100.375C557.707,593.409,571.317,614.128,571.317,614.128Z" transform="translate(-481.544 -309.231)" fill="#ffb800"/><path d="M1240.19,739.55l3.754-1.158c18.333-5.66,38.335,3.233,44.079,19.6h0c3.509,10.026.892,20.929-6.933,28.829l-33.863,26.223Z" transform="translate(-847.168 -438.433)" fill="#e8a3ab"/><path d="M1290.13,740.695a37.822,37.822,0,0,0-13.68-3.745c1.5,1.895,18.548,24.428,9.259,60.426h0l13.465-10.427a31.076,31.076,0,0,0,2.452-2.792C1301.049,775.6,1298.5,746.7,1290.13,740.695Z" transform="translate(-865.251 -438.565)" fill="#d8939e"/><path d="M1161.676,603.112c19.049,11.169,25.246,31.943,17.019,65.951,33.456-20.3,40.475-44.57,37.181-73.64S1135.765,490.937,1050.89,468.85c18.839,94.244,83.01,74.608,108.059,103.122C1176.4,591.838,1161.676,603.112,1161.676,603.112Z" transform="translate(-752.763 -304.863)" fill="#ffb800"/><path d="M940.615,302.52c8.066,80.077-35.271,109.147-78.784,109.147S775.4,382.973,783.053,302.52c0-57.268,35.271-84.98,78.779-84.98S940.615,245.252,940.615,302.52Z" transform="translate(-618.747 -179.534)" fill="#edb9bd"/><ellipse cx="15.224" cy="9.515" rx="15.224" ry="9.515" transform="translate(303.261 164.211) rotate(-62.05)" fill="#edb9bd"/><ellipse cx="9.515" cy="15.224" rx="9.515" ry="15.224" transform="matrix(0.979, -0.205, 0.205, 0.979, 153.36, 142.302)" fill="#edb9bd"/><path d="M803.764,300.353c19.791,40.349,55.96,39.773,91.738,26.829s46.435-29.692,46.435-29.692,24.924-89.07-84.5-89.07C761.781,208.42,764.081,300.353,803.764,300.353Z" transform="translate(-616.654 -174.985)" fill="#3a0835"/><path d="M948.37,689.164h-3.825c0-15.319-16.042-27.782-35.768-27.782s-35.762,12.462-35.762,27.782H869.19c0-16.959,17.756-30.754,39.6-30.754S948.37,672.206,948.37,689.164Z" transform="translate(-662.149 -399.397)" fill="#fff"/><path d="M994.771,663.9a2.56,2.56,0,0,1-1.289-.336,1.432,1.432,0,0,1-.421-2.326l10.352-10.648a2.556,2.556,0,0,1,3.008-.321,1.433,1.433,0,0,1,.421,2.326L996.49,663.234A2.4,2.4,0,0,1,994.771,663.9Z" transform="translate(-723.709 -395.162)" fill="#fff"/><path d="M887.013,663.9a2.406,2.406,0,0,1-1.71-.662l-10.346-10.643a1.444,1.444,0,0,1,.416-2.326,2.567,2.567,0,0,1,3.008.321l10.347,10.648a1.444,1.444,0,0,1-.416,2.326A2.562,2.562,0,0,1,887.013,663.9Z" transform="translate(-664.813 -395.165)" fill="#fff"/><ellipse cx="5.344" cy="4.151" rx="5.344" ry="4.151" transform="translate(227.835 275.511)" fill="#fff"/><ellipse cx="5.344" cy="4.151" rx="5.344" ry="4.151" transform="translate(254.734 275.511)" fill="#fff"/><path d="M940.047,524.714a2.7,2.7,0,0,0-4.677.115c-3.409,5.7-8.522,16.543,2.206,16.543C948.839,541.372,943.781,530.434,940.047,524.714Z" transform="translate(-693.032 -332.078)" fill="#e8a3ab"/><path d="M837.79,486.33s20.3,1.163,31.973,5.334" transform="translate(-646.49 -313.58)" fill="none" stroke="#3a0835" stroke-linecap="round" stroke-miterlimit="10" stroke-width="9.11"/><path d="M976,496.974s22.919-5.153,35-2.366" transform="translate(-715.415 -317.296)" fill="none" stroke="#3a0835" stroke-linecap="round" stroke-miterlimit="10" stroke-width="9.11"/><ellipse cx="7.996" cy="10.277" rx="7.996" ry="10.277" transform="translate(197.936 196.455) rotate(-82.55)" fill="#fff"/><g transform="translate(197.936 180.599)" clip-path="url(#a)"><ellipse cx="7.996" cy="10.277" rx="7.996" ry="10.277" transform="translate(0.001 19.358) rotate(-82.55)" fill="#3a0835"/></g><ellipse cx="10.277" cy="7.996" rx="10.277" ry="7.996" transform="translate(265.314 181.974) rotate(-0.66)" fill="#fff"/><g transform="translate(265.314 181.737)" clip-path="url(#b)"><ellipse cx="10.277" cy="7.996" rx="10.277" ry="7.996" transform="translate(0.491 3.7) rotate(-0.66)" fill="#3a0835"/></g><path d="M1079.94,421.957s-4.371-25.12-9.7-32.735,6.091-16.748,6.091-16.748l3.809-15.224,8.372,3.8-4.07,29.226S1084.312,410.543,1079.94,421.957Z" transform="translate(-761.707 -249.207)" fill="#3a0835"/><path d="M788.042,410.935l17.2-53.669L781.6,329.8v45.508S783.671,399.515,788.042,410.935Z" transform="translate(-618.468 -235.518)" fill="#491246"/><path d="M827.313,371.778a1.2,1.2,0,0,0,.035-.241v1.023c.025.5.06,1.038.11,1.569.1,1.068.241,2.151.406,3.233a65.6,65.6,0,0,0,1.359,6.467,62.423,62.423,0,0,0,4.672,12.392,49.431,49.431,0,0,0,7.449,10.908,42.108,42.108,0,0,0,16.377,11.134c2.115.782,4.321,1.469,6.517,2.126a93.755,93.755,0,0,0,13.38,2.923,59.758,59.758,0,0,0,13.68.411,38.592,38.592,0,0,0,6.752-1.213,28.645,28.645,0,0,0,3.253-1.118,16.244,16.244,0,0,0,3.043-1.619,15.85,15.85,0,0,1-2.968,1.785,28.365,28.365,0,0,1-3.218,1.3,38.71,38.71,0,0,1-6.777,1.594,61.029,61.029,0,0,1-13.926.321,96.31,96.31,0,0,1-13.781-2.256c-2.271-.551-4.512-1.138-6.768-1.81a44.7,44.7,0,0,1-6.647-2.587,45.5,45.5,0,0,1-11.765-8.191,54,54,0,0,1-8.918-11.3,68,68,0,0,1-6.016-13.089,71.524,71.524,0,0,1-1.965-6.958c-.271-1.183-.5-2.376-.707-3.594-.1-.612-.191-1.228-.261-1.87-.04-.326-.07-.647-.1-1a4.859,4.859,0,0,0-.025-.581V370.9a2.85,2.85,0,0,1,.06-.456Z" transform="translate(-637.872 -255.785)" fill="#491246"/><path d="M926.06,591.856s12.913,4.276,22.162-4.166" transform="translate(-690.51 -364.129)" fill="none" stroke="#e8a3ab" stroke-linecap="round" stroke-miterlimit="10" stroke-width="5.68"/><path d="M1219.232,735.122s-.822-31.677-29.857-44.706c-21.42-12.437-28.073,1.564-21.315,7.169,18.728,9.153,35.933,28.544,35.933,28.544Z" transform="translate(-809.933 -412.865)" fill="#edb9bd"/><path d="M638.37,728.035s2.672-28.168,32.96-37.918c22.654-10.026,27.722,4.637,20.4,9.465C672.1,706.6,652.868,724,652.868,724Z" transform="translate(-547.038 -413.498)" fill="#edb9bd"/><g transform="translate(45.323 90.791)"><path d="M634.91,504.881,559.59,274.55H965.38L877.758,524.02Z" transform="translate(-559.59 -274.55)" fill="url(#c)"/></g><path d="M948.635,744.169,925.51,811.844A30.373,30.373,0,0,1,896.771,832.4H722.194a30.373,30.373,0,0,1-28.738-20.55l-23.111-67.678A30.336,30.336,0,0,1,699.069,704H919.9A30.351,30.351,0,0,1,948.635,744.169Z" transform="translate(-562.155 -422.133)" fill="#155195"/><path d="M1134.53,705.7l-24.328,5.981L1084.46,833.255h19.661a30.374,30.374,0,0,0,28.739-20.55l23.126-67.678A30.393,30.393,0,0,0,1134.53,705.7Z" transform="translate(-769.505 -422.981)" fill="#155195"/><path d="M687.715,715.321V713h-4.622a30.369,30.369,0,0,0-12.728,35.657l23.125,67.675a30.374,30.374,0,0,0,28.739,20.553h.657Z" transform="translate(-562.175 -426.621)" fill="#155195"/><path d="M717.444,766.448a12.409,12.409,0,0,1-8.362-3.213c-11.881-10.723-23.06-15.811-33.316-15.129a29.523,29.523,0,0,0-19.25,9.424l.09-.105-18.824,3.2c-11.625-9.394,4.361-32.93,25.175-35.477,3.339-.406,6.742-1.629,10.527-1.925,17.425-1.374,35.026,5.85,52.32,21.46a12.482,12.482,0,0,1-8.367,21.751Z" transform="translate(-544.792 -431.639)" fill="#edb9bd"/><path d="M694.331,862.349a12.476,12.476,0,0,1-3.675-.556c-23.27-7.159-33.622-7.555-37.527-7.239a12.487,12.487,0,0,1-22.9-6.888,16.6,16.6,0,0,1,6.943-13.39c5.143-3.8,12.592-5.294,22.784-4.572,9.765.7,22.559,3.459,38.039,8.221a12.487,12.487,0,0,1-3.665,24.423Zm-39.151-14.7Z" transform="translate(-542.979 -484.734)" fill="#edb9bd"/><path d="M677.976,887.289a10.968,10.968,0,0,1-3.228-.5c-14.2-4.366-25.135-8.467-32.649-12.227h-.3a12.332,12.332,0,0,1-6.587-21.8,11.147,11.147,0,0,1,12.938.1c5.153,3.4,16.884,8.021,33.041,12.979a10.958,10.958,0,0,1-3.219,21.451Zm-47.122-23.666Z" transform="translate(-543.217 -495.312)" fill="#edb9bd"/><path d="M708.536,822.163a12.466,12.466,0,0,1-5.87-1.474c-23.15-12.362-37.362-15.46-45.207-15.881-6.592-.351-9.384,1.108-10.026,1.5a12.487,12.487,0,0,1-19.721-15.259c1.554-2.251,7.8-9.69,22.914-11.059,16.362-1.5,37.823,4.8,63.79,18.663a12.487,12.487,0,0,1-5.89,23.5ZM647.313,806.417Zm.948-1.138Zm0,0Zm0,0Z" transform="translate(-540.626 -459.922)" fill="#edb9bd"/><path d="M1100.523,772.847a12.533,12.533,0,0,1-8.367-21.817c17.365-15.605,35.026-22.824,52.5-21.445,22.232,1.75,33.642,18.874,35.031,20.583l-18.047,13.66.085.11a29.655,29.655,0,0,0-19.345-9.434c-10.287-.692-21.556,4.406-33.492,15.139A12.488,12.488,0,0,1,1100.523,772.847Z" transform="translate(-771.291 -434.809)" fill="#edb9bd"/><path d="M1143.253,853.328a12.533,12.533,0,0,1-3.665-24.478c26.744-8.191,34.68-13.375,38.67-15.54.937-3.344,5.655-5.479,9.024-7.093a12.532,12.532,0,0,1,16.683,5.885,15.3,15.3,0,0,1,.216,12.924c-3.649,8.311-12.412,14.006-57.273,27.747A12.478,12.478,0,0,1,1143.253,853.328Zm38.148-30.444Z" transform="translate(-792.636 -472.5)" fill="#edb9bd"/><path d="M1177.856,884.884a10.978,10.978,0,0,1-3.353-21.436c21.42-6.873,25.22-14.643,25.516-15.33a11.047,11.047,0,1,1,20.117,8.763,33.464,33.464,0,0,1-6.246,9.164c-7.018,7.439-18.047,13.6-32.68,18.3A11.024,11.024,0,0,1,1177.856,884.884Zm43.784-33.517a14.544,14.544,0,0,1-.276,1.825,7.712,7.712,0,0,0,.276-1.825Zm-21.621-3.218a7.025,7.025,0,0,0-.261,1.675A13.824,13.824,0,0,1,1200.019,848.149Z" transform="translate(-810.601 -489.683)" fill="#edb9bd"/><path d="M1110.036,821.711a12.532,12.532,0,0,1-6.1-23.446c26.538-14.773,47.257-23.31,61.589-25.371,14.9-2.145,21.2,3.143,23.626,6.482a12.532,12.532,0,0,1-16.678,18.021c-3.208-.135-17.265.953-56.386,22.729A12.445,12.445,0,0,1,1110.036,821.711ZM1168.913,794.09Z" transform="translate(-776.042 -456.243)" fill="#edb9bd"/><path d="M1350.885,692.68c-.817-7.244-6.2-17.36-15.134-28.81,26.068,59.825-14.131,97.222-14.131,97.222C1346.675,742.924,1354.184,721.75,1350.885,692.68Z" transform="translate(-887.777 -402.12)" fill="#f99a00"/><path d="M690.93,710.832h259.3A30.076,30.076,0,0,0,930.991,704H710.165a30.076,30.076,0,0,0-19.235,6.833Z" transform="translate(-573.25 -422.132)" fill="#155195"/><path d="M560.4,586.57c-26.067,23.817-45.117,51.132-50.631,72.844-7.249,28.348-1.058,53,32.4,73.29C542.172,732.7,479.62,668.693,560.4,586.57Z" transform="translate(-481.555 -363.57)" fill="#f99a00"/><path d="M718.8,512.506l.8-.406Z" transform="translate(-587.149 -326.432)" fill="#f99a00"/><path d="M1279.466,721.68a7.819,7.819,0,0,1-.466,1.258,17.1,17.1,0,0,1-1.94,3.454h0c.236.11,20.343,8.477,25.4,27.927,4.858,18.693-.215,30.745-3.048,35.592q4.011-2.9,7.424-5.905c2.2-7.088,3.464-17.445,0-30.82C1301.217,731.651,1281.351,722.367,1279.466,721.68Z" transform="translate(-865.555 -430.95)" fill="#ffca55"/><path d="M583.885,731.13c-15.194,2.191-29.506,14.954-36.655,34.77a122.028,122.028,0,0,0-5.92,25.2q1.935,1.915,4.11,3.79a121.4,121.4,0,0,1,6.086-27.571c7.043-19.471,19.666-30.133,34.554-31.045C585.5,735.216,584.6,732.794,583.885,731.13Z" transform="translate(-498.634 -435.663)" fill="#ffca55"/><path d="M812.211,340.067c-18.623-2.893-28.313-16.929-33.321-31.868-4.2,21.556,6.2,41.913,24.874,41.913,19.791,40.349,55.96,39.773,91.737,26.829a145.075,145.075,0,0,0,25-11.635C851.513,373.063,832.739,362.666,812.211,340.067Z" transform="translate(-616.655 -224.746)" fill="#491246"/><path d="M828.392,339.745l.436-36.675,9.74,41.482L827.48,339.88" transform="translate(-641.348 -222.188)" fill="#491246"/><rect width="60.241" height="2.923" rx="1.461" transform="translate(267.402 283.456)" fill="#fff"/><path d="M562.1,438.008,551.311,442.8l11.4,3.073.391,5.078-17.641-5.013-.416-5.359,16.663-7.66Z" transform="translate(-500.499 -286.944)" fill="#155195"/><path d="M592.493,414.426l5.88-.456-8.943,33.667-5.88.451Z" transform="translate(-519.699 -277.494)" fill="#155195"/><path d="M632.786,435.068l.411,5.354-16.663,7.645-.391-5.083,10.793-4.787-11.4-3.073-.391-5.083Z" transform="translate(-535.453 -285.508)" fill="#155195"/><path d="M1329.836,414.515c.717,1,.667,1.92-.391,3.248l-1.8,2.271a1.467,1.467,0,0,0,.276,2.3l.251.2-2.046,2.572-1.163-.927c-2.506-2.005-2.777-4.261-1-6.457l2.186-2.747a.9.9,0,0,0-.135-1.409l-.612-.5,2.06-2.592.607.5a.9.9,0,0,0,1.4-.185l2.186-2.747c1.749-2.2,4.01-2.446,6.517-.456l1.163.927-2.04,2.567-.251-.2a1.469,1.469,0,0,0-2.306.251l-1.8,2.266C1331.856,414.736,1330.979,414.992,1329.836,414.515Z" transform="translate(-888.374 -273.633)" fill="#155195"/><path d="M1350.236,428.281l-2.061,2.592-.586-.471a.9.9,0,0,0-1.4.186L1344,433.334c-1.75,2.2-4.011,2.446-6.517.451l-1.183-.937,2.045-2.567.266.211a1.469,1.469,0,0,0,2.306-.251l1.8-2.271c1.053-1.328,1.93-1.584,3.073-1.113-.717-1-.667-1.915.391-3.243l1.8-2.271a1.464,1.464,0,0,0-.276-2.3l-.266-.21,2.045-2.572,1.178.937c2.506,2.005,2.777,4.261,1,6.462l-2.185,2.747a.9.9,0,0,0,.135,1.409Z" transform="translate(-895.098 -278.636)" fill="#155195"/><path d="M0,0H19.215V16.834a2.506,2.506,0,0,1-2.506,2.506H2.557A2.506,2.506,0,0,1,.05,16.834V0Z" transform="translate(372.404 42.64) rotate(-9.54)" fill="#155195"/><rect width="3.514" height="13.37" rx="1.757" transform="translate(393.099 39.158) rotate(-9.54)" fill="#155195"/><rect width="4.713" height="13.43" rx="2.357" transform="translate(385.851 52.315) rotate(-9.744)" fill="#155195"/><rect width="4.713" height="13.43" rx="2.357" transform="translate(378.074 53.655) rotate(-9.744)" fill="#155195"/><rect width="3.514" height="13.37" rx="1.757" transform="translate(367.223 43.512) rotate(-9.54)" fill="#155195"/><path d="M1206.406,201.936A9.6,9.6,0,0,0,1198.525,213l18.949-3.188A9.6,9.6,0,0,0,1206.406,201.936Zm-2.562,6.517a.827.827,0,1,1,.538-.335A.827.827,0,0,1,1203.844,208.452Zm7.113-1.2a.827.827,0,1,1,.677-.952.827.827,0,0,1-.677.952Z" transform="translate(-826.322 -171.684)" fill="#155195"/><path d="M1224.71,201.687a.641.641,0,0,1-.321,0,.7.7,0,0,1-.472-.882l1.1-3.624a.707.707,0,0,1,1.354.411l-1.1,3.624a.7.7,0,0,1-.562.471Z" transform="translate(-839.037 -169.13)" fill="#155195"/><path d="M1202.313,205.619a.727.727,0,0,1-.692-.281l-2.226-3.068a.709.709,0,0,1,1.148-.832l2.226,3.063a.712.712,0,0,1-.16,1,.734.734,0,0,1-.3.115Z" transform="translate(-826.756 -171.358)" fill="#155195"/><path d="M673.048,142.223l-28.684,8.748a11.4,11.4,0,0,0-7.58,14.222l3.945,12.938a11.394,11.394,0,0,0,14.222,7.575l28.689-8.753a11.4,11.4,0,0,0,7.575-14.222l-3.94-12.929A11.4,11.4,0,0,0,673.048,142.223Zm-12.532,34.123-6.327-20.7,18.333,5.725Z" transform="translate(-545.999 -141.724)" fill="#155195"/></g></g></g></svg>