<?xml version="1.0" standalone="no"?>
<!DOCTYPE svg PUBLIC "-//W3C//DTD SVG 20010904//EN"
 "http://www.w3.org/TR/2001/REC-SVG-20010904/DTD/svg10.dtd">
<svg version="1.0" xmlns="http://www.w3.org/2000/svg"
 width="700.000000pt" height="700.000000pt" viewBox="0 0 700.000000 700.000000"
 preserveAspectRatio="xMidYMid meet">
<metadata>
Created by potrace 1.14, written by Peter Selinger 2001-2017
</metadata>
<g transform="translate(0.000000,700.000000) scale(0.100000,-0.100000)"
fill="#000000" stroke="none">
<path d="M2000 5369 c-22 -10 -47 -33 -61 -55 l-24 -39 0 -432 c0 -426 0 -433
-20 -434 -11 0 -29 -2 -40 -4 -11 -2 -39 -7 -62 -10 -67 -9 -190 -51 -261 -90
-441 -241 -609 -770 -387 -1215 119 -237 359 -425 607 -475 95 -19 119 -23
143 -24 20 -1 20 -8 20 -434 l0 -432 24 -38 c44 -71 41 -71 461 -72 206 -1
397 2 423 6 113 18 223 100 270 202 13 28 91 302 172 607 81 305 183 688 227
850 43 162 81 302 83 310 2 8 15 58 29 110 14 52 28 104 31 115 2 11 13 54 25
95 27 100 193 724 219 825 27 105 47 141 90 168 35 21 43 22 346 22 l310 0 0
-460 c0 -459 0 -460 23 -496 25 -41 74 -69 119 -69 17 0 56 9 89 20 296 102
588 -85 611 -392 16 -206 -122 -403 -325 -462 -75 -22 -210 -16 -282 12 -96
38 -170 22 -212 -46 -23 -37 -23 -38 -23 -497 l0 -460 -475 -1 c-344 -1 -487
-4 -520 -13 -94 -26 -187 -100 -231 -183 -22 -43 -80 -256 -71 -261 4 -2 349
-3 767 -3 l760 2 55 25 c69 33 115 79 148 149 l26 55 1 372 c0 366 0 373 20
374 11 0 29 2 40 4 11 2 40 7 64 10 53 8 181 50 236 78 266 133 456 397 500
691 7 48 7 199 0 246 -35 247 -166 468 -365 614 -101 75 -264 145 -372 161
-24 3 -52 8 -63 10 -11 2 -29 4 -40 4 -20 1 -20 7 -20 429 0 480 1 478 -72
524 l-38 23 -560 0 c-308 1 -582 -3 -609 -8 -98 -17 -191 -81 -243 -168 -25
-42 -57 -145 -143 -469 -61 -228 -113 -422 -115 -430 -7 -31 -27 -106 -36
-135 -5 -16 -66 -244 -134 -505 -69 -261 -132 -497 -140 -525 -8 -27 -47 -171
-86 -320 -137 -517 -180 -670 -194 -691 -29 -45 -80 -59 -215 -59 l-125 0 0
460 c-1 453 -1 461 -22 495 -45 72 -109 88 -210 50 -168 -63 -351 -23 -479
104 -236 237 -147 626 170 741 100 36 244 31 326 -12 62 -32 154 -6 192 56 23
36 23 37 23 488 0 248 4 455 8 460 5 4 133 8 285 9 297 1 345 5 407 37 112 56
164 128 209 290 18 64 30 120 27 124 -3 5 -291 9 -640 9 -568 -1 -638 -2 -671
-17z"/>
</g>
</svg>
