<svg width="136" height="39" viewBox="0 0 136 39" fill="none" xmlns="http://www.w3.org/2000/svg">
<path d="M49.8761 14.8336C49.0839 13.4532 47.9527 12.2943 46.5879 11.4647C45.2231 10.6352 43.6689 10.1621 42.0703 10.0895V1.5217C42.0703 1.32182 42.0306 1.12389 41.9536 0.939219C41.8765 0.754556 41.7634 0.586774 41.621 0.445462C41.4787 0.304149 41.3096 0.192074 41.1236 0.11564C40.9375 0.0392065 40.7381 -8.79098e-05 40.5368 1.47673e-07H29.4696C28.625 -2.43707e-06 27.8042 0.276842 27.1345 0.78754C26.4647 1.29823 25.9836 2.01419 25.7658 2.82421L17.6238 33.1142C17.537 33.4387 17.3447 33.7256 17.0768 33.9303C16.8089 34.1351 16.4804 34.2462 16.1423 34.2464H13.839V25.1297C13.8392 24.875 13.7749 24.6245 13.6523 24.401C13.5296 24.1774 13.3523 23.988 13.1368 23.8501C12.9212 23.7122 12.6741 23.6302 12.4185 23.6117C12.1627 23.5932 11.9064 23.6387 11.6729 23.744C10.957 24.067 10.1709 24.2065 9.38673 24.1496C8.60247 24.0929 7.84516 23.8415 7.18405 23.419C6.52297 22.9963 5.97927 22.4157 5.60275 21.7304C5.22625 21.0451 5.02895 20.2769 5.02895 19.4963C5.02895 18.7157 5.22625 17.9475 5.60275 17.2622C5.97927 16.5769 6.52297 15.9963 7.18405 15.5736C7.84516 15.151 8.60247 14.8998 9.38673 14.843C10.1709 14.7862 10.957 14.9257 11.6729 15.2486C11.906 15.3538 12.162 15.3993 12.4173 15.3811C12.6726 15.3626 12.9193 15.2811 13.1348 15.1438C13.3503 15.0064 13.5276 14.8177 13.6505 14.5947C13.7736 14.3719 13.8384 14.1219 13.839 13.8676V4.75417H19.4639C20.3093 4.75422 21.1312 4.4767 21.8013 3.96479C22.4715 3.45289 22.9522 2.73535 23.1688 1.92392L23.6828 1.47673e-07H10.5829C10.3817 -8.79098e-05 10.1822 0.0392065 9.99627 0.11564C9.81023 0.192074 9.64112 0.304149 9.49874 0.445462C9.35636 0.586774 9.24337 0.754556 9.16629 0.939219C9.08922 1.12389 9.04958 1.32182 9.04958 1.5217V10.0895C6.6117 10.2015 4.31104 11.2416 2.62571 12.994C0.940382 14.7463 0 17.0759 0 19.4987C0 21.9214 0.940382 24.251 2.62571 26.0034C4.31104 27.7556 6.6117 28.7959 9.04958 28.9077V37.4756C9.04958 37.6755 9.08922 37.8734 9.16629 38.0581C9.24337 38.2427 9.35636 38.4106 9.49874 38.5519C9.64112 38.6931 9.81023 38.8053 9.99627 38.8817C10.1822 38.9582 10.3817 38.9974 10.5829 38.9973H17.8959C18.7404 38.9973 19.5613 38.7204 20.2309 38.2098C20.9007 37.6991 21.3818 36.9832 21.5996 36.173L29.7417 5.88439C29.8287 5.5603 30.0211 5.2738 30.289 5.06942C30.5569 4.86505 30.8853 4.75422 31.2231 4.75417H37.2808V13.8676C37.2806 14.1223 37.3448 14.3728 37.4675 14.5964C37.5902 14.8199 37.7674 15.0093 37.983 15.1472C38.1986 15.2852 38.4456 15.3671 38.7014 15.3856C38.9571 15.4042 39.2135 15.3587 39.4469 15.2533C40.1628 14.9303 40.9489 14.7909 41.733 14.8477C42.5172 14.9045 43.2747 15.1557 43.9358 15.5784C44.5968 16.001 45.1406 16.5816 45.5171 17.2669C45.8936 17.9522 46.0909 18.7204 46.0909 19.5011C46.0909 20.2816 45.8936 21.0498 45.5171 21.7351C45.1406 22.4204 44.5968 23.001 43.9358 23.4237C43.2747 23.8463 42.5172 24.0976 41.733 24.1543C40.9489 24.2111 40.1628 24.0716 39.4469 23.7487C39.2139 23.6435 38.9579 23.5981 38.7026 23.6163C38.4471 23.6345 38.2004 23.7162 37.985 23.8535C37.7696 23.9909 37.5923 24.1796 37.4692 24.4026C37.3462 24.6254 37.2814 24.8754 37.2808 25.1297V34.2464H27.905C27.0606 34.2464 26.2397 34.5233 25.57 35.0341C24.9002 35.5447 24.4191 36.2607 24.2014 37.0707L23.6828 39H39.0269C39.4266 39.0001 39.8223 38.922 40.1915 38.7703C40.5607 38.6185 40.8962 38.396 41.1789 38.1155C41.4614 37.835 41.6857 37.502 41.8386 37.1355C41.9915 36.7689 42.0703 36.3761 42.0703 35.9794V28.9077C43.6923 28.833 45.268 28.3463 46.6465 27.4942C48.0249 26.642 49.16 25.453 49.9432 24.0408C50.7264 22.6286 51.1315 21.0406 51.1197 19.4286C51.108 17.8165 50.6798 16.2345 49.8761 14.8336Z" fill="#1E78DE"/>
<path d="M63.1656 33.5292H59.1856L58.2918 36.0664H57L60.6275 26.3449H61.7237L65.3578 36.0664H64.0724L63.1656 33.5292ZM59.5641 32.4742H62.7937L61.1757 27.9274L59.5641 32.4742ZM72.4108 32.5343C72.4108 33.6338 72.1649 34.5196 71.6735 35.1917C71.1819 35.8638 70.5164 36.1999 69.677 36.1999C68.8201 36.1999 68.1459 35.9217 67.6544 35.3654V38.8439H66.4474V28.842H67.55L67.6087 29.6433C68.1002 29.0201 68.7831 28.7085 69.6574 28.7085C70.5056 28.7085 71.1754 29.0357 71.6669 29.69C72.1628 30.3443 72.4108 31.2546 72.4108 32.4209V32.5343ZM71.2037 32.3941C71.2037 31.5795 71.034 30.9364 70.6948 30.4645C70.3555 29.9927 69.8901 29.7568 69.2985 29.7568C68.5678 29.7568 68.0198 30.0884 67.6544 30.7516V34.2035C68.0154 34.8623 68.5678 35.1917 69.3116 35.1917C69.8901 35.1917 70.349 34.958 70.6883 34.4906C71.0318 34.0188 71.2037 33.32 71.2037 32.3941ZM79.9138 32.5343C79.9138 33.6338 79.6681 34.5196 79.1765 35.1917C78.685 35.8638 78.0196 36.1999 77.1801 36.1999C76.3232 36.1999 75.6491 35.9217 75.1575 35.3654V38.8439H73.9505V28.842H75.0531L75.1118 29.6433C75.6033 29.0201 76.2862 28.7085 77.1605 28.7085C78.0087 28.7085 78.6785 29.0357 79.17 29.69C79.6659 30.3443 79.9138 31.2546 79.9138 32.4209V32.5343ZM78.7068 32.3941C78.7068 31.5795 78.5371 30.9364 78.1979 30.4645C77.8586 29.9927 77.3932 29.7568 76.8017 29.7568C76.071 29.7568 75.5228 30.0884 75.1575 30.7516V34.2035C75.5185 34.8623 76.0709 35.1917 76.8147 35.1917C77.3932 35.1917 77.8521 34.958 78.1914 34.4906C78.5349 34.0188 78.7068 33.32 78.7068 32.3941Z" fill="#EA3D90"/>
<path d="M87.8993 35.8293H86.597V26.3449H87.8993V35.8293ZM91.2762 28.7812L91.3173 29.6671C91.8777 28.9896 92.61 28.6509 93.5141 28.6509C95.0656 28.6509 95.8475 29.4911 95.8609 31.1718V35.8293H94.6064V31.1652C94.6016 30.6572 94.4794 30.2816 94.2397 30.0384C94.0049 29.7951 93.6364 29.6736 93.1342 29.6736C92.7274 29.6736 92.3704 29.7778 92.0629 29.9863C91.7555 30.1947 91.5159 30.4682 91.344 30.8071V35.8293H90.0895V28.7812H91.2762ZM100.173 34.1943L101.991 28.7812H103.274L100.641 35.8293H99.6856L97.0266 28.7812H98.3089L100.173 34.1943ZM107.43 35.9596C106.436 35.9596 105.627 35.6469 105.003 35.0215C104.378 34.3919 104.067 33.5516 104.067 32.5007V32.2792C104.067 31.58 104.204 30.9568 104.48 30.4097C104.76 29.8581 105.15 29.4282 105.647 29.1199C106.148 28.8072 106.691 28.6509 107.274 28.6509C108.229 28.6509 108.969 28.9527 109.498 29.5564C110.027 30.1599 110.293 31.0242 110.293 32.1489V32.6505H105.321C105.34 33.3452 105.55 33.9077 105.953 34.3376C106.358 34.7632 106.874 34.976 107.498 34.976C107.941 34.976 108.316 34.8892 108.624 34.7154C108.931 34.5417 109.201 34.3116 109.431 34.0249L110.197 34.5981C109.582 35.5058 108.659 35.9596 107.43 35.9596ZM107.274 29.641C106.768 29.641 106.343 29.8191 105.999 30.1752C105.656 30.5269 105.444 31.022 105.362 31.6604H109.037V31.5691C109.002 30.9568 108.83 30.4834 108.523 30.1491C108.214 29.8103 107.799 29.641 107.274 29.641ZM112.936 28.7812L112.977 29.6671C113.538 28.9896 114.271 28.6509 115.175 28.6509C116.726 28.6509 117.508 29.4911 117.521 31.1718V35.8293H116.267V31.1652C116.262 30.6572 116.141 30.2816 115.901 30.0384C115.666 29.7951 115.297 29.6736 114.795 29.6736C114.388 29.6736 114.032 29.7778 113.724 29.9863C113.417 30.1947 113.176 30.4682 113.005 30.8071V35.8293H111.75V28.7812H112.936ZM121.116 27.0745V28.7812H122.485V29.7127H121.116V34.0835C121.116 34.3658 121.177 34.5786 121.298 34.722C121.421 34.8609 121.628 34.9304 121.922 34.9304C122.068 34.9304 122.266 34.9043 122.519 34.8522V35.8293C122.189 35.9162 121.868 35.9596 121.556 35.9596C120.995 35.9596 120.572 35.7967 120.288 35.471C120.003 35.1454 119.861 34.6828 119.861 34.0835V29.7127H118.525V28.7812H119.861V27.0745H121.116ZM123.489 32.2401C123.489 31.5496 123.63 30.9286 123.909 30.3771C124.195 29.8256 124.587 29.4001 125.089 29.1004C125.596 28.8007 126.173 28.6509 126.819 28.6509C127.818 28.6509 128.625 28.9831 129.241 29.6474C129.859 30.3119 130.17 31.1957 130.17 32.2987V32.3834C130.17 33.0696 130.031 33.6862 129.755 34.2333C129.484 34.7763 129.093 35.1996 128.583 35.5036C128.076 35.8076 127.492 35.9596 126.833 35.9596C125.838 35.9596 125.031 35.6274 124.411 34.9629C123.797 34.2985 123.489 33.4192 123.489 32.3248V32.2401ZM124.75 32.3834C124.75 33.1651 124.938 33.7926 125.313 34.2659C125.694 34.7393 126.2 34.976 126.833 34.976C127.47 34.976 127.976 34.7371 128.352 34.2595C128.727 33.7774 128.915 33.1043 128.915 32.2401C128.915 31.4671 128.722 30.8417 128.338 30.364C127.958 29.882 127.452 29.641 126.819 29.641C126.2 29.641 125.7 29.8777 125.32 30.351C124.94 30.8244 124.75 31.5018 124.75 32.3834ZM135.289 29.8625C135.1 29.832 134.894 29.8169 134.672 29.8169C133.85 29.8169 133.291 30.1535 132.997 30.8266V35.8293H131.743V28.7812H132.963L132.983 29.5953C133.395 28.9657 133.978 28.6509 134.733 28.6509C134.978 28.6509 135.163 28.6813 135.289 28.742V29.8625Z" fill="#EA3D90"/>
<path d="M64.101 19.2841H60.1776L59.4317 21.5376H57.0523L61.0951 10.6009H63.1686L67.2338 21.5376H64.8544L64.101 19.2841ZM60.7817 17.4589H63.4968L62.1318 13.3651L60.7817 17.4589ZM72.6414 15.4458C72.348 15.4057 72.0895 15.3857 71.8657 15.3857C71.0501 15.3857 70.5156 15.6636 70.262 16.2195V21.5376H68.1064V13.4102H70.1427L70.2023 14.3792C70.6349 13.633 71.2342 13.2599 71.9999 13.2599C72.2386 13.2599 72.4624 13.2925 72.6713 13.3576L72.6414 15.4458ZM75.7071 13.4102L75.7742 14.3191C76.346 13.613 77.1192 13.2599 78.0939 13.2599C79.1332 13.2599 79.8467 13.6731 80.2346 14.4994C80.8018 13.6731 81.6095 13.2599 82.6587 13.2599C83.5342 13.2599 84.1854 13.5179 84.6131 14.0336C85.0408 14.5445 85.2547 15.3156 85.2547 16.3472V21.5376H83.0912V16.3547C83.0912 15.894 83.0015 15.5584 82.823 15.3482C82.6435 15.1328 82.3284 15.0252 81.8759 15.0252C81.2295 15.0252 80.7817 15.3357 80.5325 15.9566L80.5402 21.5376H78.3847V16.3622C78.3847 15.8915 78.2928 15.5509 78.1088 15.3407C77.9248 15.1303 77.6115 15.0252 77.169 15.0252C76.5574 15.0252 76.1148 15.2806 75.8413 15.7913V21.5376H73.6857V13.4102H75.7071ZM90.6327 21.6878C89.4489 21.6878 88.4846 21.3222 87.738 20.5911C86.9971 19.86 86.6266 18.8861 86.6266 17.6692V17.4589C86.6266 16.6427 86.7832 15.914 87.0964 15.2731C87.4105 14.6271 87.8525 14.1313 88.4244 13.7858C89.0011 13.4352 89.6579 13.2599 90.394 13.2599C91.4977 13.2599 92.3656 13.6105 92.9967 14.3116C93.6335 15.0126 93.9514 16.0067 93.9514 17.2936V18.18H88.812C88.8817 18.7108 89.0908 19.1364 89.4393 19.4569C89.7916 19.7774 90.2365 19.9376 90.774 19.9376C91.6047 19.9376 92.2529 19.6346 92.7208 19.0287L93.7796 20.2231C93.4569 20.6838 93.0196 21.0443 92.4668 21.3047C91.915 21.5601 91.3039 21.6878 90.6327 21.6878ZM90.3864 15.0177C89.9587 15.0177 89.6102 15.1629 89.3419 15.4533C89.0784 15.7438 88.9094 16.1593 88.835 16.7003H91.8328V16.5275C91.8233 16.0468 91.6944 15.6761 91.4452 15.4157C91.197 15.1504 90.8437 15.0177 90.3864 15.0177ZM97.166 13.4102L97.2338 14.3491C97.8105 13.623 98.5838 13.2599 99.5529 13.2599C100.408 13.2599 101.045 13.5128 101.462 14.0186C101.881 14.5244 102.094 15.2806 102.104 16.2871V21.5376H99.9481V16.3397C99.9481 15.879 99.8488 15.5459 99.6503 15.3407C99.4517 15.1303 99.1204 15.0252 98.6583 15.0252C98.0511 15.0252 97.5966 15.2856 97.293 15.8064V21.5376H95.1372V13.4102H97.166ZM112.226 21.5376C112.127 21.3423 112.054 21.0994 112.009 20.809C111.487 21.3949 110.808 21.6878 109.973 21.6878C109.182 21.6878 108.526 21.4575 108.004 20.9968C107.487 20.536 107.228 19.9552 107.228 19.2541C107.228 18.3928 107.544 17.7318 108.176 17.2711C108.812 16.8103 109.729 16.5775 110.928 16.5725H111.92V16.1068C111.92 15.7312 111.823 15.4307 111.629 15.2055C111.44 14.9801 111.14 14.8674 110.726 14.8674C110.363 14.8674 110.078 14.955 109.869 15.1303C109.665 15.3056 109.563 15.5459 109.563 15.8514H107.408C107.408 15.3807 107.552 14.945 107.84 14.5445C108.128 14.1438 108.536 13.8309 109.063 13.6055C109.59 13.3751 110.182 13.2599 110.839 13.2599C111.833 13.2599 112.621 13.5128 113.203 14.0186C113.79 14.5194 114.083 15.2255 114.083 16.1368V19.6597C114.088 20.4309 114.195 21.0143 114.404 21.4099V21.5376H112.226ZM110.444 20.0278C110.762 20.0278 111.055 19.9577 111.323 19.8174C111.592 19.6722 111.791 19.4795 111.92 19.2391V17.8419H111.115C110.035 17.8419 109.461 18.2175 109.391 18.9686L109.384 19.0963C109.384 19.3668 109.478 19.5897 109.667 19.7648C109.856 19.9401 110.115 20.0278 110.444 20.0278ZM117.724 13.4102L117.79 14.3491C118.367 13.623 119.14 13.2599 120.11 13.2599C120.965 13.2599 121.602 13.5128 122.02 14.0186C122.437 14.5244 122.651 15.2806 122.66 16.2871V21.5376H120.506V16.3397C120.506 15.879 120.405 15.5459 120.207 15.3407C120.008 15.1303 119.677 15.0252 119.215 15.0252C118.609 15.0252 118.153 15.2856 117.85 15.8064V21.5376H115.695V13.4102H117.724Z" fill="#1E78DE"/>
<path d="M103.782 13.3651H105.978V21.5376H103.782V13.3651Z" fill="#1E78DE"/>
<path d="M104.833 11.9229C105.36 11.9229 105.787 11.4925 105.787 10.9615C105.787 10.4305 105.36 10 104.833 10C104.305 10 103.878 10.4305 103.878 10.9615C103.878 11.4925 104.305 11.9229 104.833 11.9229Z" fill="#EA3D90"/>
</svg>
