<svg xmlns="http://www.w3.org/2000/svg" xmlns:xlink="http://www.w3.org/1999/xlink" width="181.485" height="319.481" viewBox="0 0 181.485 319.481"><defs><linearGradient id="a" x1="1.609" y1="0.099" x2="-0.068" y2="0.671" gradientUnits="objectBoundingBox"><stop offset="0" stop-color="#1e78de"/><stop offset="1" stop-color="#e8f6ff" stop-opacity="0"/></linearGradient><linearGradient id="b" x1="0.035" y1="0.19" x2="0.618" y2="0.6" gradientUnits="objectBoundingBox"><stop offset="0" stop-color="#ffd683" stop-opacity="0"/><stop offset="1"/></linearGradient><linearGradient id="c" x1="-0.242" y1="0.575" x2="0.458" y2="0.504" gradientUnits="objectBoundingBox"><stop offset="0" stop-color="#1e78de" stop-opacity="0"/><stop offset="1"/></linearGradient><linearGradient id="d" x1="0.381" y1="0.795" x2="0.525" y2="0.336" xlink:href="#c"/><clipPath id="e"><path d="M905.232,199.44s-63.59,99.369-67.852,110.7c11.462,18.541,66.879,28.318,79.02,21.42S956.728,195.842,905.232,199.44Z" transform="translate(-837.38 -199.366)" fill="none"/></clipPath><clipPath id="f"><path d="M873.267,195.066s-25.632,42.307,4.2,70.862,36.1,62.214,36.1,62.214l3.914,24.822s-85.965-9.425-84.513-58.848c.879-29.546,2.436-59.5,9.076-79.4C850.547,189.326,857.111,193.962,873.267,195.066Z" transform="translate(-832.95 -194.02)" fill="none"/></clipPath><linearGradient id="g" x1="0.526" y1="1.277" x2="0.453" y2="-0.025" xlink:href="#c"/><clipPath id="h"><ellipse cx="3.017" cy="4.742" rx="3.017" ry="4.742" transform="matrix(0.609, -0.793, 0.793, 0.609, 0, 4.787)" fill="none"/></clipPath></defs><g transform="translate(-97.176 -28.419)"><g transform="translate(97.176 28.419)"><path d="M751.781,887.542,741.253,890.4c11.785.628,17.619,13.727-42.078,15.187l-1.688.243-2.694.069c-9.327,1.452-44.126,6.393-79.19,5.562a10.427,10.427,0,0,1-3.289-.363l-1.931.483c-2.451-.178-.055-.526,1.815-.726a.125.125,0,0,1,.04-.036h-.145a26.535,26.535,0,0,1-4.974-.036h1.5c-.142-.022-.269-.047-.4-.073-2.872-.548-1.594-1.111,1.5-1.663.824-.163,9.8-1.953,14.363-3.122a3.753,3.753,0,0,1-1.572-1.053c-1.63-2.269,6.7-5.871,15.793-9.439a35.659,35.659,0,0,1,6.172-1.539h0l.294-.033c9.97-1.772,27.458-3.108,45.36-4.077a72.262,72.262,0,0,1,12.576-3.565c2.7-.461,7.261-1.089,11.981-1.743l8.713-2.32,8.782-2.6H726c-1.089-.2-2.984-.363-5.083-.526h-.476a.176.176,0,0,0,0-.044l-2.541-.171c-.527,0-.882-.036-.882-.036h.407c-5.373-.363-9.875-.632-3.435-1.111,4.5,0,12.4,0,19.7.022a15.8,15.8,0,0,1,3.09-.185c2.5,0,5.41-.025,6.978.051,9.5.454,24.768,1.158,25.621,1.416,1.006.3-8.532,1.492-8.532,1.492l-2.309-.1-13.1,2.4,1.739.069s-5.526,1.169-11.146,2.458l-2.817,2.737C744.292,887.684,751.781,887.542,751.781,887.542ZM622.33,907.263h.1l-.806.091Zm2.676-.871.468-.069-.109-.025ZM744.637,879.74l-1.95.886,5.054-.748Z" transform="translate(-606.609 -592.099)" fill="url(#a)"/><path d="M950.68,771.346l2.349,22.767h12.66l.414-23.493Z" transform="translate(-825.762 -524.03)" fill="#edb9bd"/><path d="M927.306,833.8s2.756,12.09.29,14.032-27.331,1.917-36.876,1.917c-8.274-6.4,10.166-8.713,16.657-15.949Z" transform="translate(-786.236 -564.272)" fill="#ffd683"/><path d="M927.48,849.677c9.886-.163,23.316-.606,24.866-1.815,2.465-1.942-.29-14.032-.29-14.032h-9.076c-3.126,5.145-8.412,9.643-11.542,13.716a5.083,5.083,0,0,0-3.957,2.131Z" transform="translate(-810.985 -564.291)" fill="url(#b)"/><path d="M910.59,842.435a1.978,1.978,0,0,1,3.1,1.332l.911-3.489s2.541.283,3.307,1.307l.218-2.966s2.233-.182,2.9.472l-.8-2.095c1.089-.091,5.5-.548,3.856,3.267" transform="translate(-800.227 -566.267)" fill="none" stroke="#fff" stroke-linecap="round" stroke-linejoin="round" stroke-width="1.22"/><path d="M920.91,564.25l10.808,75.65,2.349,22.767h12.66l.4-22.767h.015V564.25Z" transform="translate(-806.8 -392.584)" fill="url(#c)"/><path d="M931.718,639.9h15.423L957.4,564.25H920.91Z" transform="translate(-806.8 -392.584)" fill="#1871c9"/><path d="M974.15,759.722l10.3,20.437,11.52-4.393-7.984-22.1Z" transform="translate(-840.711 -513.234)" fill="#edb9bd"/><path d="M981.932,810s6.8,10.373,5.163,13.052c-1.4,2.3-18.128,8.55-28.682,12.507-1.754.657-4.6.428-7.1.428-4.789,0-2.378-5.446,1.489-5.616,3.05-3.972,8.379-8.136,10.453-13.433Z" transform="translate(-824.473 -549.113)" fill="#ffd683"/><path d="M962.34,846.526s1.619-2.124,3.267.454l-.363-3.587s2.48-.621,3.558.073l-.831-2.857s2.03-.948,2.9-.574L969.4,838.35c.984-.461,4.967-2.432,4.749,1.714" transform="translate(-833.189 -566.615)" fill="none" stroke="#fff" stroke-linecap="round" stroke-linejoin="round" stroke-width="1.22"/><path d="M936.166,639.073l15.92-6.052s-6.971-25.777-8.811-40.245,6.016-28.526,6.016-28.526l-34.679,1.26s-.944,29.575,3.075,40.27S936.166,639.073,936.166,639.073Z" transform="translate(-802.727 -392.584)" fill="#1e78de"/><path d="M859.74,153.556s6.354,16.192,6.016,20.331c14.159-1.3,44.892-11.473,49.528-7.16s-27.632-32.864-38.426-32.367S859.74,153.556,859.74,153.556Z" transform="translate(-767.839 -118.767)" fill="#260525"/><path d="M914.508,590.648c6.688,7.483,18.313,18.008,34.08,22.462,1.87-13.8,1.881-14.279,1.881-14.279L914.49,586.27Z" transform="translate(-802.711 -406.61)" fill="url(#d)"/><path d="M907.572,197.035s21.242-.628,36.495.835l4.259,9.033H898.35Z" transform="translate(-792.431 -158.604)" fill="#5f3991"/><path d="M905.808,205.081s-15.3,3.224-16.81,5.039c-.523,2.581-8.35,95.818-4.625,107.247,33.242-11.473,60.344,0,60.344,0s-.429-30.061-1.318-48.446,2.9-41.367,2.353-42.841-11.077-20.1-11.077-20.1l-7.207-1.565Z" transform="translate(-782.891 -163.394)" fill="#9960cf"/><path d="M943.651,204.173s-4.495,14.885,7,10.855,15.386-11.422,15.386-11.422S952.666,201.908,943.651,204.173Z" transform="translate(-820.734 -162.486)" fill="#e8a3ab"/><path d="M922.236,264.589c-3.975,9.98-5.37,12.1-5.37,12.1s-6.346-13.829-6.346-14.076,3.994-33.107,5.852-34.276S914.477,253.5,922.236,264.589Z" transform="translate(-800.183 -178.601)" fill="#362551"/><g transform="translate(83.783 39.192)" clip-path="url(#e)"><path d="M959.132,180.026s3.659,27.3-8.053,40.724-26.6,40.26-26.6,40.26L910.7,230.764s41.861-48.142,41.861-55.679S959.132,180.026,959.132,180.026Z" transform="translate(-884.081 -182.359)" fill="#ff4065"/><path d="M1029.615,212.42s-19.968,91.981-22.786,97.107c18.657,16.338,17.612,41.977,17.612,41.977s36.433-6.128,41.069-35.282-24.648-99.681-23.918-99.434S1029.615,212.42,1029.615,212.42Z" transform="translate(-945.31 -207.681)" fill="#ffb800"/><path d="M982.911,189.846s7.566,23.4-30.261,75.153c20.5,24.891,22.255,29.771,22.255,29.771s19.87-48.08,18.817-64.675,10.166-36,3.344-39.112S982.911,189.846,982.911,189.846Z" transform="translate(-910.8 -192.909)" fill="#1e78de"/></g><path d="M919.072,352.94s6.677,8.016,24.325,16.192c12.2,5.649,27.313,52.03,27.313,52.03a27.245,27.245,0,0,1-5.958,8.5c-8.408-3.54-50.392-63.575-50.392-63.575l4.15-12.812Z" transform="translate(-802.628 -257.992)" fill="#362551"/><g transform="translate(82.175 37.251)" clip-path="url(#f)"><path d="M884.672,186.8s-19.747,24.732-7.922,56.637,44.035,54,43.385,75.952-1.046,25.16-1.046,25.16l29.843,8.194L940.8,247.819s-36.934-32.871-36.934-33.354S884.672,186.8,884.672,186.8Z" transform="translate(-858.445 -189.421)" fill="#ff4065"/><path d="M817.19,310.49s-20.277,54.179,0,83.71,37.671,23.428,37.671,23.428-10.166-73.214-11.451-75.411S817.19,310.49,817.19,310.49Z" transform="translate(-817.171 -268.205)" fill="#ffb800"/><path d="M836.209,201.673s-10.957,54.056,7.907,69.028c16.091,12.772,20.981,71.265,20.981,71.265l31.041,7.809s6.208-27.091-1.111-40.027-40.089-47.455-40.514-77.121c-.24-16.853,4.72-40.263,4.72-40.263L839.08,190.93Z" transform="translate(-833.01 -192.052)" fill="#1e78de"/></g><g transform="translate(88.249 67.333)"><path d="M854.128,276.88s-10.006,30.751,0,35.874,14.885,4.64,14.885,4.64-13.433-6.535-13.179-12.9S854.128,276.88,854.128,276.88Z" transform="translate(-849.681 -276.88)" fill="#1259a0"/></g><path d="M855.83,222.045s3.994-3.322,4.248-4.72l.327,3.907s5.043-8.263,4.564-11.367a13.214,13.214,0,0,1,.033-5s6.724,2.541,8.757,3.572c2.178,1.507,4.436,5.243,7.788,5.609-1.855-8.169-3.482-9.182-3.482-9.182l-11.727-3.315S861.185,204.255,855.83,222.045Z" transform="translate(-765.348 -161.566)" fill="url(#g)"/><g transform="translate(150.782 69.773)"><path d="M1030.459,283.6s3.663,25.381,0,30.134a14.041,14.041,0,0,1-8.539,5.37s6.059-7.566,6.753-11.836S1030.459,283.6,1030.459,283.6Z" transform="translate(-1021.92 -283.6)" fill="#1259a0"/></g><path d="M903.071,129.771s10.688,11.055-1.9,28.159c-4.335,6.535-15.877,7.588-20.564-2.258-3.246-2.066-12.968-6.648-16.229-12.286C860.93,137.421,867.055,102.611,903.071,129.771Z" transform="translate(-770.26 -109.327)" fill="#edb9bd"/><path d="M924.03,194.9a.559.559,0,0,0-.657.781c.654,1.325,2.084,3.994,2.952,4.037,1.158.04,2.857-1.982,1.5-2.73A23.1,23.1,0,0,0,924.03,194.9Z" transform="translate(-808.333 -157.318)" fill="#e8a3ab"/><ellipse cx="3.017" cy="4.742" rx="3.017" ry="4.742" transform="matrix(0.609, -0.793, 0.793, 0.609, 102.816, 38.872)" fill="#fff"/><g transform="translate(102.816 34.085)" clip-path="url(#h)"><ellipse cx="2.926" cy="3.413" rx="2.926" ry="3.413" transform="translate(-1.847 4.286) rotate(-53.53)" fill="#3a0835"/></g><ellipse cx="3.017" cy="4.742" rx="3.017" ry="4.742" transform="matrix(0.609, -0.793, 0.793, 0.609, 110.724, 28.171)" fill="#fff"/><g transform="translate(110.724 23.384)" clip-path="url(#h)"><ellipse cx="2.926" cy="3.413" rx="2.926" ry="3.413" transform="translate(-1.843 4.284) rotate(-53.53)" fill="#3a0835"/></g><path d="M944.38,209.966a5.919,5.919,0,0,0,1.38-5.286" transform="translate(-821.749 -163.559)" fill="none" stroke="#e8a3ab" stroke-linecap="round" stroke-miterlimit="10" stroke-width="3.3"/><path d="M886.613,187.8c-.091-.581-.682-1.656,2.334-2.93" transform="translate(-784.887 -150.941)" fill="none" stroke="#3a0835" stroke-linecap="round" stroke-miterlimit="10" stroke-width="3.15"/><path d="M907.205,156.2c-.476-.29-.879-2.679,2.451-4.378" transform="translate(-797.87 -129.891)" fill="none" stroke="#3a0835" stroke-linecap="round" stroke-miterlimit="10" stroke-width="3.15"/><path d="M861.24,107.312a10.372,10.372,0,0,1-1.231-1.859,7.257,7.257,0,0,1-.726-2.088,4.022,4.022,0,0,1,.17-2.178,3.921,3.921,0,0,1,1.322-1.677,3.775,3.775,0,0,0-1.067,1.757,3.631,3.631,0,0,0,.087,1.993,6.563,6.563,0,0,0,.908,1.815,9.387,9.387,0,0,0,1.307,1.528Z" transform="translate(-767.498 -96.572)" fill="#3a0835"/><path d="M847.79,102.543c-8.31,12.522,1.688,21.783,6.455,30a4.763,4.763,0,0,1,4.15-4.052c-4.128-3.242-5.489-9.973-5.489-9.973l5.689,7.087s6.4-11.346,11.193-17.833c32.6,4.288,16.3,34.814,24.325,37.972a24.218,24.218,0,0,0,4.1-.33c.363-.065.995-7.842.995-7.842s1.739,5.649,1.292,7.308c5.584-.454,8.539-11.055,8.539-11.055s-19.148-55.784-53.675-39.385c-3.58,1.7-4.106,6.393-4.106,6.393a25.493,25.493,0,0,0-2.977.991C848.11,102.056,847.95,102.3,847.79,102.543Z" transform="translate(-758.194 -91.418)" fill="#3a0835"/><path d="M856.076,117.163a6.123,6.123,0,0,0-1.2-.519,4.143,4.143,0,0,0-1.292-.218,2.45,2.45,0,0,0-1.253.323,2.614,2.614,0,0,0-.893,1,2.436,2.436,0,0,1,2.124-1.663,4.658,4.658,0,0,1,1.452.058,6.987,6.987,0,0,1,1.391.41Z" transform="translate(-762.552 -107.109)" fill="#3a0835"/><path d="M846.46,161.27s6.535,27.879,4.821,32.86c2.828-3.8,1.772-12.181,1.772-12.181s2.178,4.861,1.892,8.3c2.044-10.456-2.541-16.04-2.541-16.04s2.941,3.573,3.1,6.259c-.748-4.571,1.507-6.5,1.507-6.5l-7.054-8.441Z" transform="translate(-759.38 -135.91)" fill="#3a0835"/><path d="M916.908,123.877s-2.411,10.5-.458,14.2a11.69,11.69,0,0,1,.893,7.69s2.142-4.556.948-9.029,1.5-13.262,1.5-13.262Z" transform="translate(-803.474 -111.833)" fill="#3a0835"/><path d="M942.844,141.462c1.387.988,2.4,2.117,3.456.635a2.985,2.985,0,0,0-.9-4.244,2.766,2.766,0,0,0-4.128.668C940.738,139.375,941.454,140.475,942.844,141.462Z" transform="translate(-819.658 -120.593)" fill="#edb9bd"/><path d="M945.79,142.9s1.714-.98,2.342.523" transform="translate(-822.647 -124.008)" fill="none" stroke="#e8a3ab" stroke-linecap="round" stroke-miterlimit="10" stroke-width="2.26"/><path d="M897.634,127.413c5.882,2.033,20.767,14.493,19.718,29.27,1.51-9.156-.8-14.272-.8-14.272s2.156,1.452,3.213,7.13c1.674-10.529-7.472-21.522-7.472-21.522S891.756,125.383,897.634,127.413Z" transform="translate(-791.301 -113.856)" fill="#3a0835"/></g></g></svg>