<svg xmlns="http://www.w3.org/2000/svg" xmlns:xlink="http://www.w3.org/1999/xlink" width="1272.407" height="1251.019" viewBox="0 0 1272.407 1251.019"><defs><clipPath id="a"><ellipse cx="11.009" cy="14.15" rx="11.009" ry="14.15" transform="translate(0 21.833) rotate(-82.55)" fill="none"/></clipPath><clipPath id="b"><ellipse cx="14.15" cy="11.009" rx="14.15" ry="11.009" transform="translate(0 0.326) rotate(-0.66)" fill="none"/></clipPath><linearGradient id="c" x1="0.5" y1="0.207" x2="0.5" y2="0.891" gradientUnits="objectBoundingBox"><stop offset="0" stop-color="#1e78de" stop-opacity="0"/><stop offset="1" stop-color="#dee8dd"/></linearGradient></defs><g transform="translate(-613.356 296.084)"><path d="M983.767,671.932c-40.5,216.335,28.947,274.237-170.255,302.555S559.5,803.666,470.678,872.559s-299.318,8.762-252.7-167.443S-47.915,468.471,8.667,400.392s-1.9-49.614,204.913-110.473S317.558-4.724,436.832,2.032s130.512,117.745,292.195,126.9,167.708-64.649,231.393,71.1S1024.268,455.6,983.767,671.932Z" transform="translate(929.83 -298.452) rotate(19)" fill="#e0f0fd" opacity="0.5"/><g transform="translate(939.327 101.434)"><g transform="translate(83.724)"><path d="M577.1,868.081,619.39,895.3s-22.778,29.431,105.453,29.431c148.1,0-114.212-78.928-114.212-78.928Z" transform="translate(-493.637 -359.825)" fill="#155195" opacity="0.72"/><path d="M1224.37,857.14,1176.461,895.3s27.534,33.469-105.446,29.431c-148.027-4.514,114.212-78.928,114.212-78.928Z" transform="translate(-632.608 -359.825)" fill="#155195" opacity="0.59"/><path d="M1284,849.577s3.783,7.551,15.109,6.8c9.815-10.574,24.158-19.637,24.158-19.637l-14.35-6.8Z" transform="translate(-712.613 -354.912)" fill="#f99a00"/><path d="M527.556,586.463s-137-217.278-31.392-279.764c93.374-55.253,163.509,122.537,306.221-13.494,95.487-91.028,322.959,126.892,218.872,176.81S905.3,576.151,905.3,576.151" transform="translate(-456.179 -181.839)" fill="none" stroke="#155195" stroke-linecap="round" stroke-miterlimit="10" stroke-width="1.54" stroke-dasharray="24.64"/><path d="M734.343,779.7s-104.735-4.051-116.221-88.508C603.966,587.045,666.238,470,818.8,463.949s-7.593-6.039,59.664-6.039S1179.4,575.525,1054.748,736.39c-42.291-46.066-138.522,47.93-138.522,47.93Z" transform="translate(-505.739 -239.669)" fill="#ffb800"/><ellipse cx="11.009" cy="14.15" rx="11.009" ry="14.15" transform="translate(272.536 270.497) rotate(-82.55)" fill="#fff"/><path d="M1159.05,595.5s30.135,41.455,0,107.31c42.249,13.177,105.847-8.048,105.847-8.048V637.751L1215.055,572.8Z" transform="translate(-673.907 -275.258)" fill="#f99a00"/><path d="M583.928,858.364s-6.343,8.614-17.67,7.855c-9.822-10.574-24.158-19.637-24.158-19.637l14.35-6.792Z" transform="translate(-482.795 -357.963)" fill="#f99a00"/><path d="M680.76,608.471s-29.68,60.609-3.589,113.647c-42.242,13.177-106.641-17.511-106.641-17.511V647.6l49.849-64.951Z" transform="translate(-491.601 -278.309)" fill="#f99a00"/><path d="M662.474,760.212l-55.4-11.327c-25.249-7.793-52.782,4.452-60.692,26.981h0c-4.832,13.8-1.229,28.817,9.539,39.7l65.386,33.89Z" transform="translate(-483.469 -329.076)" fill="#e8a3ab"/><path d="M611.509,750.39s-27.94,16.255-31,75.925c-14.812-7.751-15.875-8.517-15.875-8.517s-4.224-31.661,9.518-49.517S611.509,750.39,611.509,750.39Z" transform="translate(-489.586 -330.27)" fill="#d8939e"/><path d="M595.542,665.581C570,669.453,544.071,707.2,555.4,754.027c-46.073-27.94-54.6-61.879-44.644-100.912,16.628-65.185,121.681-167.2,222.882-175.5-23.972,109.6-111.6,95.556-141.8,138.2C576.8,637.053,595.542,665.581,595.542,665.581Z" transform="translate(-471.935 -245.771)" fill="#ffb800"/><path d="M1240.19,740.63l5.169-1.595c25.242-7.793,52.782,4.452,60.692,26.981h0c4.832,13.8,1.229,28.817-9.546,39.7l-46.625,36.106Z" transform="translate(-699.042 -326.024)" fill="#e8a3ab"/><path d="M1295.286,742.106a52.077,52.077,0,0,0-18.836-5.156c2.071,2.609,25.538,33.635,12.749,83.2h0l18.539-14.357a42.773,42.773,0,0,0,3.375-3.844C1310.32,790.167,1306.806,750.368,1295.286,742.106Z" transform="translate(-710.274 -326.107)" fill="#d8939e"/><path d="M1203.431,653.714c26.229,15.378,34.76,43.982,23.433,90.807,46.066-27.947,55.729-61.368,51.195-101.395S1167.753,499.262,1050.89,468.85c25.939,129.763,114.3,102.727,148.786,141.987C1223.7,638.191,1203.431,653.714,1203.431,653.714Z" transform="translate(-640.402 -243.057)" fill="#ffb800"/><path d="M1000.335,334.548c11.105,110.257-48.565,150.284-108.477,150.284s-119.01-39.509-108.47-150.284c0-78.852,48.565-117.008,108.47-117.008S1000.335,255.7,1000.335,334.548Z" transform="translate(-557.158 -165.209)" fill="#edb9bd"/><ellipse cx="20.962" cy="13.101" rx="20.962" ry="13.101" transform="translate(417.557 226.101) rotate(-62.05)" fill="#edb9bd"/><ellipse cx="13.101" cy="20.962" rx="13.101" ry="20.962" transform="matrix(0.979, -0.205, 0.205, 0.979, 211.16, 195.934)" fill="#edb9bd"/><path d="M813.487,335c27.25,55.556,77.051,54.763,126.313,36.941s63.936-40.882,63.936-40.882,34.318-122.64-116.352-122.64C755.681,208.42,758.849,335,813.487,335Z" transform="translate(-555.858 -162.384)" fill="#3a0835"/><path d="M978.212,700.755h-5.267c0-21.093-22.088-38.252-49.248-38.252s-49.241,17.159-49.241,38.252H869.19c0-23.35,24.448-42.345,54.528-42.345S978.212,677.405,978.212,700.755Z" transform="translate(-584.117 -301.777)" fill="#fff"/><path d="M995.577,669.163a3.524,3.524,0,0,1-1.774-.463,1.972,1.972,0,0,1-.58-3.2l14.253-14.66a3.52,3.52,0,0,1,4.141-.442,1.973,1.973,0,0,1,.58,3.2l-14.253,14.653A3.3,3.3,0,0,1,995.577,669.163Z" transform="translate(-622.355 -299.147)" fill="#fff"/><path d="M891.717,669.165a3.313,3.313,0,0,1-2.354-.911L875.117,653.6a1.988,1.988,0,0,1,.573-3.2,3.535,3.535,0,0,1,4.142.442L894.078,665.5a1.988,1.988,0,0,1-.573,3.2A3.528,3.528,0,0,1,891.717,669.165Z" transform="translate(-585.772 -299.148)" fill="#fff"/><ellipse cx="7.358" cy="5.715" rx="7.358" ry="5.715" transform="translate(313.704 379.348)" fill="#fff"/><ellipse cx="7.358" cy="5.715" rx="7.358" ry="5.715" transform="translate(350.741 379.348)" fill="#fff"/><path d="M943.412,525.2a3.72,3.72,0,0,0-6.44.159c-4.693,7.848-11.734,22.778,3.037,22.778C955.519,548.138,948.554,533.077,943.412,525.2Z" transform="translate(-603.3 -259.962)" fill="#e8a3ab"/><path d="M837.79,486.33s27.954,1.6,44.023,7.344" transform="translate(-574.391 -248.472)" fill="none" stroke="#3a0835" stroke-linecap="round" stroke-miterlimit="10" stroke-width="9.11"/><path d="M976,498.177s31.557-7.1,48.185-3.258" transform="translate(-617.203 -250.78)" fill="none" stroke="#3a0835" stroke-linecap="round" stroke-miterlimit="10" stroke-width="9.11"/><ellipse cx="11.009" cy="14.15" rx="11.009" ry="14.15" transform="translate(272.536 270.497) rotate(-82.55)" fill="#fff"/><g transform="translate(272.536 248.664)" clip-path="url(#a)"><ellipse cx="11.009" cy="14.15" rx="11.009" ry="14.15" transform="translate(0.001 26.654) rotate(-82.55)" fill="#3a0835"/></g><ellipse cx="14.15" cy="11.009" rx="14.15" ry="11.009" transform="translate(365.308 250.558) rotate(-0.66)" fill="#fff"/><g transform="translate(365.308 250.232)" clip-path="url(#b)"><ellipse cx="14.15" cy="11.009" rx="14.15" ry="11.009" transform="translate(0.676 5.094) rotate(-0.66)" fill="#3a0835"/></g><path d="M1084.13,446.345s-6.019-34.587-13.356-45.072,8.387-23.061,8.387-23.061l5.245-20.962,11.527,5.239-5.6,40.24S1090.149,430.628,1084.13,446.345Z" transform="translate(-645.957 -208.487)" fill="#3a0835"/><path d="M790.47,441.514l23.688-73.9L781.6,329.8v62.659S784.451,425.79,790.47,441.514Z" transform="translate(-556.985 -199.984)" fill="#491246"/><path d="M829.876,372.283a1.66,1.66,0,0,0,.048-.331v1.408c.035.69.083,1.429.152,2.16.138,1.47.331,2.961.559,4.452a90.279,90.279,0,0,0,1.871,8.9,85.953,85.953,0,0,0,6.433,17.063A68.063,68.063,0,0,0,849.2,420.958a57.98,57.98,0,0,0,22.55,15.33c2.913,1.077,5.95,2.022,8.973,2.927a129.087,129.087,0,0,0,18.422,4.024,82.277,82.277,0,0,0,18.836.566,53.139,53.139,0,0,0,9.3-1.67,39.443,39.443,0,0,0,4.48-1.539,22.372,22.372,0,0,0,4.19-2.23,21.828,21.828,0,0,1-4.086,2.457,39.047,39.047,0,0,1-4.431,1.788,53.3,53.3,0,0,1-9.332,2.195,84.032,84.032,0,0,1-19.175.442,132.614,132.614,0,0,1-18.974-3.106c-3.127-.759-6.212-1.567-9.318-2.492a61.542,61.542,0,0,1-9.152-3.562,62.649,62.649,0,0,1-16.2-11.278A74.348,74.348,0,0,1,833,409.245a93.634,93.634,0,0,1-8.283-18.022,98.5,98.5,0,0,1-2.705-9.58c-.373-1.629-.69-3.272-.973-4.949-.138-.842-.262-1.691-.359-2.575-.055-.449-.1-.89-.131-1.38a6.705,6.705,0,0,0-.035-.8v-.87a3.927,3.927,0,0,1,.083-.628Z" transform="translate(-569.037 -212.573)" fill="#491246"/><path d="M926.06,593.426s17.78,5.888,30.515-5.736" transform="translate(-601.734 -279.87)" fill="none" stroke="#e8a3ab" stroke-linecap="round" stroke-miterlimit="10" stroke-width="5.68"/><path d="M1239.473,753.856s-1.132-43.616-41.11-61.555c-29.494-17.124-38.653,2.154-29.349,9.871,25.787,12.6,49.476,39.3,49.476,39.3Z" transform="translate(-675.913 -310.143)" fill="#edb9bd"/><path d="M638.37,743.619s3.679-38.784,45.383-52.209c31.192-13.8,38.17,6.385,28.086,13.032-27.022,9.663-53.507,33.628-53.507,33.628Z" transform="translate(-512.616 -310.536)" fill="#edb9bd"/><g transform="translate(62.404 125.009)"><path d="M663.3,591.69,559.59,274.55h558.728L997.672,618.043Z" transform="translate(-559.59 -274.55)" fill="url(#c)"/></g><path d="M1054.147,759.308l-31.84,93.181a41.82,41.82,0,0,1-39.571,28.3H742.362a41.82,41.82,0,0,1-39.57-28.3l-31.821-93.185A41.769,41.769,0,0,1,710.522,704h304.054A41.79,41.79,0,0,1,1054.147,759.308Z" transform="translate(-522.006 -315.9)" fill="#155195"/><path d="M1153.4,705.7l-33.5,8.234L1084.46,881.329h27.071a41.821,41.821,0,0,0,39.57-28.3l31.841-93.185A41.848,41.848,0,0,0,1153.4,705.7Z" transform="translate(-650.801 -316.426)" fill="#155195"/><path d="M694.873,716.2V713h-6.364a41.814,41.814,0,0,0-17.525,49.1l31.84,93.181a41.822,41.822,0,0,0,39.571,28.3h.9Z" transform="translate(-522.018 -318.688)" fill="#155195"/><path d="M748.944,782.8a17.085,17.085,0,0,1-11.513-4.424c-16.358-14.764-31.75-21.77-45.872-20.831-16.255,1.091-26.091,12.493-26.5,12.976l.124-.145-25.918,4.411c-16.007-12.935,6.005-45.341,34.663-48.848,4.6-.559,9.284-2.243,14.495-2.651,23.993-1.891,48.226,8.055,72.039,29.549a17.187,17.187,0,0,1-11.52,29.949Z" transform="translate(-511.221 -321.804)" fill="#edb9bd"/><path d="M718.49,874.719a17.178,17.178,0,0,1-5.059-.766c-32.041-9.857-46.294-10.4-51.671-9.967a17.194,17.194,0,0,1-31.53-9.484,22.855,22.855,0,0,1,9.56-18.436c7.082-5.232,17.338-7.289,31.371-6.295,13.446.96,31.061,4.763,52.375,11.32a17.194,17.194,0,0,1-5.046,33.628Zm-53.907-20.237Z" transform="translate(-510.095 -354.785)" fill="#edb9bd"/><path d="M695.791,901.065a15.1,15.1,0,0,1-4.445-.69c-19.547-6.012-34.608-11.658-44.954-16.835h-.407a16.98,16.98,0,0,1-9.07-30.018c1.995-1.38,9.159-5.577,17.815.138,7.1,4.68,23.247,11.044,45.493,17.87a15.088,15.088,0,0,1-4.431,29.535Zm-64.882-32.586Z" transform="translate(-510.243 -361.355)" fill="#edb9bd"/><path d="M739.827,838.138a17.163,17.163,0,0,1-8.083-2.029c-31.875-17.021-51.443-21.287-62.245-21.867-9.076-.483-12.921,1.525-13.8,2.071a17.194,17.194,0,0,1-27.154-21.01c2.14-3.1,10.74-13.342,31.55-15.227,22.529-2.07,52.078,6.606,87.832,25.7a17.194,17.194,0,0,1-8.11,32.358ZM655.529,816.457Zm1.3-1.567Zm0,0Zm0,0Z" transform="translate(-508.633 -339.373)" fill="#edb9bd"/><path d="M1105.227,789.214a17.256,17.256,0,0,1-11.52-30.039c23.91-21.487,48.227-31.426,72.288-29.528,30.612,2.409,46.321,25.987,48.233,28.341L1189.38,776.8l.117.152c-.407-.49-10.291-11.893-26.635-12.99-14.164-.953-29.68,6.067-46.114,20.845A17.2,17.2,0,0,1,1105.227,789.214Z" transform="translate(-651.911 -323.774)" fill="#edb9bd"/><path d="M1147.931,871.544a17.256,17.256,0,0,1-5.046-33.7c36.824-11.278,47.75-18.415,53.244-21.4,1.291-4.6,7.786-7.544,12.425-9.767a17.256,17.256,0,0,1,22.971,8.1,21.062,21.062,0,0,1,.3,17.794c-5.025,11.444-17.09,19.285-78.859,38.2A17.183,17.183,0,0,1,1147.931,871.544Zm52.526-41.918Z" transform="translate(-665.169 -347.185)" fill="#edb9bd"/><path d="M1182,902.007a15.116,15.116,0,0,1-4.617-29.514c29.493-9.463,34.725-20.162,35.133-21.107a15.21,15.21,0,1,1,27.7,12.065,46.075,46.075,0,0,1-8.6,12.618c-9.664,10.243-24.848,18.719-45,25.193A15.176,15.176,0,0,1,1182,902.007Zm60.285-46.149a20.013,20.013,0,0,1-.38,2.513,10.62,10.62,0,0,0,.379-2.513Zm-29.77-4.432a9.664,9.664,0,0,0-.359,2.306A19,19,0,0,1,1212.514,851.426Z" transform="translate(-676.328 -357.859)" fill="#edb9bd"/><path d="M1114.735,840.3a17.256,17.256,0,0,1-8.393-32.282c36.541-20.341,65.068-32.1,84.8-34.933,20.52-2.954,29.19,4.328,32.53,8.925a17.256,17.256,0,0,1-22.964,24.814c-4.417-.186-23.772,1.312-77.637,31.3A17.137,17.137,0,0,1,1114.735,840.3ZM1195.8,802.266Z" transform="translate(-654.862 -337.087)" fill="#edb9bd"/><path d="M1361.915,703.538c-1.125-9.974-8.538-23.9-20.838-39.668,35.892,82.372-19.457,133.863-19.457,133.863C1356.118,772.719,1366.457,743.564,1361.915,703.538Z" transform="translate(-724.266 -303.469)" fill="#f99a00"/><path d="M690.93,713.408h357.022A41.411,41.411,0,0,0,1021.468,704H717.414a41.412,41.412,0,0,0-26.484,9.408Z" transform="translate(-528.898 -315.9)" fill="#155195"/><path d="M580.5,586.57c-35.892,32.793-62.121,70.4-69.713,100.3-9.981,39.033-1.456,72.971,44.617,100.912C555.4,787.779,469.278,699.644,580.5,586.57Z" transform="translate(-471.941 -279.523)" fill="#f99a00"/><path d="M718.8,512.659l1.1-.559Z" transform="translate(-537.531 -256.455)" fill="#f99a00"/><path d="M1280.373,721.68a10.748,10.748,0,0,1-.642,1.732,23.543,23.543,0,0,1-2.671,4.756h0c.325.152,28.01,11.672,34.967,38.453,6.689,25.739-.3,42.332-4.2,49.007q5.522-4,10.222-8.131c3.03-9.76,4.77-24.02,0-42.436C1310.322,735.409,1282.968,722.626,1280.373,721.68Z" transform="translate(-710.463 -321.376)" fill="#ffca55"/><path d="M599.931,731.13C579.01,734.146,559.3,751.72,549.462,779a168.016,168.016,0,0,0-8.151,34.7q2.664,2.637,5.66,5.218a167.16,167.16,0,0,1,8.38-37.963c9.7-26.809,27.078-41.49,47.577-42.746C602.161,736.755,600.911,733.422,599.931,731.13Z" transform="translate(-482.55 -324.304)" fill="#ffca55"/><path d="M825.118,352.078c-25.642-3.983-38.984-23.309-45.88-43.878-5.777,29.68,8.538,57.71,34.249,57.71,27.25,55.557,77.05,54.763,126.312,36.941a199.755,199.755,0,0,0,34.429-16.02C879.232,397.509,853.383,383.194,825.118,352.078Z" transform="translate(-555.859 -193.293)" fill="#491246"/><path d="M828.736,353.567l.6-50.5,13.411,57.117-15.268-6.433" transform="translate(-571.197 -191.704)" fill="#491246"/><rect width="82.945" height="4.024" rx="2.012" transform="translate(368.184 390.288)" fill="#fff"/><path d="M568.532,439.926l-14.861,6.6,15.7,4.231.538,6.992-24.289-6.9-.573-7.379,22.943-10.547Z" transform="translate(-483.708 -231.927)" fill="#155195"/><path d="M595.864,414.6l8.1-.628-12.314,46.356-8.1.621Z" transform="translate(-495.635 -226.057)" fill="#155195"/><path d="M639.436,436.963l.566,7.372-22.943,10.526-.538-7,14.86-6.592-15.7-4.231-.539-7Z" transform="translate(-505.42 -231.035)" fill="#155195"/><path d="M1332.482,417.639c.987,1.38.918,2.644-.538,4.473l-2.485,3.127a2.019,2.019,0,0,0,.38,3.168l.345.269-2.816,3.541-1.6-1.277c-3.451-2.761-3.823-5.867-1.381-8.89l3.01-3.782a1.242,1.242,0,0,0-.186-1.94l-.842-.69,2.837-3.568.835.69a1.243,1.243,0,0,0,1.933-.255l3.009-3.782c2.409-3.03,5.522-3.368,8.973-.628l1.6,1.277-2.809,3.534-.345-.269a2.022,2.022,0,0,0-3.175.345l-2.485,3.12C1335.264,417.943,1334.056,418.295,1332.482,417.639Z" transform="translate(-724.637 -223.659)" fill="#155195"/><path d="M1355.488,432.812l-2.837,3.568-.807-.649a1.236,1.236,0,0,0-1.933.255l-3.009,3.783c-2.409,3.023-5.522,3.368-8.973.621L1336.3,439.1l2.816-3.534.366.29a2.022,2.022,0,0,0,3.175-.345l2.485-3.127c1.449-1.829,2.657-2.181,4.231-1.532-.987-1.38-.918-2.637.539-4.466l2.484-3.127a2.016,2.016,0,0,0-.379-3.168l-.366-.29,2.816-3.541,1.622,1.291c3.451,2.761,3.824,5.867,1.381,8.9l-3.009,3.783a1.242,1.242,0,0,0,.187,1.94Z" transform="translate(-728.814 -226.767)" fill="#155195"/><path d="M0,0H26.457V23.178a3.451,3.451,0,0,1-3.451,3.451H3.52A3.451,3.451,0,0,1,.069,23.178V0Z" transform="translate(512.759 58.71) rotate(-9.54)" fill="#35bab6"/><rect width="4.839" height="18.408" rx="2.419" transform="translate(541.254 53.916) rotate(-9.54)" fill="#35bab6"/><rect width="6.49" height="18.491" rx="3.245" transform="translate(531.274 72.033) rotate(-9.744)" fill="#35bab6"/><rect width="6.49" height="18.491" rx="3.245" transform="translate(520.566 73.877) rotate(-9.744)" fill="#35bab6"/><rect width="4.839" height="18.408" rx="2.419" transform="translate(505.626 59.911) rotate(-9.54)" fill="#35bab6"/><path d="M1209.427,201.987a13.225,13.225,0,0,0-10.851,15.24l26.091-4.39A13.225,13.225,0,0,0,1209.427,201.987Zm-3.527,8.973a1.139,1.139,0,1,1,.741-.461A1.139,1.139,0,0,1,1205.9,210.959Zm9.794-1.65a1.139,1.139,0,1,1,.932-1.311,1.139,1.139,0,0,1-.932,1.311Z" transform="translate(-686.093 -160.334)" fill="#35bab6"/><path d="M1225.021,203.575a.881.881,0,0,1-.441,0,.967.967,0,0,1-.649-1.215l1.519-4.99a.974.974,0,0,1,1.864.566l-1.519,4.99a.959.959,0,0,1-.773.649Z" transform="translate(-693.991 -158.747)" fill="#35bab6"/><path d="M1203.464,207.305a1,1,0,0,1-.953-.386l-3.065-4.224a.976.976,0,0,1,1.581-1.146l3.065,4.217a.98.98,0,0,1-.221,1.38,1.009,1.009,0,0,1-.407.159Z" transform="translate(-686.363 -160.131)" fill="#35bab6"/><path d="M686.9,142.411l-39.5,12.044a15.689,15.689,0,0,0-10.436,19.582l5.432,17.815a15.689,15.689,0,0,0,19.582,10.429l39.5-12.051a15.689,15.689,0,0,0,10.429-19.582l-5.425-17.8A15.689,15.689,0,0,0,686.9,142.411ZM669.648,189.4l-8.711-28.5,25.242,7.882Z" transform="translate(-511.971 -141.724)" fill="#ff4065"/></g></g></g></svg>